<?xml version="1.0" encoding="UTF-8"?><svg id="_層_2" xmlns="http://www.w3.org/2000/svg" viewBox="0 0 652.8 707.79"><defs><style>.cls-1{fill:#7f9a00;}.cls-2{fill:#904eff;}.cls-3{fill:#c800cb;}.cls-4{fill:#515b5a;stroke-width:1.1px;}.cls-4,.cls-5{stroke:#8a7900;stroke-miterlimit:10;}.cls-6{fill:#ad0ea6;}.cls-7{fill:#fbd2a7;}.cls-5{fill:#938e8a;stroke-width:.75px;}.cls-8{fill:#a0b06c;}.cls-9{fill:#634932;}.cls-10{fill:#ff7a43;}.cls-11{fill:#d6d4d6;}.cls-12{fill:#c300b1;}</style></defs><g id="_層_1-2"><g><path class="cls-1" d="M356.99,292.24c-19.54,22.29-4.39,63.53-20.82,115.29-12.43,39.15-14.42,86.43,8.66,108.52,3.13,3,8.08,6.63,31.61,9.66,34.46,4.44,50.55,.1,75.38,0,42.55-.16,36.77,.51,89.36,2.57,26.55,1.04,34.03-.62,55.81,6.04,21.96,6.71,24.48,6.33,31.5,1.34,12.64-8.99,15.2-27.07,6.92-106.56-13.48-129.5-36.41-130.96-49.47-149.7-6.08-8.72-27.09-29.13-47.53-26.83s-38.9,3.15-48.08,3.32c-29.72,.56-46.43,.28-75.16,0-21.4-.21-36.59,11.7-58.2,36.35Z"/><rect class="cls-5" x="27.87" y="528.73" width="500.43" height="174.79"/><polygon class="cls-4" points="652.24 587.19 530.56 706.49 529.05 528.73 650.85 404.13 652.24 587.19"/><polygon class="cls-5" points="529.05 528.73 27.87 528.73 149.67 404.13 650.85 404.13 529.05 528.73"/><path class="cls-8" d="M569.66,275.85c-17.96-3.03-23.11,3.57-42.6,14.24-22.8,12.48-19.41,11.69-44.7,35.35-21.4,20.01-33.93,33.29-51.42,53.57-21.87,25.36-30.02,38.71-26.2,46.54,3.11,6.39-2.65,8.01-4.1,11.06-1.42,3.01-.27,3.26-10.65,9.16-8.16,4.63,9.72,10.96,11.38,16.3,6.2,19.98,11.87,26.1,32.14,32.09,6.58,1.95-5.73,2.55,2.8-1.7,4.09-2.04,11.82,3.56,34.58-22.32,14.4-16.37,21.82-28.99,30.69-43.16,21.85-34.94,22.06-20.29,57.53-63.84,11.9-14.61-7.88,11.53,26.9-41.18,7.16-10.85,6.19-17.52,4.84-25.48-2.04-12.07-8.95-18.57-21.19-20.64Z"/><path class="cls-8" d="M167.27,409.39c3.64-16.29,11.07-18.97,26.96-32.93,18.58-16.32,16.73-13.61,45.73-29.09,24.54-13.1,40.23-20.36,63.65-30.02,29.27-12.08,43.52-15.54,48.88-10.16,4.38,4.39,7.77-.15,10.88-.58,3.06-.42,2.88,.64,11.53-6.74,6.79-5.8,6,11.31,9.99,14.17,14.93,10.69,18.19,17.21,16.28,36.28-.62,6.19,4.17-4.26-2.43,1.96-3.16,2.98-1.06,11.14-31.08,23.85-18.99,8.04-32.36,11.07-47.55,14.93-37.45,9.51-25,13.6-74.54,32.55-16.62,6.36,12.6-3.71-44.54,12.19-11.76,3.27-17.13,.65-23.47-2.63-9.61-4.98-12.77-12.68-10.29-23.78Z"/><path class="cls-7" d="M263.29,237.79c-5.66,12.87,6.48,25.78-1.53,59.74-5.11,21.67-12.61,27.24-10.72,42.89,2.43,20.24,17.72,33.92,26.04,41.36,17.67,15.81,36.38,20.76,50.55,24.51,24.05,6.36,43.35,5.41,59.74,4.6,17.23-.85,34.35-1.7,55.15-9.19,16.02-5.77,29.07-15.08,55.15-33.7,29.85-21.31,35.16-29.21,38.3-35.23,8.15-15.64,11.75-37.93,3.06-44.43-8.91-6.67-27.82,5.53-29.11,3.06-1.46-2.79,25.6-12.8,26.04-22.98,1.37-31.45-250.51-81.11-272.68-30.64Z"/><ellipse class="cls-2" cx="289.85" cy="303.46" rx="9.3" ry="15.56" transform="translate(-129.73 310.94) rotate(-47.33)"/><ellipse class="cls-2" cx="289.85" cy="307.86" rx="9.3" ry="15.56" transform="translate(-132.96 312.35) rotate(-47.33)"/><ellipse class="cls-2" cx="422.62" cy="329.97" rx="9.3" ry="15.56" transform="translate(-15.65 638.85) rotate(-73.16)"/><ellipse class="cls-2" cx="422.62" cy="333.73" rx="9.3" ry="15.56" transform="translate(-19.25 641.52) rotate(-73.16)"/><ellipse class="cls-9" cx="289.85" cy="298.69" rx="9.3" ry="15.56" transform="translate(-126.22 309.4) rotate(-47.33)"/><ellipse class="cls-9" cx="422.62" cy="325.73" rx="9.3" ry="15.56" transform="translate(-11.59 635.84) rotate(-73.16)"/><path class="cls-10" d="M379.22,371.76c-1.01,9.75,1.7,13.98-1.81,13.62-3.51-.36-5.25-4.53-4.24-14.28,1.01-9.75,.85-15.54,4.35-15.18,3.51,.36,2.71,6.08,1.7,15.84Z"/><path class="cls-7" d="M176.09,410.77c-6.92-20.28-3.52-32.86-23.43-20.47-6.66,4.14,5.43,2.77,4.38,11.51-.23,1.95-25.41,13.08-7.84,37.94,4.32,6.11,.75,4.14,9.67,8.47,14.8,7.18,31.29-4.2,31.07-9.77-.21-5.28-4.28,.35-13.85-27.68Z"/><path class="cls-7" d="M426.69,466.23c20.45,9.81,34.71,5.81,17.27,31.47-5.83,8.58-1.87-7.22-11.51-6.16-2.15,.24-19.31,32.85-42.52,8.91-5.7-5.88-4.31-1.13-7.15-12.99-4.7-19.67,10.94-40.88,16.91-40.39,5.65,.47-1.25,5.61,27,19.16Z"/><g><path class="cls-12" d="M39.5,306.4c-5.04-8.91-11.19-17.05-21.13-24.54-13.97-10.51-22.44-20.1-13.95-22.79,20.57-6.51,15.76-8.3,30.43-12,10.27-2.59,6.13,26.04,25.02,52.09,5.96,8.21,13.8,14.39,17.36,16.85,10.02,6.93,19.94,15.62,26.55,19.4,5.48,3.13,13.75,12.86,36.26,36.3,12.34,12.85,45.72,81.66,40.11,86.25s-53.82,32.02-62.72,35.93c-14.15,6.22-27.21-9.88-27.94-15.5-.11-.85-21.58-39.05-21.96-39.83-11.75-24.41-20.19-49.18-18.89-78.64,.19-4.4,.99-9.89,.59-22.87-.43-13.96-6.36-24.71-9.72-30.65Z"/><path class="cls-6" d="M37.41,307.31c-4.9-9.04-10.88-17.31-20.55-24.91-13.58-10.67-21.82-20.41-13.56-23.14,20-6.61,15.33-8.43,29.58-12.18,9.98-2.63,5.96,26.44,24.33,52.88,5.79,8.33,13.41,14.6,16.88,17.11,9.75,7.04,19.38,15.86,25.82,19.7,5.33,3.18,13.37,13.06,35.25,36.85,12,13.05,44.45,82.9,38.99,87.57s-52.32,32.5-60.98,36.47c-13.76,6.31-26.46-10.03-27.16-15.74-.11-.87-20.98-39.65-21.35-40.43-11.42-24.78-19.62-49.92-18.37-79.83,.19-4.47,.96-10.04,.57-23.22-.42-14.17-6.18-25.08-9.45-31.11Z"/><path class="cls-11" d="M52.69,408.51c4.08-8.52,21.7,2.99,50.77-7.54,11.99-4.34,19.09-9.95,24.36-5.85,4.11,3.2,2.34,8.61,6.3,24.03,3.99,15.51,7.83,18,5.82,22.18-3.11,6.47-13.32,2.59-36.48,7.16-19.18,3.78-24.61,8.89-31.45,4.42-1.73-1.13-3.13-2.6-11.34-21.29-8.81-20.06-8.66-21.7-7.98-23.11Z"/></g><path class="cls-3" d="M226.25,221.97c2.32-19.52,19.66-28.18,56.68-55.97,7.21-5.41,27.79-22.78,68.94-57.53,45.08-38.06,61.42-53.89,59.74-73.07-1.1-12.54-9.35-20.34-4.6-27.99,5.53-8.9,23.29-8.88,35.23-4.66,11.93,4.21,18.83,12.89,24.51,20.21,2.31,2.97,7.42,9.96,16.85,34.21,6.78,17.44,7.18,21.64,16.85,48.2,4.37,11.98,6.6,18.08,9.19,23.32,8.44,17.07,12.73,17.46,18.38,31.1,6.75,16.28,2.3,19.74,9.19,29.54,3.77,5.36,10.74,9.87,24.51,18.66,14.62,9.33,15.45,8.36,22.98,13.99,11.89,8.9,22.4,16.76,22.98,27.99,.69,13.19-12.73,23.32-16.85,26.43-10.75,8.12-21.55,9.35-36.77,10.88-22.05,2.22-38.39,3.86-49.02-6.22-10.36-9.83-5.03-21.04-15.32-27.99-4.36-2.94-10.18-4.21-36.77,1.56-35.08,7.61-37.97,12.65-50.55,10.88-15.65-2.2-15.81-10.66-36.77-20.21-5.3-2.42-31.19-13.68-59.74-9.33-35.23,5.37-46.27,30.2-62.81,23.32-11.91-4.96-18.56-22.98-16.85-37.31Z"/><ellipse class="cls-10" cx="358.18" cy="361.67" rx="12.18" ry="29.83" transform="translate(-61.84 649.22) rotate(-79.67)"/></g></g></svg>