<?xml version="1.0" encoding="UTF-8"?><svg id="_層_2" xmlns="http://www.w3.org/2000/svg" xmlns:xlink="http://www.w3.org/1999/xlink" viewBox="0 0 1811.73 1133.78"><defs><style>.cls-1{fill:#f2d1ed;}.cls-2{clip-path:url(#clippath-11);}.cls-3{clip-path:url(#clippath-16);}.cls-4{fill:#fff;}.cls-5{fill:#8c7989;}.cls-6{fill:#7e6d7b;}.cls-7{clip-path:url(#clippath-2);}.cls-8{clip-path:url(#clippath-13);}.cls-9{isolation:isolate;}.cls-10{clip-path:url(#clippath-15);}.cls-11{clip-path:url(#clippath-6);}.cls-12{clip-path:url(#clippath-7);}.cls-13{clip-path:url(#clippath-1);}.cls-14{clip-path:url(#clippath-4);}.cls-15{fill:#d5b8d0;}.cls-16{clip-path:url(#clippath-12);}.cls-17{fill:#887585;}.cls-18{fill:#837180;}.cls-19{fill:#68503a;}.cls-20{clip-path:url(#clippath-9);}.cls-21{clip-path:url(#clippath);}.cls-22{fill:#f4a351;}.cls-23{fill:none;}.cls-24{fill:#544d3b;}.cls-25{clip-path:url(#clippath-3);}.cls-26{clip-path:url(#clippath-8);}.cls-27{fill:#f7f7f7;}.cls-28{fill:#9b8698;}.cls-29{clip-path:url(#clippath-14);}.cls-30{clip-path:url(#clippath-5);}.cls-31{clip-path:url(#clippath-10);}.cls-32{fill:#968293;}.cls-33{fill:#917d8e;}.cls-34{fill:#d3b6cf;}</style><clipPath id="clippath"><path class="cls-23" d="M1481.65,1123.94c.06,.02,.12,.02,.17,.01,.15,.05,.27,.11,.38,.17-.09,.01-.18,0-.27-.05l-.29-.13Z"/></clipPath><clipPath id="clippath-1"><path class="cls-23" d="M1482.2,1124.12c-.11-.06-.23-.11-.38-.17,1.33-.29,2.53-9.23,3.65-16.05,.35-2.11,1.15-6.18,.38-11.73-.5-3.63-1.68-11.63-2.38-14.58,.22,.08,.42,.17,.58,.26,.79,2.98,2.12,11.05,2.69,14.72,.88,5.6-.03,9.62-.42,11.71-1.26,6.75-2.61,15.63-4.12,15.84Z"/></clipPath><clipPath id="clippath-2"><path class="cls-23" d="M1484.05,1081.85c-.16-.09-.36-.18-.58-.26-.35-1.48-2.54-6.27-3.38-9.5,.05,.02,.1,.04,.14,.06,.96,3.27,3.43,8.19,3.82,9.69Z"/></clipPath><clipPath id="clippath-3"><path class="cls-23" d="M1480.23,1072.16s-.09-.04-.14-.06c-.03-.12-.06-.18-.1-.17,.05,.02,.09,.04,.13,.06,.04,0,.07,.05,.11,.17Z"/></clipPath><clipPath id="clippath-4"><path class="cls-23" d="M1478.96,1092.45c0-.23,0-.43,0-.62h0c0,.19,0,.4,0,.63h0Z"/></clipPath><clipPath id="clippath-5"><path class="cls-23" d="M1481.94,1124.06s-.08-.04-.12-.06c-.05-.02-.11-.05-.17-.07-.44-.16-.9-1.3-1.37-3.82,.07,.02,.13,.05,.18,.08,.51,2.42,1.01,3.6,1.49,3.86Z"/></clipPath><clipPath id="clippath-6"><path class="cls-23" d="M1478.96,1092.45h0c0,5.67,.39,22.5,1.49,27.75-.05-.03-.11-.05-.18-.08-.97-5.18-1.31-21.98-1.31-27.67Z"/></clipPath><clipPath id="clippath-7"><path class="cls-23" d="M1480.12,1071.98c-.62,.09-1.14,18.1-1.16,19.84h0c0-1.74,.48-19.78,1.03-19.9,.05,.02,.09,.04,.13,.06Z"/></clipPath><clipPath id="clippath-8"><path class="cls-23" d="M1366.26,1123.94c.06,.02,.12,.02,.17,.01,.15,.05,.27,.11,.38,.17-.09,.01-.18,0-.27-.05l-.29-.13Z"/></clipPath><clipPath id="clippath-9"><path class="cls-23" d="M1366.82,1124.12c-.11-.06-.23-.11-.38-.17,1.33-.29,2.53-9.23,3.65-16.05,.34-2.1,1.15-6.17,.37-11.73-.5-3.63-1.68-11.63-2.38-14.58,.22,.08,.42,.17,.58,.26,.79,2.98,2.12,11.05,2.69,14.72,.88,5.6-.03,9.62-.41,11.71-1.26,6.75-2.61,15.63-4.12,15.84Z"/></clipPath><clipPath id="clippath-10"><path class="cls-23" d="M1368.66,1081.85c-.16-.09-.36-.18-.58-.26-.35-1.48-2.54-6.27-3.38-9.5,.05,.02,.1,.04,.14,.06,.96,3.27,3.43,8.19,3.82,9.69Z"/></clipPath><clipPath id="clippath-11"><path class="cls-23" d="M1364.84,1072.16s-.09-.04-.14-.06c-.03-.12-.06-.18-.1-.17,.05,.02,.09,.04,.13,.06,.04,0,.07,.05,.11,.17Z"/></clipPath><clipPath id="clippath-12"><path class="cls-23" d="M1363.58,1092.08v.44c0-.17,0-.34,0-.49h0v.05Z"/></clipPath><clipPath id="clippath-13"><path class="cls-23" d="M1366.55,1124.06s-.08-.04-.12-.06c-.05-.02-.11-.05-.17-.07-.44-.16-.9-1.3-1.37-3.82,.07,.02,.13,.05,.18,.08,.51,2.42,1.01,3.6,1.49,3.86Z"/></clipPath><clipPath id="clippath-14"><path class="cls-23" d="M1363.58,1092.46s0-.1,0-.15c0,5.55,.37,22.6,1.49,27.88-.05-.03-.11-.05-.18-.08-.98-5.16-1.31-21.85-1.31-27.6h0v-.06Z"/></clipPath><clipPath id="clippath-15"><path class="cls-23" d="M1363.58,1092.22c0-.14,0-.27,0-.39h0v.39Z"/></clipPath><clipPath id="clippath-16"><path class="cls-23" d="M1364.73,1071.98c-.62,.09-1.14,18.1-1.15,19.84h0c0-1.74,.47-19.78,1.02-19.9,.05,.02,.09,.04,.13,.06Z"/></clipPath></defs><g id="_層_1-2"><path class="cls-22" d="M655.6,893.44c-120.13-2.34-180.19-3.51-199.47,0-58.49,10.65-107.71,29.64-158.2,0-9.72-5.71-42.44-24.91-55.03-63.71-22.58-69.6,31.16-166.77,96.3-207.05,7.72-4.77,14.87-7.45,28.88-13.31,54.39-22.76,108.45-33.76,171.57-38.59,67.54-5.16,118.11-.79,216.51,8.17,99.83,9.09,90.26,13.41,156.51,17.16,117.14,6.63,129.5,.84,183.17,10.64,21.95,4.01,87.89,13.87,162.66,64.93,61.76,42.17,50.49,80.08,71.21,110.27,11.02,16.07,54.52,79.47,41.27,135.38-17.65,74.51-126.91,97.07-158.2,103.52-214.22,44.22-296.81-122.34-557.15-127.42Z"/><path class="cls-22" d="M153.03,358.54c17.97-101.99,161.51-252.92,192.51-260.27,9.46-3.4-70.84,231.43-41.48,260.08-11.68-.82,61.86-1.07,94.2,18.04,50.44,29.8,56.03,45.39,57.32,46.66,7.64,7.45,50.3-75.31,52.73-79.59,5.35-9.41,58.99-185.32,73.37-182.71,38.98,7.06,40.51,297.2,11.58,353.75-111.75,218.44-279.36,292.03-515.52,232.57-34.7-33.81-39.07-139.34-16.42-200.32,2.9-53.98,51.69-141.37,91.71-188.2Z"/><path class="cls-22" d="M191.91,801.43c-62.54,42.86-101.27,126.27-82.54,148.21,15.41,18.04,59.93-16.92,268.26-98.81,52.69-20.71,69.05-26.02,68.78-35.29-.79-27.65-149.48-86.1-254.5-14.12Z"/><path class="cls-22" d="M321.68,782.37c-34.23,31.56-48.04,75.15-75.66,162.32-23.17,73.12-36.25,114.4-20.64,127.04,26.35,21.33,114.98-54.59,240.75-162.32,125.92-107.86,126.48-125.09,123.81-134.09-14.24-47.95-182.71-71.82-268.26,7.06Z"/><path class="cls-27" d="M256.22,955.56c-16.21-7.64-22.06,23.26-34.15,56.89-8.8,24.47-8.58,33.25-5.7,41.61,2.21,6.42-3.9,60.04,106.46-25.75,24.38-18.95,38.56-25.66,36.56-31.66-1.92-5.76-26.73-10.14-60.77-15.32-41.18-6.26-33.99-21.81-42.4-25.78Z"/><path class="cls-27" d="M146.26,843.32c-10.28,12.14-22.06,23.26-34.15,56.89-8.8,24.47-8.58,33.25-5.7,41.61,2.21,6.42-1.78,33.89,108.18-19.72,13.85-6.75,15.61-.77,27.1-36,1.88-5.77-18.99-11.83-53.02-17.01-41.18-6.26-36.39-32.87-42.4-25.78Z"/><path class="cls-22" d="M1108.8,860.57c-10.97,47.05,15.37,100.36,52.04,123.02,41.4,25.58,117.31-5.7,174.63,23.33,18.83,9.54-.51,5.99,36.26,37.87,46.12,39.99,44.59,64.12,56.02,71.6,90.59,59.26,52.63-74.05,30.8-123.08-16.49-37.03-67.14-57.96-67.14-57.96-37.45-15.47-68.2-51.69-88.59-65.02-44.31-28.96-26.57-52.48-63.25-80.84-38.17-29.52-112.94-5.47-130.78,71.08Z"/><path class="cls-22" d="M983.5,881.73c-8.2,47.61,21.2,99.29,59.13,119.77,42.83,23.12,116.78-12.54,175.7,13.1,19.35,8.42-.16,6.01,38.41,35.69,48.38,37.23,48.25,61.41,60.1,68.21,93.89,53.87,48.22-77,23.57-124.67-18.62-36.01-70.41-53.94-70.41-53.94-38.29-13.26-71.1-47.62-92.23-59.74-45.93-26.33-29.59-50.84-67.86-77.01-39.83-27.24-113.06,1.13-126.41,78.59Z"/><path class="cls-22" d="M1235.76,632.49c-27.19-190.12,119.78-467.16,319.65-542.82,40.38-18.86,128.62-51.75,189.34-72.5,134.58-45.31,32.41-1.05-13.67,133.77-42.32,120.36-40.24,196.23-64.12,281.6-34.77,221.76-281.9,492.54-431.2,199.95Z"/><path class="cls-4" d="M1507.14,244.22c-307.01,166.2-152.46-76.49,47.4-152.15,40.38-18.86,128.62-51.75,189.34-72.5,134.58-45.31,32.41-1.05-13.67,133.77-42.32,120.36-3.06,217.34-64.12,281.6-164.23,172.86-33.51-38.06-65.63-153.95-10.64-38.4-58.76,155.16-93.33,103.46-8.05-12.04,7.59-125.36,0-140.23Z"/><g><ellipse class="cls-19" cx="425" cy="638.69" rx="73.39" ry="32.32" transform="translate(-262.4 298.07) rotate(-30)"/><ellipse class="cls-19" cx="128.07" cy="455.47" rx="33.2" ry="57.72" transform="translate(-38.7 12.7) rotate(-4.93)"/><ellipse class="cls-19" cx="47.31" cy="721.32" rx="47.31" ry="27.99"/></g><g><polygon class="cls-1" points="271.92 326.77 235.86 314.93 199.79 303.09 237.66 248.58 275.52 194.07 273.72 260.42 271.92 326.77"/><polygon class="cls-1" points="557.47 455.15 521.4 443.32 485.33 431.48 523.2 376.97 561.06 322.46 559.26 388.81 557.47 455.15"/></g><g><polygon class="cls-24" points="333.41 210.79 292.8 186.5 252.18 162.2 299.59 129.06 346.99 95.91 340.2 153.35 333.41 210.79"/><polygon class="cls-24" points="617.11 283.87 570.16 277.97 523.2 272.06 556.45 197.24 589.71 122.42 603.41 203.14 617.11 283.87"/></g><path class="cls-27" d="M1385.55,1059.11c9.52,15.31,29.53,36.03,36.22,50.44,10.21,22.03,30.72,21.25,38.99,22.95,6.34,1.3,50.12,15.75,13.35-96.59-8.37-25.58-5.56-26.34-18.72-34.63-4.9-3.09-4.7,4.28-23.55,26.7-22.81,27.13-50.6,24.2-46.29,31.13Z"/><g class="cls-9"><g class="cls-9"><g class="cls-21"><g class="cls-9"><path class="cls-28" d="M1481.65,1123.94c.12,.04,.21,.08,.29,.13,.09,.05,.18,.07,.27,.05-.11-.06-.23-.11-.38-.17-.06,.01-.12,0-.17-.01"/><path class="cls-28" d="M1481.65,1123.94h.04l.02,.02h.03l.02,.02h.03l.02,.02h.03v.02h.04v.02h.04v.02h.03s.08,.05,.11,.06h0s-.14-.11-.28-.15c-.04,0-.08,0-.12-.02"/><path class="cls-32" d="M1481.65,1123.94h.04l.02,.02h.03l.02,.02h.03l.02,.02h.03v.02h.04v.02h.04v.02h.03l.02,.02h0s-.07-.04-.1-.06c-.05-.02-.1-.04-.14-.06-.02,0-.04,0-.06-.01"/><polyline class="cls-33" points="1481.65 1123.94 1481.66 1123.94 1481.65 1123.94 1481.65 1123.94"/></g></g></g><g class="cls-9"><g class="cls-13"><g class="cls-9"><path class="cls-28" d="M1482.2,1124.12c1.51-.21,2.86-9.09,4.12-15.84,.4-2.09,1.3-6.11,.42-11.71-.57-3.66-1.9-11.73-2.69-14.72-.16-.09-.36-.18-.58-.26,.7,2.94,1.87,10.95,2.38,14.58,.78,5.55-.02,9.62-.38,11.73-1.11,6.82-2.31,15.76-3.65,16.05,.15,.05,.27,.11,.38,.17"/><path class="cls-28" d="M1485.84,1096.17c.78,5.55-.02,9.62-.38,11.73-1.03,6.32-2.14,14.46-3.36,15.85h0c-.01,.07-.06,.16-.04,.22,.03,.07,.13,.13,.2,.13,1.48-.48,2.81-9.18,4.05-15.83,.4-2.09,1.3-6.11,.42-11.71-.57-3.66-1.9-11.73-2.69-14.72-.16-.09-.36-.18-.58-.26,.7,2.94,1.87,10.95,2.38,14.58"/><path class="cls-32" d="M1485.84,1096.17c.78,5.55-.02,9.62-.38,11.73-1,6.13-2.07,13.98-3.25,15.71h0c.05,.16,.12,.4,.18,.43,1.43-.93,2.71-9.31,3.92-15.76,.4-2.09,1.3-6.11,.42-11.71-.57-3.66-1.9-11.73-2.69-14.72-.16-.09-.36-.18-.58-.26,.7,2.94,1.87,10.95,2.38,14.58"/><path class="cls-33" d="M1485.84,1096.17c.78,5.55-.02,9.62-.38,11.73-.96,5.9-1.99,13.39-3.11,15.49h0c.06,.3,.09,.4,.16,.56,1.38-1.27,2.63-9.39,3.8-15.67,.4-2.09,1.3-6.11,.42-11.71-.57-3.66-1.9-11.73-2.69-14.72-.16-.09-.36-.18-.58-.26,.7,2.94,1.87,10.95,2.38,14.58"/><path class="cls-5" d="M1485.84,1096.17c.78,5.55-.02,9.62-.38,11.73-.92,5.62-1.9,12.69-2.96,15.16h0c.05,.26,.07,.52,.11,.78,1.34-1.56,2.56-9.44,3.7-15.57,.4-2.09,1.3-6.11,.42-11.71-.57-3.66-1.9-11.73-2.69-14.72-.16-.09-.36-.18-.58-.26,.7,2.94,1.87,10.95,2.38,14.58"/><path class="cls-17" d="M1485.84,1096.17c.78,5.55-.02,9.62-.38,11.73-.84,5.12-1.72,11.44-2.67,14.39h0c-.02,.49-.07,1.42-.07,1.42,1.3-1.84,2.49-9.47,3.6-15.43,.4-2.09,1.3-6.11,.42-11.71-.57-3.66-1.9-11.73-2.69-14.72-.16-.09-.36-.18-.58-.26,.7,2.94,1.87,10.95,2.38,14.58"/><path class="cls-18" d="M1485.84,1096.17c.78,5.55-.02,9.62-.38,11.73-.65,3.95-1.32,8.62-2.03,11.9h0c-.17,1.19-.3,2.39-.51,3.58,1.22-2.3,2.34-9.44,3.4-15.1,.4-2.09,1.3-6.11,.42-11.71-.57-3.66-1.9-11.73-2.69-14.72-.16-.09-.36-.18-.58-.26,.7,2.94,1.87,10.95,2.38,14.58"/><path class="cls-6" d="M1485.84,1096.17c.42,3.03,.38,5.63,.19,7.7v.34c.12,4.13-2.7,18.16-2.73,18.29,1.08-2.9,2.07-9.16,3.01-14.22,.4-2.09,1.3-6.11,.42-11.71-.57-3.66-1.9-11.73-2.69-14.72-.16-.09-.36-.18-.58-.26,.7,2.94,1.87,10.95,2.38,14.58"/></g></g></g><g class="cls-9"><g class="cls-7"><g class="cls-9"><path class="cls-28" d="M1484.05,1081.85c-.4-1.5-2.87-6.42-3.82-9.69-.04-.02-.09-.04-.14-.06,.85,3.22,3.03,8.02,3.38,9.5,.22,.08,.42,.17,.58,.26"/><path class="cls-28" d="M1483.47,1081.59c.22,.08,.42,.17,.58,.26-.4-1.5-2.87-6.42-3.82-9.69-.04-.02-.09-.04-.14-.06,.85,3.22,3.03,8.02,3.38,9.5"/><path class="cls-32" d="M1483.47,1081.59c.22,.08,.42,.17,.58,.26-.4-1.5-2.87-6.42-3.82-9.69-.04-.02-.09-.04-.14-.06,.85,3.22,3.03,8.02,3.38,9.5"/><path class="cls-33" d="M1483.47,1081.59c.22,.08,.42,.17,.58,.26-.4-1.5-2.87-6.42-3.82-9.69h0s-.09-.04-.14-.06c.85,3.22,3.03,8.02,3.38,9.5"/><path class="cls-5" d="M1483.47,1081.59c.22,.08,.42,.17,.58,.26-.4-1.5-2.87-6.42-3.82-9.69-.04-.02-.09-.04-.14-.06,.85,3.22,3.03,8.02,3.38,9.5"/><path class="cls-17" d="M1483.47,1081.59c.22,.08,.42,.17,.58,.26-.4-1.5-2.87-6.42-3.82-9.69-.04-.02-.09-.04-.14-.06,.85,3.22,3.03,8.02,3.38,9.5"/><path class="cls-18" d="M1483.47,1081.59c.22,.08,.42,.17,.58,.26-.4-1.5-2.87-6.42-3.82-9.69-.04-.02-.09-.04-.14-.06,.85,3.22,3.03,8.02,3.38,9.5"/><path class="cls-6" d="M1483.47,1081.59c.22,.08,.42,.17,.58,.26-.4-1.5-2.87-6.42-3.82-9.69h0s-.09-.04-.14-.06c.85,3.22,3.03,8.02,3.38,9.5"/></g></g></g><g class="cls-9"><g class="cls-25"><g class="cls-9"><path class="cls-28" d="M1480.23,1072.16c-.04-.12-.07-.18-.11-.17-.04-.02-.08-.04-.13-.06,.03,0,.06,.05,.1,.17,.05,.02,.1,.04,.14,.06"/><path class="cls-28" d="M1480.08,1072.09c.05,.02,.1,.04,.14,.06-.04-.12-.07-.18-.11-.17-.04-.02-.08-.04-.13-.06,.03,0,.06,.05,.1,.17"/><path class="cls-32" d="M1480.08,1072.09c.05,.02,.1,.04,.14,.06-.04-.12-.07-.18-.11-.17-.04-.02-.08-.04-.13-.06,.03,0,.06,.05,.1,.17"/><path class="cls-33" d="M1480.08,1072.09c.05,.02,.1,.04,.14,.06-.04-.12-.07-.18-.11-.17-.04-.02-.08-.04-.13-.06,.03,0,.06,.05,.1,.17"/><path class="cls-5" d="M1480.08,1072.09s.05,.02,.08,.03c.02,0,.04,.02,.07,.03-.04-.12-.07-.18-.11-.17-.04-.02-.08-.04-.13-.06,.03,0,.06,.05,.1,.17"/><path class="cls-17" d="M1480.08,1072.09s.05,.02,.08,.03c.02,0,.04,.02,.07,.03-.04-.12-.07-.18-.11-.17-.04-.02-.08-.04-.13-.06,.03,0,.06,.05,.1,.17"/><path class="cls-18" d="M1480.08,1072.09c.05,.02,.1,.04,.14,.06-.04-.12-.07-.18-.11-.17-.04-.02-.08-.04-.13-.06,.03,0,.06,.05,.1,.17"/><path class="cls-6" d="M1480.08,1072.09c.05,.02,.1,.04,.14,.06-.04-.12-.07-.18-.11-.17-.04-.02-.08-.04-.13-.06,.03,0,.06,.05,.1,.17"/></g></g></g><path class="cls-34" d="M1480.12,1071.98s.07,.05,.11,.17c.96,3.27,3.43,8.19,3.82,9.69,.79,2.98,2.12,11.05,2.69,14.72,.88,5.6-.03,9.62-.42,11.71-1.26,6.75-2.61,15.63-4.12,15.84-.56,.08-1.14-1.04-1.75-3.92-1.15-5.45-1.51-23.43-1.49-28.38,.01-1.74,.54-19.75,1.16-19.84Z"/><g class="cls-9"><g class="cls-14"><g class="cls-9"><path class="cls-28" d="M1478.96,1092.45h0c0-.22,0-.43,0-.62h0c0,.19,0,.4,0,.62"/><path class="cls-28" d="M1478.96,1091.82c0,.19,0,.4,0,.62h0c0-.22,0-.43,0-.62"/><path class="cls-32" d="M1478.96,1091.82c0,.19,0,.4,0,.62h0c0-.22,0-.43,0-.62"/><path class="cls-33" d="M1478.96,1091.82c0,.19,0,.4,0,.62h0c0-.22,0-.43,0-.62"/><path class="cls-5" d="M1478.96,1091.82c0,.19,0,.4,0,.62h0c0-.22,0-.43,0-.62"/><path class="cls-17" d="M1478.96,1091.82c0,.19,0,.4,0,.62h0c0-.22,0-.43,0-.62"/><path class="cls-18" d="M1478.96,1091.82c0,.19,0,.4,0,.62h0c0-.22,0-.43,0-.62"/><path class="cls-6" d="M1478.96,1091.82c0,.19,0,.4,0,.62h0c0-.22,0-.43,0-.62"/></g></g></g><path class="cls-15" d="M1480.45,1120.2c-1.07-5.11-1.46-21.23-1.49-27.31,.02,6.07,.36,22.17,1.31,27.23,.52,2.74,1.02,3.82,1.5,3.8-.42-.42-.87-1.59-1.32-3.73Zm-.46-48.28c-.51,.11-.96,15.97-1.02,19.39,.07-3.32,.54-18.36,1.1-19.24-.03-.09-.06-.15-.08-.15Z"/><g class="cls-9"><g class="cls-30"><g class="cls-9"><path class="cls-28" d="M1481.94,1124.06c-.1-.05-.18-.09-.29-.13-.44-.16-.9-1.3-1.38-3.82,.07,.02,.13,.05,.18,.08,.51,2.42,1.01,3.6,1.49,3.86"/><path class="cls-28" d="M1480.27,1120.12c.07,.02,.13,.05,.18,.08,.51,2.42,1.01,3.6,1.49,3.86h-.02v-.02h-.03v-.02h-.04v-.02h-.04l-.02-.02h-.03l-.02-.02h-.03l-.02-.02h-.04c-.44-.17-.9-1.32-1.37-3.83"/><path class="cls-32" d="M1480.27,1120.12c.07,.02,.13,.05,.18,.08,.51,2.42,1.01,3.6,1.49,3.86h-.02v-.02h-.03v-.02h-.04v-.02h-.04l-.02-.02h-.03l-.02-.02h-.03l-.02-.02h-.04c-.44-.17-.9-1.32-1.37-3.83"/><path class="cls-33" d="M1480.27,1120.12c.07,.02,.13,.05,.18,.08,.51,2.42,1.01,3.6,1.49,3.86h-.02v-.02h-.03v-.02h-.04v-.02h-.04l-.02-.02h-.03l-.02-.02h-.03l-.02-.02h-.04c-.44-.17-.9-1.32-1.37-3.83"/><path class="cls-5" d="M1480.27,1120.12c.07,.02,.13,.05,.18,.08,.51,2.42,1.01,3.6,1.49,3.86h-.02v-.02h-.03v-.02h-.04v-.02h-.04l-.02-.02h-.03l-.02-.02h-.03l-.02-.02h-.04c-.44-.17-.9-1.32-1.37-3.83"/><path class="cls-17" d="M1480.27,1120.12c.07,.02,.13,.05,.18,.08,.51,2.42,1.01,3.6,1.49,3.86h-.02v-.02h-.03v-.02h-.04v-.02h-.04l-.02-.02h-.03l-.02-.02h-.03l-.02-.02h-.04c-.44-.17-.9-1.32-1.37-3.83"/><path class="cls-18" d="M1480.27,1120.12c.07,.02,.13,.05,.18,.08,.51,2.42,1.01,3.6,1.49,3.86h-.02v-.02h-.03v-.02h-.04v-.02h-.04l-.02-.02h-.03l-.02-.02h-.03l-.02-.02h-.04c-.44-.17-.9-1.32-1.37-3.83"/><path class="cls-6" d="M1480.27,1120.12c.07,.02,.13,.05,.18,.08,.51,2.42,1.01,3.6,1.49,3.86h-.02v-.02h-.03v-.02h-.04v-.02h-.04l-.02-.02h-.03l-.02-.02h-.03l-.02-.02h-.04c-.44-.17-.9-1.32-1.37-3.83"/></g></g></g><g class="cls-9"><g class="cls-11"><g class="cls-9"><path class="cls-28" d="M1478.96,1092.45c0,5.67,.39,22.5,1.49,27.75-.05-.03-.11-.05-.18-.08-.97-5.18-1.31-21.98-1.31-27.67"/><path class="cls-28" d="M1478.96,1092.45h0c0,5.67,.39,22.5,1.49,27.75-.05-.03-.11-.05-.18-.08-.97-5.18-1.31-21.98-1.31-27.67"/><path class="cls-32" d="M1478.96,1092.45h0c0,5.67,.39,22.5,1.49,27.75-.05-.03-.11-.05-.18-.08-.97-5.18-1.31-21.98-1.31-27.67"/><path class="cls-33" d="M1478.96,1092.45h0c0,5.67,.39,22.5,1.49,27.75-.05-.03-.11-.05-.18-.08-.97-5.18-1.31-21.98-1.31-27.67"/><path class="cls-5" d="M1478.96,1092.45h0c0,5.67,.39,22.5,1.49,27.75-.05-.03-.11-.05-.18-.08-.97-5.18-1.31-21.98-1.31-27.67"/><path class="cls-17" d="M1478.96,1092.45h0c0,5.67,.39,22.5,1.49,27.75-.05-.03-.11-.05-.18-.08-.97-5.18-1.31-21.98-1.31-27.67"/><path class="cls-18" d="M1478.96,1092.45h0c0,5.67,.39,22.5,1.49,27.75-.05-.03-.11-.05-.18-.08-.97-5.18-1.31-21.98-1.31-27.67"/><path class="cls-6" d="M1478.96,1092.45h0c0,5.67,.39,22.5,1.49,27.75-.05-.03-.11-.05-.18-.08-.97-5.18-1.31-21.98-1.31-27.67"/></g></g></g><g class="cls-9"><g class="cls-12"><g class="cls-9"><path class="cls-28" d="M1480.12,1071.98c-.62,.09-1.14,18.1-1.16,19.84h0c0-1.74,.48-19.78,1.03-19.9,.05,.02,.09,.04,.13,.06"/><path class="cls-28" d="M1479.97,1071.93s.09,.04,.13,.05c-.61,.32-1.13,18.11-1.14,19.84,0-1.73,.47-19.47,1.01-19.89"/><path class="cls-32" d="M1479.96,1071.95s.09,.04,.13,.05c-.6,.61-1.12,18.11-1.13,19.83,0-1.71,.46-19.07,.99-19.87"/><path class="cls-33" d="M1479.94,1071.99s.09,.04,.14,.03c-.6,.89-1.1,18.11-1.11,19.81,0-1.69,.45-18.69,.98-19.84"/><path class="cls-5" d="M1479.92,1072.03s.1,.03,.14,.01c-.59,1.16-1.09,18.09-1.1,19.78,0-1.67,.44-18.3,.96-19.79"/><path class="cls-17" d="M1479.9,1072.09s.07,.03,.09,.03c.02,0,.03-.03,.05-.04-.58,1.42-1.07,18.07-1.08,19.75,0-1.65,.43-17.92,.94-19.73"/><path class="cls-18" d="M1479.86,1072.26l-.02,.16c.05-.11,.13-.19,.18-.3-.58,1.67-1.06,18.05-1.07,19.7,0-1.61,.41-17.09,.9-19.57"/><path class="cls-6" d="M1479.69,1073.63q.08-.72,.32-1.46c-.57,1.91-1.04,18.02-1.05,19.66,0-1.42,.32-13.64,.73-18.2"/></g></g></g></g><path class="cls-27" d="M1270.34,1057.64c9.52,15.31,35.53,44.32,42.21,58.74,10.21,22.03,24.73,12.95,33,14.65,6.34,1.3,50.12,15.75,13.35-96.59-8.37-25.58-5.56-26.34-18.72-34.63-4.9-3.09-4.7,4.28-23.55,26.7-22.81,27.13-50.6,24.2-46.29,31.13Z"/><g class="cls-9"><g class="cls-9"><g class="cls-26"><g class="cls-9"><path class="cls-28" d="M1366.26,1123.94c.12,.04,.21,.08,.29,.13,.09,.05,.18,.07,.27,.05-.11-.06-.23-.11-.38-.17-.06,.01-.12,0-.17-.01"/><path class="cls-28" d="M1366.26,1123.94h.04l.02,.02h.03l.02,.02h.03l.02,.02h.03v.02h.04v.02h.04v.02h.03s.07,.05,.11,.06h0c-.06-.08-.28-.15-.28-.15-.04,0-.08,0-.12-.02"/><path class="cls-32" d="M1366.26,1123.94h.04l.02,.02h.03l.02,.02h.03l.02,.02h.03v.02h.04v.02h.04v.02h.03l.02,.02h0s-.07-.04-.1-.06c-.05-.02-.1-.04-.14-.06-.02,0-.04,0-.06-.01"/><polyline class="cls-33" points="1366.26 1123.94 1366.27 1123.94 1366.27 1123.94 1366.26 1123.94"/></g></g></g><g class="cls-9"><g class="cls-20"><g class="cls-9"><path class="cls-28" d="M1366.82,1124.12c1.51-.21,2.86-9.09,4.12-15.84,.39-2.09,1.29-6.11,.41-11.71-.57-3.66-1.9-11.73-2.69-14.72-.16-.09-.36-.18-.58-.26,.7,2.94,1.87,10.95,2.38,14.58,.78,5.55-.02,9.62-.37,11.73-1.12,6.82-2.32,15.76-3.65,16.05,.15,.05,.27,.11,.38,.17"/><path class="cls-28" d="M1370.46,1096.17c.78,5.55-.02,9.62-.37,11.73-1.04,6.32-2.14,14.47-3.36,15.85h0c-.01,.07-.06,.16-.04,.22,.03,.07,.13,.13,.2,.13,1.48-.47,2.8-9.18,4.05-15.83,.39-2.09,1.29-6.11,.41-11.71-.57-3.66-1.9-11.73-2.69-14.72-.16-.09-.36-.18-.58-.26,.7,2.94,1.87,10.95,2.38,14.58"/><path class="cls-32" d="M1370.46,1096.17c.78,5.55-.02,9.62-.37,11.73-1.01,6.13-2.07,13.98-3.25,15.71h0c.05,.16,.12,.4,.18,.43,1.43-.93,2.71-9.31,3.92-15.76,.39-2.09,1.29-6.11,.41-11.71-.57-3.66-1.9-11.73-2.69-14.72-.16-.09-.36-.18-.58-.26,.7,2.94,1.87,10.95,2.38,14.58"/><path class="cls-33" d="M1370.46,1096.17c.78,5.55-.02,9.62-.37,11.73-.97,5.9-1.99,13.39-3.12,15.49h0c.07,.31,.1,.41,.16,.56,1.38-1.27,2.63-9.39,3.81-15.68,.39-2.09,1.29-6.11,.41-11.71-.57-3.66-1.9-11.73-2.69-14.72-.16-.09-.36-.18-.58-.26,.7,2.94,1.87,10.95,2.38,14.58"/><path class="cls-5" d="M1370.46,1096.17c.78,5.55-.02,9.62-.37,11.73-.92,5.62-1.9,12.7-2.96,15.16h0c.05,.24,.07,.35,.11,.78,1.34-1.56,2.56-9.44,3.71-15.57,.39-2.09,1.29-6.11,.41-11.71-.57-3.66-1.9-11.73-2.69-14.72-.16-.09-.36-.18-.58-.26,.7,2.94,1.87,10.95,2.38,14.58"/><path class="cls-17" d="M1370.46,1096.17c.78,5.55-.02,9.62-.37,11.73-.84,5.12-1.73,11.44-2.68,14.39h0c-.02,.46-.07,1.41-.07,1.41,1.3-1.84,2.48-9.47,3.6-15.43,.39-2.09,1.29-6.11,.41-11.71-.57-3.66-1.9-11.73-2.69-14.72-.16-.09-.36-.18-.58-.26,.7,2.94,1.87,10.95,2.38,14.58"/><path class="cls-18" d="M1370.46,1096.17c.78,5.55-.02,9.62-.37,11.73-.65,3.95-1.32,8.62-2.04,11.9h0c-.17,1.19-.3,2.39-.51,3.57,1.22-2.3,2.34-9.44,3.4-15.1,.39-2.09,1.29-6.11,.41-11.71-.57-3.66-1.9-11.73-2.69-14.72-.16-.09-.36-.18-.58-.26,.7,2.94,1.87,10.95,2.38,14.58"/><path class="cls-6" d="M1370.46,1096.17c.43,3.04,.38,5.64,.19,7.72v.34c.12,4.06-2.7,18.15-2.73,18.27,1.07-2.9,2.07-9.16,3.02-14.23,.39-2.09,1.29-6.11,.41-11.71-.57-3.66-1.9-11.73-2.69-14.72-.16-.09-.36-.18-.58-.26,.7,2.94,1.87,10.95,2.38,14.58"/></g></g></g><g class="cls-9"><g class="cls-31"><g class="cls-9"><path class="cls-28" d="M1368.66,1081.85c-.4-1.5-2.87-6.42-3.82-9.69-.04-.02-.09-.04-.14-.06,.85,3.22,3.03,8.02,3.38,9.5,.22,.08,.42,.17,.58,.26"/><path class="cls-28" d="M1368.08,1081.59c.22,.08,.42,.17,.58,.26-.4-1.5-2.87-6.42-3.82-9.69h0s-.09-.04-.13-.06c.85,3.22,3.03,8.02,3.38,9.5"/><path class="cls-32" d="M1368.08,1081.59c.22,.08,.42,.17,.58,.26-.4-1.5-2.87-6.42-3.82-9.69h0s-.09-.04-.13-.06c.85,3.22,3.03,8.02,3.38,9.5"/><path class="cls-33" d="M1368.08,1081.59c.22,.08,.42,.17,.58,.26-.4-1.5-2.87-6.42-3.82-9.69-.04-.02-.09-.04-.14-.06,.85,3.22,3.03,8.02,3.38,9.5"/><path class="cls-5" d="M1368.08,1081.59c.22,.08,.42,.17,.58,.26-.4-1.5-2.87-6.42-3.82-9.69h0s-.09-.04-.13-.06c.85,3.22,3.03,8.02,3.38,9.5"/><path class="cls-17" d="M1368.08,1081.59c.22,.08,.42,.17,.58,.26-.4-1.5-2.87-6.42-3.82-9.69-.04-.02-.09-.04-.14-.06,.85,3.22,3.03,8.02,3.38,9.5"/><path class="cls-18" d="M1368.08,1081.59c.22,.08,.42,.17,.58,.26-.4-1.5-2.87-6.42-3.82-9.69-.04-.02-.09-.04-.14-.06,.85,3.22,3.03,8.02,3.38,9.5"/><path class="cls-6" d="M1368.08,1081.59c.16,.17,.4,.16,.58,.26-.4-1.5-2.87-6.42-3.82-9.69-.04-.02-.09-.04-.14-.06,.85,3.22,3.03,8.02,3.38,9.5"/></g></g></g><g class="cls-9"><g class="cls-2"><g class="cls-9"><path class="cls-28" d="M1364.84,1072.16c-.04-.12-.07-.18-.11-.17-.04-.02-.08-.04-.13-.06,.03,0,.06,.05,.1,.17,.05,.02,.1,.04,.14,.06"/><path class="cls-28" d="M1364.7,1072.09c.05,.02,.1,.04,.14,.06-.04-.12-.07-.18-.11-.17-.04-.02-.08-.04-.13-.06,.03,0,.06,.05,.1,.17"/><path class="cls-32" d="M1364.7,1072.09c.05,.02,.1,.04,.14,.06-.04-.12-.07-.18-.11-.17-.04-.02-.08-.04-.13-.06,.03,0,.06,.05,.1,.17"/><path class="cls-33" d="M1364.7,1072.09c.05,.02,.1,.04,.14,.06-.04-.12-.07-.18-.11-.17-.04-.02-.08-.04-.13-.06,.03,0,.06,.05,.1,.17"/><path class="cls-5" d="M1364.7,1072.09c.05,.02,.1,.04,.14,.06-.04-.12-.07-.18-.11-.17-.04-.02-.08-.04-.13-.06,.03,0,.06,.05,.1,.17"/><path class="cls-17" d="M1364.7,1072.09c.05,.02,.1,.04,.14,.06-.04-.12-.07-.18-.11-.17-.04-.02-.08-.04-.13-.06,.03,0,.06,.05,.1,.17"/><path class="cls-18" d="M1364.7,1072.09c.05,.02,.1,.04,.14,.06-.04-.12-.07-.18-.11-.17-.04-.02-.08-.04-.13-.06,.03,0,.06,.05,.1,.17"/><path class="cls-6" d="M1364.7,1072.09c.05,.02,.1,.04,.14,.06-.04-.12-.07-.18-.11-.17-.04-.02-.08-.04-.13-.06,.03,0,.06,.05,.1,.17"/></g></g></g><path class="cls-34" d="M1364.73,1071.98s.07,.05,.11,.17c.96,3.27,3.43,8.19,3.82,9.69,.79,2.98,2.12,11.05,2.69,14.72,.88,5.6-.03,9.62-.41,11.71-1.26,6.75-2.61,15.63-4.12,15.84-.56,.08-1.14-1.04-1.75-3.92-1.15-5.45-1.52-23.43-1.49-28.38,0-1.74,.53-19.75,1.15-19.84Z"/><g class="cls-9"><g class="cls-16"><g class="cls-9"><path class="cls-28" d="M1363.58,1092.08v.44c0-.17,0-.34,0-.49v.05"/><path class="cls-28" d="M1363.58,1092.03h0v.02h0v.02h0v.02h0v.02h0v.02h0v.29h0v.02h0v.02h0v.02h0v.02h0v.02h0v.02c0-.17,0-.34,0-.49"/><path class="cls-32" d="M1363.58,1092.03h0v.02h0v.02h0v.02h0v.02h0v.02h0v.29h0v.02h0v.02h0v.02h0v.02h0v.02h0v.02c0-.17,0-.34,0-.49"/><path class="cls-33" d="M1363.58,1092.03h0v.02h0v.02h0v.02h0v.02h0v.02h0v.29h0v.02h0v.02h0v.02h0v.02h0v.02h0v.02c0-.17,0-.34,0-.49"/><path class="cls-5" d="M1363.58,1092.03h0v.02h0v.02h0v.02h0v.02h0v.02h0v.29h0v.02h0v.02h0v.02h0v.02h0v.02h0v.02c0-.17,0-.34,0-.49"/><path class="cls-17" d="M1363.58,1092.03h0v.02h0v.02h0v.02h0v.02h0v.02h0v.29h0v.02h0v.02h0v.02h0v.02h0v.02h0v.02c0-.17,0-.34,0-.49"/><path class="cls-18" d="M1363.58,1092.03h0v.02h0v.02h0v.02h0v.02h0v.02h0v.29h0v.02h0v.02h0v.02h0v.02h0v.02h0v.02c0-.17,0-.34,0-.49"/><path class="cls-6" d="M1363.58,1092.03h0v.02h0v.02h0v.02h0v.02h0v.02h0v.29h0v.02h0v.02h0v.02h0v.02h0v.02h0v.02c0-.17,0-.34,0-.49"/></g></g></g><path class="cls-15" d="M1365.07,1120.2c-1.08-5.11-1.47-21.23-1.49-27.3,.02,6.07,.36,22.17,1.31,27.22,.52,2.75,1.02,3.83,1.5,3.81-.43-.42-.87-1.59-1.32-3.73Zm-.47-48.27c-.55,.12-1.02,18.16-1.02,19.9,0-1.7,.51-18.79,1.1-19.75-.03-.09-.06-.15-.08-.15Z"/><g class="cls-9"><g class="cls-8"><g class="cls-9"><path class="cls-28" d="M1366.55,1124.06c-.09-.05-.16-.08-.29-.13-.44-.16-.9-1.3-1.37-3.82,.07,.02,.13,.05,.18,.08,.51,2.42,1.01,3.6,1.49,3.86"/><path class="cls-28" d="M1364.89,1120.12c.07,.02,.13,.05,.18,.08,.51,2.42,1.01,3.6,1.49,3.86h-.02v-.02h-.03v-.02h-.04v-.02h-.04l-.02-.02h-.03l-.02-.02h-.03l-.02-.02h-.04c-.44-.17-.9-1.32-1.37-3.83"/><path class="cls-32" d="M1364.89,1120.12c.07,.02,.13,.05,.18,.08,.51,2.42,1.01,3.6,1.49,3.86h-.02v-.02h-.03v-.02h-.04v-.02h-.04l-.02-.02h-.03l-.02-.02h-.03l-.02-.02h-.04c-.44-.17-.9-1.32-1.37-3.83"/><path class="cls-33" d="M1364.89,1120.12c.07,.02,.13,.05,.18,.08,.51,2.42,1.01,3.6,1.49,3.86h-.02v-.02h-.03v-.02h-.04v-.02h-.04l-.02-.02h-.03l-.02-.02h-.03l-.02-.02h-.04c-.44-.17-.9-1.32-1.37-3.83"/><path class="cls-5" d="M1364.89,1120.12c.07,.02,.13,.05,.18,.08,.51,2.42,1.01,3.6,1.49,3.86h-.02v-.02h-.03v-.02h-.04v-.02h-.04l-.02-.02h-.03l-.02-.02h-.03l-.02-.02h-.04c-.44-.17-.9-1.32-1.37-3.83"/><path class="cls-17" d="M1364.89,1120.12c.07,.02,.13,.05,.18,.08,.51,2.42,1.01,3.6,1.49,3.86h-.02v-.02h-.03v-.02h-.04v-.02h-.04l-.02-.02h-.03l-.02-.02h-.03l-.02-.02h-.04c-.44-.17-.9-1.32-1.37-3.83"/><path class="cls-18" d="M1364.89,1120.12c.07,.02,.13,.05,.18,.08,.51,2.42,1.01,3.6,1.49,3.86h-.02v-.02h-.03v-.02h-.04v-.02h-.04l-.02-.02h-.03l-.02-.02h-.03l-.02-.02h-.04c-.44-.17-.9-1.32-1.37-3.83"/><path class="cls-6" d="M1364.89,1120.12c.07,.02,.13,.05,.18,.08,.51,2.42,1.01,3.6,1.49,3.86h-.02v-.02h-.03v-.02h-.04v-.02h-.04l-.02-.02h-.03l-.02-.02h-.03l-.02-.02h-.04c-.44-.17-.9-1.32-1.37-3.83"/></g></g></g><g class="cls-9"><g class="cls-29"><g class="cls-9"><path class="cls-28" d="M1363.58,1092.46v-.15c0,5.55,.37,22.6,1.49,27.88-.05-.03-.11-.05-.18-.08-.98-5.16-1.31-21.85-1.31-27.6,0-.02,0-.04,0-.06"/><path class="cls-28" d="M1363.58,1092.52h0v-.02h0v-.02h0v-.02h0v-.02h0v-.02h0v-.11c0,5.55,.37,22.6,1.49,27.88-.05-.03-.11-.05-.18-.08-.98-5.16-1.31-21.85-1.31-27.6"/><path class="cls-32" d="M1363.58,1092.52h0v-.02h0v-.02h0v-.02h0v-.02h0v-.02h0v-.11c0,5.55,.37,22.6,1.49,27.88-.05-.03-.11-.05-.18-.08-.98-5.16-1.31-21.85-1.31-27.6"/><path class="cls-33" d="M1363.58,1092.52h0v-.02h0v-.02h0v-.02h0v-.02h0v-.02h0v-.11c0,5.55,.37,22.6,1.49,27.88-.05-.03-.11-.05-.18-.08-.98-5.16-1.31-21.85-1.31-27.6"/><path class="cls-5" d="M1363.58,1092.52h0v-.02h0v-.02h0v-.02h0v-.02h0v-.02h0v-.11c0,5.55,.37,22.6,1.49,27.88-.05-.03-.11-.05-.18-.08-.98-5.16-1.31-21.85-1.31-27.6"/><path class="cls-17" d="M1363.58,1092.52h0v-.02h0v-.02h0v-.02h0v-.02h0v-.02h0v-.11c0,5.55,.37,22.6,1.49,27.88-.05-.03-.11-.05-.18-.08-.98-5.16-1.31-21.85-1.31-27.6"/><path class="cls-18" d="M1363.58,1092.52h0v-.02h0v-.02h0v-.02h0v-.02h0v-.02h0v-.11c0,5.55,.37,22.6,1.49,27.88-.05-.03-.11-.05-.18-.08-.98-5.16-1.31-21.85-1.31-27.6"/><path class="cls-6" d="M1363.58,1092.52h0v-.02h0v-.02h0v-.02h0v-.02h0v-.02h0v-.11c0,5.55,.37,22.6,1.49,27.88-.05-.03-.11-.05-.18-.08-.98-5.16-1.31-21.85-1.31-27.6"/></g></g></g><g class="cls-9"><g class="cls-10"><g class="cls-9"><path class="cls-28" d="M1363.58,1092.22v-.39h0c0,.12,0,.26,0,.39"/><path class="cls-28" d="M1363.58,1091.82c0,.12,0,.26,0,.39v-.08h0v-.02h0v-.02h0v-.02h0v-.02h0v-.02h0v-.22"/><path class="cls-32" d="M1363.58,1091.82c0,.12,0,.26,0,.39v-.08h0v-.02h0v-.02h0v-.02h0v-.02h0v-.02h0v-.22"/><path class="cls-33" d="M1363.58,1091.82c0,.12,0,.26,0,.39v-.08h0v-.02h0v-.02h0v-.02h0v-.02h0v-.02h0v-.22"/><path class="cls-5" d="M1363.58,1091.82c0,.12,0,.26,0,.39v-.08h0v-.02h0v-.02h0v-.02h0v-.02h0v-.02h0v-.22"/><path class="cls-17" d="M1363.58,1091.82c0,.12,0,.26,0,.39v-.08h0v-.02h0v-.02h0v-.02h0v-.02h0v-.02h0v-.22"/><path class="cls-18" d="M1363.58,1091.82c0,.12,0,.26,0,.39v-.08h0v-.02h0v-.02h0v-.02h0v-.02h0v-.02h0v-.22"/><path class="cls-6" d="M1363.58,1091.82c0,.12,0,.26,0,.39v-.08h0v-.02h0v-.02h0v-.02h0v-.02h0v-.02h0v-.22"/></g></g></g><g class="cls-9"><g class="cls-3"><g class="cls-9"><path class="cls-28" d="M1364.73,1071.98c-.62,.09-1.14,18.1-1.15,19.84h0c0-1.74,.47-19.78,1.02-19.9,.05,.02,.09,.04,.13,.06"/><path class="cls-28" d="M1364.59,1071.93s.09,.04,.13,.05c-.61,.32-1.13,18.11-1.14,19.84,0-1.73,.47-19.47,1.01-19.89"/><path class="cls-32" d="M1364.57,1071.95s.09,.04,.13,.04c-.6,.61-1.12,18.11-1.12,19.82,0-1.71,.46-19.07,.99-19.87"/><path class="cls-33" d="M1364.55,1071.99s.09,.04,.13,.03c-.6,.89-1.1,18.11-1.1,19.8,0-1.69,.45-18.68,.97-19.84"/><path class="cls-5" d="M1364.53,1072.03s.1,.03,.14,.01c-.59,1.16-1.09,18.09-1.09,19.78,0-1.67,.44-18.3,.95-19.79"/><path class="cls-17" d="M1364.51,1072.09s.07,.04,.1,.03c.02,0,.03-.03,.04-.04-.58,1.42-1.07,18.07-1.07,19.74,0-1.65,.43-17.92,.93-19.73"/><path class="cls-18" d="M1364.48,1072.26l-.02,.16c.05-.11,.12-.19,.18-.3-.58,1.67-1.05,18.05-1.06,19.7,0-1.61,.4-17.09,.89-19.57"/><path class="cls-6" d="M1364.31,1073.62q.08-.72,.32-1.46c-.57,1.91-1.04,18.01-1.04,19.66,0-1.42,.32-13.64,.73-18.2"/></g></g></g></g></g></svg>