<?xml version="1.0" encoding="UTF-8"?><svg id="_層_2" xmlns="http://www.w3.org/2000/svg" viewBox="0 0 651.98 847.51"><defs><style>.cls-1{fill:#dfe0d3;}.cls-2{fill:#cccccf;}.cls-3{fill:#e6eae4;}.cls-4{fill:#b2bcac;}.cls-5{fill:#515b5a;stroke-width:1.26px;}.cls-5,.cls-6{stroke:#8a7900;stroke-miterlimit:10;}.cls-6{fill:#938e8a;stroke-width:.86px;}.cls-7{fill:#fbd2a7;}.cls-8{fill:#e0e0d5;}.cls-9{fill:#edefdf;}.cls-10{fill:#634932;}.cls-11{fill:#f7617e;}</style></defs><g id="_層_1-2"><g><path class="cls-1" d="M355.09,320.77c-11.8,12.15-18.44,17.57-29.95,39.17-7.99,14.98-8.9,16.7-6.54,60.87,3.87,72.35,9.45,102.86,7.3,118.92-1.28,9.53-5.28,20.6,1.82,28.69,8.69,9.9,4.49,12.65,23.07,10.24,50.09-6.52,43.73,5.61,113.14,0,37.96-3.07,39.81-6.69,63.87-5.66,14.09,.6-4.31,3.98,0,0,12.42-11.48,8.37-44.86,3.65-94.38-6.92-72.54,1.91-109.6-21.64-142.03-13.76-18.95-31.79-25.99-65.3-35.36-20.82-5.82-60.22-10.54-89.42,19.54Z"/><path class="cls-9" d="M409.42,318.74c-11.73,5.39,2.04,24.9-7.48,46.5-6.61,14.98-6.43,17.78-4.48,61.95,3.2,72.35-6.14,95.02-7.92,111.08-1.05,9.53-4.37,20.6,1.51,28.69,7.18,9.9,3.71,12.65,19.08,10.24,41.43-6.52,36.17,5.61,93.57,0,31.39-3.07,32.92-6.69,52.82-5.66,11.65,.6-3.56,3.98,0,0,10.27-11.48,6.92-44.86,3.02-94.38-5.72-72.54,1.58-109.6-17.9-142.03-11.38-18.95-39.62-28.38-54-35.36-12.68-6.16-44.72,3.6-78.22,18.98Z"/><g><rect class="cls-6" x=".9" y="623.11" width="521.33" height="218.96"/><polygon class="cls-5" points="651.35 696.35 524.58 845.8 523.01 623.11 649.9 467.02 651.35 696.35"/><polygon class="cls-6" points="523.01 623.11 .9 623.11 127.79 467.02 649.9 467.02 523.01 623.11"/></g><path class="cls-9" d="M495.97,335.43c-7.78,34.32,.4,48.5-1.89,83.55-1.01,15.47-4.08,29.15-10.23,56.49-8.42,37.43-21.49,53.8-12.07,64.69,13.67,15.82,33.81,12.13,48.91,17.54,8.93,3.2,12.78-2.6,19.34-32,19.17-85.86,19.34-79.24,19.93-89.11,1.53-25.71,3.31-64.03-18.66-98.94"/><path class="cls-3" d="M460.23,297.09c-3.34,.45-9.45,3.87-21.52,10.7-14.71,8.32-17.02,10.23-23.83,12.38-6.77,2.14-8.87,1.62-10.98,3.56-2.63,2.41-1.84,5.44,4.85,19.4,4.83,10.06,5.51,10.76,7.19,11.18,5.59,1.42,11.62-2.86,38.31-16.14,16.94-8.42,25.87-12.35,36.03-20.99,10.2-8.67,9.21-11.53,8.9-12.2-1.33-2.81-7.05-1.47-19.02-3.63-12.94-2.34-13.2-5.16-19.94-4.26Z"/><path class="cls-7" d="M425.19,292.33c-2.76,.09-8.18,1.97-18.89,5.73-13.06,4.57-15.19,5.69-21,6.69-5.77,1-7.39,.53-9.37,1.68-2.46,1.42-2.26,3.46,1.19,13,2.48,6.88,2.94,7.38,4.23,7.76,4.31,1.26,9.79-1.18,33.23-8.29,14.87-4.51,22.64-6.55,32.07-11.6,9.46-5.08,9.07-7.01,8.91-7.47-.68-1.92-5.49-1.38-14.85-3.51-10.13-2.3-9.93-4.17-15.51-3.98Z"/><path class="cls-8" d="M378.52,342.2c-11.48,33.27-25.9,41-42.43,72-7.3,13.68-11.89,26.92-21.08,53.4-12.57,36.24-8.92,54.7-23.32,54.85-22.64,.24-39.83-3.43-53.28-6.31-9.28-1.99-7.54-7.02,2.37-35.47,28.97-83.07,25.33-77.54,30.03-86.23,12.25-22.65,30.94-56.16,68.01-74.25,4.45-2.17,32.88-16.05,41.92-6.47,2.29,2.42,4.85,7.95-2.23,28.48Z"/><path class="cls-3" d="M368.52,301.11c2.13,.16,5.68,2.83,12.69,8.16,8.55,6.5,9.82,8.07,13.99,9.53,4.15,1.45,5.59,.83,6.72,2.43,1.41,2,.51,4.82-5.63,18.02-4.43,9.52-4.97,10.2-6.12,10.71-3.83,1.7-7.23-1.75-22.97-11.89-9.99-6.43-15.33-9.35-20.87-16.47-5.56-7.15-4.55-9.83-4.26-10.46,1.22-2.66,4.79-1.85,12.88-4.7,8.75-3.08,9.27-5.67,13.56-5.34Z"/><path class="cls-7" d="M298.17,120.63c-9.95,23.94-2.27,36.21-15.41,67.75-10.74,25.79-20.75,29.34-21.19,47.43-.56,23.34,15.53,41.07,19.26,45.17,14.1,15.53,30.67,19.89,44.3,22.59,53.54,10.59,66.31-3.61,134.81-2.26,33.19,.65,56.08,4.5,73.18-13.55,6.63-6.99,9.72-14.47,21.19-22.58,18.18-12.88,28.03-6.56,36.59-18.07,9.01-12.11,8.49-33.04,1.93-47.43-1.05-2.31-8.45-18.53-21.18-20.33-10.57-1.49-18.18,7.89-23.11,11.29-36.78,25.43-130.76-138.89-200.29-119.7-19.78,5.46-40.47,26.57-50.07,49.69Z"/><path class="cls-4" d="M331.58,100.88c-9.92,.48-13.32,13.26-32.09,32.09-11.89,11.93-33.6,17.51-36,10.67-4.22-12.07,.08-34.65,13.35-65.41,3.34-7.74,18.25-34.75,35.66-32.75,8.48,.97,10.99-3.59,15.73-6.29,4.28-2.44,5.89-12.22,24.54-20.76C409.4-7.54,419,1.16,452.66,2.35c29.08,1.03,37.45,11.74,63.92,26.79,3.28,1.86,.53,.51,30.2,22.65,37.99,28.35,36.1,29.67,41.96,37.72,13.28,18.27,13.5,38.53,15.1,53.48,.77,7.14-.56,26.8-8.81,54.11-6.32,20.94-20.39,45.74-28.94,44.05-9.49-1.88,12.98-34.53-5.03-43.42-8.76-4.32-22.72-1.64-33.98,1.26-22.73,5.85-39.21-2.55-73.62-20.76-46.16-24.44-80.88-34.35-99.21-58.49-6.18-8.14-13.16-19.34-22.65-18.88Z"/><ellipse class="cls-10" cx="325.4" cy="202.95" rx="13.91" ry="23.29" transform="translate(56.62 476.5) rotate(-77.46)"/><ellipse class="cls-10" cx="455.61" cy="211.65" rx="23.29" ry="13.91" transform="translate(-15.32 36.71) rotate(-4.54)"/><path class="cls-11" d="M414.27,275.18c-3.26,12.39-62.13,7.11-52.43-5.03,11.95-14.97,5.97-10.59,10.56-13.82,6.75-4.75,28.88-5.73,32.48,0,5.49,8.74,11,12.74,9.4,18.85Z"/><path class="cls-7" d="M267.29,520.77c19.04,3.77,29.89-.43,21.25,17.77-2.89,6.09-3.15-4.33-10.85-2.52-1.72,.4-8.58,22.95-33.04,10.61-6.01-3.03-3.81-.2-8.79-7.33-8.27-11.83-.11-27.02,4.92-27.41,4.76-.37,.22,3.68,26.52,8.88Z"/><path class="cls-7" d="M494.68,550.46c-15.98-7.75-21.3-17.24-25.94,2.21-1.55,6.5,4.86-1.68,9.34,4.12,1,1.29-7.52,23.21,17.49,27.17,6.15,.97,2.87,1.99,10.72-.9,13.03-4.79,16.22-21.56,12.83-24.71-3.21-2.99-2.35,2.82-24.43-7.88Z"/><circle class="cls-2" cx="401.5" cy="369.44" r="3.37"/><circle class="cls-2" cx="398.14" cy="408.7" r="3.2"/><circle class="cls-2" cx="399.47" cy="453.66" r="3.04"/></g></g></svg>