<?xml version="1.0" encoding="UTF-8"?><svg id="_層_2" xmlns="http://www.w3.org/2000/svg" viewBox="0 0 287.17 493.58"><defs><style>.cls-1{fill:#977d00;}.cls-2{fill:#725d05;}.cls-3{fill:#fbd2a7;}.cls-4{fill:#bca12f;}.cls-5{fill:#725d04;}.cls-6{fill:#fdffdb;}.cls-7{fill:#634932;}.cls-8{fill:none;stroke:#000;stroke-miterlimit:10;stroke-width:5px;}.cls-9{fill:#826a03;}</style></defs><g id="_層_1-2"><g><path class="cls-9" d="M95.9,218.21c7.71,9.06-12.17,30.36-25.31,75.65-10.87,37.49-6.33,54.2-21.1,65.69-9.86,7.66-25.29,10.65-34.06,3.27-9.26-7.79-7.69-24.28-6.95-32.13,2.17-22.84,12.37-27.25,35.2-69.73,13.07-24.32,17.03-36.45,30.5-42.41,1.34-.59,16.1-6.93,21.72-.34Z"/><path class="cls-1" d="M64.3,363.76c-5.91,8.28,7.35,17.71,8.36,48.01,.67,19.89-4.65,27.75,1.67,37.72,6.11,9.64,19.79,16.08,28.42,12,7.37-3.48,6.52-12.48,13.38-39.43,8.05-31.64,13.15-34.69,10.03-42.86-8.04-21.09-52.53-28.5-61.86-15.43Z"/><path class="cls-1" d="M133.58,374.56c-3.34,8.58,9,15.35,15.05,43.34,3.97,18.38,1.04,26.47,7.87,34.79,6.6,8.03,18.77,11.96,25.04,6.88,5.35-4.34,3.11-12.58,3.99-38.64,1.03-30.61,4.63-34.2,.7-41.32-10.14-18.39-47.37-18.58-52.65-5.04Z"/><path class="cls-5" d="M74.7,451.15c11.32,4.41,22.71-3.4,33.1,.86,3.84,1.57,6.77,27.37,0,33.9-4.49,4.34-9.99,4.24-24.93,2.4-27.11-3.32-37.5-.85-39.41-5.97-.7-1.87-3.41-17.57,31.24-31.19Z"/><path class="cls-5" d="M182.97,458.07c-11.9,2.48-15.97,1.28-24.14-2.93-3.69-1.9-15.99,23.76-10.4,31.32,3.71,5.02,15.14,6.09,30.19,6.76,27.28,1.21,32.3-.6,33.28-5.98,2.72-15.07-15.66-19.06-28.93-29.17Z"/><path class="cls-3" d="M24.05,366.68c12.1,4.67,19.73,3.16,11.94,14.14-2.6,3.67-1.58-3.21-6.85-2.91-1.18,.07-8.29,14.12-22.97,3.18-3.61-2.69-2.48-.57-4.94-5.84-4.08-8.74,3.04-17.79,6.39-17.47,3.17,.3-.28,2.44,16.43,8.9Z"/><path class="cls-3" d="M230.45,377.83c-14.83,.16-22.22-5.83-18.82,13.2,1.14,6.36,3.07-3.58,8.52-.45,1.21,.7,2.56,23.57,22.86,16.17,4.99-1.82,2.87,.49,7.78-5.44,8.14-9.85,4.61-25.9,.92-27.19-3.49-1.22-.78,3.49-21.27,3.71Z"/><path class="cls-5" d="M139.46,206.61c-30.66-.82-52.08,16.26-58.52,21.4-22.58,18.02-16.22,51.49-21.39,70.81-3.56,13.29-11.19,26.68-13.79,33.87-6.03,16.67-6.6,34.24-4.86,37.07,13.18,21.46,59.48,1.05,149.69,9.73,9.2,.89,22.17,2.39,30.48-4.38,10.36-8.45,5.66-23.43,0-56.17-10.16-58.71-3.69-60.47-13.86-74.89-2.57-3.65-26.45-36.34-67.76-37.44Z"/><path class="cls-1" d="M75.21,237.54c3.57-1.69-.93,8.2,19.1,26.25,15.52,13.98,26.47,23.84,39.41,24.64,35.15,2.18,60.97-52.23,70.63-47.44,4.12,2.04,4.16,4.29-.77,16.13-14.52,34.88-57.42,39.67-56.17,52.6,1.48,15.27,78.4,26.24,78.94,39.65,.23,5.76-26.94,3.26-37.74,4.06-25.07,1.87-35.81-31.87-57.54-28.9-11.61,1.59-11.31,11.6-28.25,18.18-20.47,7.95-61.74,12.32-62.39,7.05-1.07-8.59,76.01-25.95,76.34-42.59,.24-12.03-30.55-13.72-46.98-42.89-8.38-14.88,2.06-25.14,5.41-26.73Z"/><path class="cls-4" d="M70.44,240.61c3.57-1.69,3.84,9.41,23.87,27.45,15.52,13.98,26.47,23.84,39.41,24.64,35.15,2.18,61.61-54.72,71.27-49.93,4.12,2.04,3.52,6.79-1.41,18.63-14.52,34.88-57.42,39.67-56.17,52.6,1.48,15.27,78.9,26.09,79.44,39.5,.23,5.76-27.44,3.4-38.24,4.21-25.07,1.87-35.81-31.87-57.54-28.9-11.61,1.59-11.31,11.6-28.25,18.18-20.47,7.95-61.97,9.55-62.63,4.28-1.07-8.59,76.24-23.17,76.58-39.81,.24-12.03-30.55-13.72-46.98-42.89-8.38-14.88-2.71-26.35,.64-27.94Z"/><path class="cls-9" d="M197.92,210.22c-10.87,7.36,3.99,35.88,4.6,87.92,.5,43.07-9.25,59.52,3.06,76.09,8.22,11.06,23.74,18.79,35.23,13.53,12.14-5.55,15.33-23.56,16.85-32.13,4.42-24.93-5.11-32.63-16.85-84.54-6.72-29.72-7.35-43.79-19.91-54.11-1.25-1.03-15.07-12.12-22.98-6.76Z"/><path class="cls-3" d="M109.83,195.4c1.47-1.18,2.28,2.98,9.86,4.62,2.16,.47,3.96,.54,5.36,.58,12.45,.42,22.66-4.69,22.08-2.06-.37,1.7-3.02,5.89-17.79,10.65-7.64,2.46-6.26,1.43-9.15,.78-8.31-1.89-13.96-11.69-10.36-14.57Z"/><g><path class="cls-3" d="M53.61,125.96c-1.64,5.45,.78,13.44-4.6,25.29-5.02,11.06-5.36,18.78-5.26,23.93,.23,12.37,36.93,23.79,59.58,29.61,28.51,7.33,35.25,1.74,55.98-1.39,15.47-2.34,34.01-5.14,44.43-20.55,9.21-13.62,9.68-33.54,3.06-47.41-23.68-49.69-145.09-36.31-153.19-9.48Z"/><path class="cls-1" d="M43.49,183.1c-17.36,20.43,33.41,21,11.74,23.49-16.27,1.87-10.93,2.94-11.79,20.04-.22,4.36,27.52-1.86,38.01-6.26,9.91-4.16,39.87-4.05,39.82-5.95-.19-7.76-43.11-21.92-61.62-28.26-6.47-2.21-12.54-7.33-16.17-3.06Z"/><path class="cls-1" d="M129.34,207.78c.79-2.57,11.23,.82,31.38-4.7,5.74-1.57,9.86-3.21,13.05-4.49,28.33-11.37,40.23-26.16,44.43-22.98,2.72,2.06-1.46,8.85-9.19,36.77-4.05,14.65-3.84,16.16-6.13,18.38-16.52,16.04-75.46-16.68-73.53-22.98Z"/><ellipse class="cls-7" cx="71.94" cy="145.82" rx="9.3" ry="15.56" transform="translate(-90.63 142.99) rotate(-62.75)"/><ellipse class="cls-7" cx="161.99" cy="149.76" rx="15.56" ry="9.3" transform="translate(-33.36 47.26) rotate(-15.07)"/><path class="cls-8" d="M90.8,175.38c2.6,3.79,6.6,8.41,11.23,8.17,5.36-.28,6.79-6.83,12.26-7.15,6.28-.36,8.55,8.05,15.32,8.68,3.08,.29,7.82-.96,14.3-9.19"/><g><path class="cls-9" d="M72.29,31.24c6.14-10.65,18.01-19.02,29.6-23.57C123.6-.84,142.89-.51,155.61,.52c13.38,1.09,44.57,3.05,66.79,16.85,6.8,4.23,34.21,29.62,45.45,59.74,13.4,35.93,8.08,37.49,5.11,66.38-6.57,63.8,17.73,65.97,13.77,72.51-2.83,4.67-20.49,3.2-34.2,3.75-14.07,.56-27.17,1.09-32.17-6.13-4.7-6.78-13.94-21.53-13.28-42.05,1.02-31.66,12.26-32.17,8.68-61.56-.86-7.07-7.78,20.17-27.57,14.76-27.65-7.56-34.55-4.45-69.96-7.84-7.31-.7-28.87-3.35-67.92-12.08-17.82-3.98-8.5-2.75-10.21-7.84-.8-2.38,24.52-52.52,32.18-65.79Z"/><path class="cls-6" d="M47.99,108.03c-2.56,3.48-7.69,13.26-4.6,16.85,2.77,3.21,19.02-2.46,22.34-5.01,1.68-1.29,1.79,10.72,15.06,6.64,6.78-2.08,2.27,.09,7.15,1.53,3.46,1.02,5.72-3.95,6.89-3.57,9.59,3.07,3.06,8.43,15.06,4.6,9.64-3.08,6,6.62,14.81,6.64,13.53,.03,9.7-7.9,17.1-5.88,2.27,.62,11.52,9.5,21.35,7.18,17.66-4.17,19.96,2.33,30.96-.5,8.94-2.3,28.72,16.78,21.42-25.91-3.39-19.79-70.75-11.36-77.08-6.53-10.85,8.28-32.6,5.12-31.88,3.05,2.88-8.33-48.99-12.17-58.6,.93Z"/><g><path class="cls-1" d="M223.56,164.67c-2.39-3.22,1.72-6.73,5.03-19.27,3.47-13.1,5.38-22.78,10.77-22.21,7.9,.83,10.42,1.29,17.69,4.31,9.89,4.11-2.69,48.02-10.03,44.81-8.25-3.61-20.28-3.37-23.46-7.65Z"/><path class="cls-5" d="M236.06,168.24c-2.39-1.74,1.68-6.51,4.87-18.65,3.34-12.68,6.53-22.33,9.36-22.41,4.15-.11,4.9-.52,8.41,1.58,8.29,4.95-3.98,43.66-9.65,43.72-4.22,.04-10.01-2.08-12.99-4.25Z"/><path class="cls-5" d="M242.73,32.55c2.26,1.91-8.56-.22-18.32,7.66-14.23,11.49-16.53,20.38-14.92,20.65,4.09,.69-4.65-4.47-8-6.82-7.9-5.55,22.93-27.04,28.59-26.68,4.21,.26,9.83,2.81,12.65,5.19Z"/><path class="cls-1" d="M209.55,82.03c2.51-2.92,6.95-.04,19.92,0,13.55,.04,17.15-3.08,21.45,0,5.67,4.06,3.83,18.32-3.78,18.62-13.6,.54-17.11,.35-34.64-4.41-1.98-.54-6.28-10.33-2.94-14.21Z"/><path class="cls-1" d="M114.87,80.73c-3.6-.03-3.33,15.18-16.02,24.2-7.62,5.42-11.24,10.77-36.54,11.51-22.25,.66-26.88-6.15-34.38-12.6-11.27-9.68-7.88-24.58-7.83-28.6,.04-3.27,1.38-19.2,19.06-31.66,14.91-10.5,26.58-14.99,33.65-13.73,14.01,2.49,21.38,9.14,37.5,9.3,7.63,.08,8.65,4.46,26.84-1.64s27.76-4.51,35.23-3.06c12.6,2.44,33.61,12.07,40.09,30.92,7.32,21.28-2.85,42.41-4.13,44.26-10.81,15.62-32.71,15.84-37.5,16.74-1.82,.34-27.55,4.8-42.89-10.72-15.18-15.35-9.13-34.89-13.08-34.93Z"/><path class="cls-4" d="M134.72,65.39c.29-4.52,9.37-3.98,25.36-3.94,16.71,.05,20.6,2.52,23.92,7.12,4.9,6.79,7.18,19.3,2.01,26.51-8.18,11.42-31.93,14.23-44.65,2.6-7.36-6.72-7.8-14.4-6.64-32.29Z"/><path class="cls-4" d="M97.9,62.79c-.29-4.52-9.37-3.98-25.36-3.94-16.71,.05-20.6,2.52-23.92,7.12-4.9,6.79-7.18,19.3-2.01,26.51,8.18,11.42,31.93,14.23,44.65,2.6,7.36-6.72,7.8-14.4,6.64-32.29Z"/><path class="cls-2" d="M243.15,83.27c.76-2.04,2.61-3,6.52-2.97,4.08,.03,2.7,.37,4.06,.27,2.59-.2,3.87,18.29,.83,20.19-4.39,2.74-6.81,0-10.85,.27-3.36,.22-1.58-15.05-.57-17.75Z"/></g></g></g><path class="cls-1" d="M151.86,297.46c4.88,10.2-.47,20.96-1.53,22.98-.66,1.26-8.16,14.95-22.98,15.32-11.71,.29-23.02-7.86-26.04-19.91-2.98-11.89,3.08-23.63,12.26-29.11,13.43-8.01,32.3-1.82,38.3,10.72Z"/><path class="cls-4" d="M144.79,300.9c3.48,7.27-.34,14.96-1.09,16.39-.47,.9-5.82,10.66-16.39,10.93-8.36,.21-16.42-5.61-18.58-14.21-2.13-8.48,2.2-16.86,8.74-20.76,9.58-5.71,23.04-1.3,27.32,7.65Z"/></g></g></svg>