<?xml version="1.0" encoding="UTF-8"?><svg id="_層_2" xmlns="http://www.w3.org/2000/svg" viewBox="0 0 920.05 801.52"><defs><style>.cls-1{stroke-width:40px;}.cls-1,.cls-2,.cls-3,.cls-4,.cls-5,.cls-6,.cls-7,.cls-8,.cls-9,.cls-10,.cls-11{stroke:#8a7900;stroke-miterlimit:10;}.cls-2{stroke-width:.45px;}.cls-2,.cls-7{fill:#d9fffe;}.cls-3{stroke-width:1.93px;}.cls-3,.cls-10{fill:none;}.cls-4{fill:#71bdff;stroke-width:.48px;}.cls-5{stroke-width:16px;}.cls-12{fill:#a98fc9;}.cls-6{fill:#515b5a;stroke-width:1.1px;}.cls-13{fill:#fbd2a7;}.cls-14{fill:#475600;}.cls-7{stroke-width:.5px;}.cls-8{stroke-width:11px;}.cls-9{fill:#938e8a;}.cls-9,.cls-11{stroke-width:.75px;}.cls-15{fill:#ff7a43;}.cls-10{stroke-width:5.79px;}.cls-16{fill:#dec0ff;}.cls-11{fill:#fffce9;}</style></defs><g id="_層_1-2"><g><line class="cls-1" y1="467.65" x2="706.17" y2="467.65"/><line class="cls-5" x1="188.46" y1="584.45" x2="510.56" y2="584.45"/><line class="cls-8" x1="342.36" y1="283.88" x2="631.39" y2="689.02"/><line class="cls-8" x1="341.62" y1="288" x2="120.87" y2="734.04"/><rect class="cls-11" x="10.16" y=".38" width="706.24" height="449.72"/><path class="cls-13" d="M503.36,321.65c16.62-16.99,18.23-7.84-7.32-25.72-8.54-5.98-12.51-17.75-22.24-15.16-2.17,.58-11.49,8.23-15.15,15.92s14.26,20.4,15.46,32.74c1.99,20.48,3.73,23.25,9.37,20.55,5.34-2.56-3.09-4.86,19.88-28.34Z"/><path class="cls-12" d="M607.24,380.99c-7.55-11.7-29.14-23.15-50.97-44.57-16.52-16.2-38.39-33.18-52.18-36.34-1.87-.43-4.31-.72-9.23,2.89-7.2,5.29-7.56,10.01-11.2,14.98-6.25,8.51-5.7,7.13-14.49,16.86-4.43,4.91-3.89,8.15-8.62,12.53s-2.06,24.1-.77,27.25c2.34,5.66,3.38-12.5,41.89,13.73,62.74,42.74,66.83,38.69,77.56,42.67,4.99,1.85,17.69,4.83,19.65-.03,1.97-4.89,4.3-8.83,5.59-10.72,4.15-6.11,6.77-9.33,11.17-14.94,3.28-4.18-.05-11.38-8.4-24.32Z"/><path class="cls-16" d="M597.59,405.67c-12.48,17.38-2.8,49.52-13.3,89.86-7.94,30.52-9.21,67.37,5.53,84.58,2,2.34,5.16,5.17,20.19,7.53,22.01,3.46,32.28,.07,48.15,0,27.18-.13,23.48,.4,57.07,2.01,16.95,.81,21.73-.48,35.65,4.71,14.03,5.23,15.63,4.94,20.12,1.05,8.07-7.01,9.71-21.1,4.42-83.06-8.61-100.94-23.25-102.08-31.6-116.69-3.88-6.8-17.3-22.71-30.35-20.92s-24.84,2.45-30.71,2.59c-18.98,.44-29.65,.22-48,0-13.67-.16-23.37,9.12-37.17,28.34Z"/><g><rect class="cls-9" x="295.12" y="622.45" width="500.43" height="174.79"/><polygon class="cls-6" points="919.5 680.92 797.81 800.22 796.3 622.45 918.1 497.86 919.5 680.92"/><polygon class="cls-9" points="796.3 622.45 295.12 622.45 416.93 497.86 918.1 497.86 796.3 622.45"/></g><path class="cls-13" d="M664.56,519.3c-15.52-12.81-19.51-24.06-27.72-5.86-2.74,6.08,5.41-.18,9.14,7.07,.83,1.61-11.89,21.09,13.8,32.9,6.31,2.9,2.68,2.9,11.45,2.44,14.55-.77,20.77-16.7,17.74-20.95-2.87-4.02-2.96,2.11-24.41-15.59Z"/><path class="cls-12" d="M719.26,394.13c-11.57,7.87-22.61,29.83-43.63,52.28-15.9,16.98-32.47,39.37-35.36,53.28-.39,1.89-.63,4.34,3.08,9.19,5.44,7.09,10.18,7.33,15.23,10.86,8.65,6.05,7.25,5.54,17.18,14.11,5.01,4.32,7.09,4.61,9.21,10.94,2.14,6.38,2.78,6.56,5.91,5.18,5.63-2.49,12.33-10.79,37.84-50.09,41.56-64.03,37.43-68.04,41.2-78.91,1.75-5.06,4.49-17.87-.43-19.71s-8.94-4.1-10.85-5.34c-6.2-4.01-9.48-6.56-15.19-10.83-4.25-3.18-11.4,.34-24.19,9.04Z"/><path class="cls-13" d="M580.65,269.53c-7.03,14.22,7.14,24.45-1.37,51.8-7.77,24.98-10.55,38.59-6.8,51.33,3.26,11.04,8.6,13.84,41.02,23.18,20.81,5.99,40.49,7.28,72.44,8.88,23.47,1.17,44.52,2.23,69.74-6.32,11.73-3.97,31.21-10.85,42.39-27.8,4.52-6.86,2.29-7.19,8.2-17.69,12.38-21.98,24.39-24.51,24.61-36.64,.17-9.25-6.59-19.31-13.67-20.22-9.42-1.2-12.01,7.9-19.53,6.3-6.77-1.44-11.39-8.91-13.29-15.14-13.39-43.95-182.4-60.89-203.75-17.69Z"/><path class="cls-4" d="M667.79,312.48c9.22-20.54,29.05-34.13,49.9-34.34,31.36-.31,60.34,29.7,53.6,58.37-5.14,21.86-29.78,37.6-53.6,36.05-28.45-1.85-52.95-28.17-49.9-60.09Z"/><path class="cls-4" d="M558.44,303.25c8.06-19.43,25.39-32.29,43.61-32.48,27.41-.29,52.73,28.09,46.84,55.22-4.49,20.68-26.02,35.57-46.84,34.11-24.86-1.75-46.27-26.65-43.61-56.84Z"/><path class="cls-2" d="M558.43,304.06c7.64-18.14,24.06-30.15,41.33-30.33,25.97-.27,49.97,26.23,44.39,51.55-4.26,19.3-24.66,33.21-44.39,31.84-23.56-1.63-43.85-24.88-41.33-53.07Z"/><path class="cls-7" d="M666.81,315.99c8.78-19.34,24.4-35.69,44.26-35.88,29.87-.29,60.74,31.51,54.32,58.51-4.89,20.58-28.36,35.4-51.05,33.95-27.09-1.74-50.43-26.52-47.53-56.58Z"/><line class="cls-10" x1="648.9" y1="325.99" x2="668.08" y2="325.56"/><line class="cls-10" x1="770.12" y1="326.71" x2="805.82" y2="304.24"/><path class="cls-14" d="M629.72,210.58c-7.14,1.66-29.1,12.35-37.95,25.11-3.01,4.34-37.68,44.72-21.76,46.91,6.88,.95,15.38,5.36,37.65,2.84,7.31-.83,9.01-21.67,11.28-17.53,2.78,5.07-6.41,19.46-2.05,21.32,16.5,7.07,35.81,7.48,45.64,11.37,3.59,1.42,1.54-16.11,2.56-28.43,.95-11.43-3.41,24.7,11.28,27.96,18.48,4.09,20.23,6.66,40.08,4.63,2.27-.23,1.41-28.72,1.97-25.01,1.44,9.59-1.7,26.51,8.2,26.2,19.49-.61,69.59-.8,76.05-2.96,11.81-3.94,19.63-8.75,20.47-13.59,3.02-17.47-53.74-53.51-77.97-66.84,0,0-60.92-24.72-115.46-12Z"/><path class="cls-16" d="M605.16,218.29c2.78,6.4,14.83,4.2,47.86,10.11,10.35,1.85,25.9,4.63,42.39,10.11,28,9.3,47.85,22.78,58.8,30.32,6.82,4.7,21.98,15.63,39.66,30.32,18.28,15.2,22.06,20.13,27.35,18.95,12.5-2.79,17.79-36.23,10.94-63.18-1.39-5.46-7.3-26.51-27.35-45.49-16.82-15.92-34.67-21.95-51.96-27.8-11.37-3.84-33.48-11.09-62.9-10.11-14.27,.48-32.7,1.29-51.96,11.37-16.85,8.82-36.86,26.07-32.82,35.38Z"/><line class="cls-3" x1="427.98" y1="244.08" x2="475" y2="291.8"/><path class="cls-13" d="M792.67,378.64c6.99-27.85,64.16-61.59,27.5-78.4-9.42-1.2-18.09,5.06-28.72,18.03"/><ellipse class="cls-15" cx="656.58" cy="378.64" rx="12.18" ry="29.83" transform="translate(166.37 956.71) rotate(-79.67)"/></g></g></svg>