<?xml version="1.0" encoding="UTF-8"?><svg id="_層_2" xmlns="http://www.w3.org/2000/svg" xmlns:xlink="http://www.w3.org/1999/xlink" viewBox="0 0 1509 1975.54"><defs><style>.cls-1{filter:url(#drop-shadow-10);}.cls-1,.cls-2,.cls-3,.cls-4,.cls-5,.cls-6,.cls-7,.cls-8,.cls-9,.cls-10,.cls-11,.cls-12,.cls-13,.cls-14,.cls-15,.cls-16{stroke:#fff;stroke-miterlimit:10;stroke-width:12px;}.cls-1,.cls-2,.cls-3,.cls-4,.cls-5,.cls-6,.cls-7,.cls-8,.cls-9,.cls-10,.cls-11,.cls-12,.cls-13,.cls-14,.cls-16,.cls-17{fill:#2a2345;}.cls-2{filter:url(#drop-shadow-5);}.cls-3{filter:url(#drop-shadow-7);}.cls-5{filter:url(#drop-shadow-12);}.cls-6{filter:url(#drop-shadow-4);}.cls-7{filter:url(#drop-shadow-2);}.cls-8{filter:url(#drop-shadow-1);}.cls-9{filter:url(#drop-shadow-8);}.cls-10{filter:url(#drop-shadow-3);}.cls-11{filter:url(#drop-shadow-14);}.cls-12{filter:url(#drop-shadow-9);}.cls-13{filter:url(#drop-shadow-13);}.cls-14{filter:url(#drop-shadow-6);}.cls-15{fill:none;}.cls-16{filter:url(#drop-shadow-11);}</style><filter id="drop-shadow-1" filterUnits="userSpaceOnUse"><feOffset dx="7.69" dy="7.69"/><feGaussianBlur result="blur" stdDeviation="5.49"/><feFlood flood-color="#000" flood-opacity=".75"/><feComposite in2="blur" operator="in"/><feComposite in="SourceGraphic"/></filter><filter id="drop-shadow-2" filterUnits="userSpaceOnUse"><feOffset dx="2.83" dy="2.83"/><feGaussianBlur result="blur-2" stdDeviation="5.67"/><feFlood flood-color="#70410f" flood-opacity=".75"/><feComposite in2="blur-2" operator="in"/><feComposite in="SourceGraphic"/></filter><filter id="drop-shadow-3" filterUnits="userSpaceOnUse"><feOffset dx="2.83" dy="2.83"/><feGaussianBlur result="blur-3" stdDeviation="5.67"/><feFlood flood-color="#70410f" flood-opacity=".75"/><feComposite in2="blur-3" operator="in"/><feComposite in="SourceGraphic"/></filter><filter id="drop-shadow-4" filterUnits="userSpaceOnUse"><feOffset dx="2.83" dy="2.83"/><feGaussianBlur result="blur-4" stdDeviation="5.67"/><feFlood flood-color="#70410f" flood-opacity=".75"/><feComposite in2="blur-4" operator="in"/><feComposite in="SourceGraphic"/></filter><filter id="drop-shadow-5" filterUnits="userSpaceOnUse"><feOffset dx="2.83" dy="2.83"/><feGaussianBlur result="blur-5" stdDeviation="5.67"/><feFlood flood-color="#70410f" flood-opacity=".75"/><feComposite in2="blur-5" operator="in"/><feComposite in="SourceGraphic"/></filter><filter id="drop-shadow-6" filterUnits="userSpaceOnUse"><feOffset dx="2.83" dy="2.83"/><feGaussianBlur result="blur-6" stdDeviation="5.67"/><feFlood flood-color="#70410f" flood-opacity=".75"/><feComposite in2="blur-6" operator="in"/><feComposite in="SourceGraphic"/></filter><filter id="drop-shadow-7" filterUnits="userSpaceOnUse"><feOffset dx="2.83" dy="2.83"/><feGaussianBlur result="blur-7" stdDeviation="5.67"/><feFlood flood-color="#70410f" flood-opacity=".75"/><feComposite in2="blur-7" operator="in"/><feComposite in="SourceGraphic"/></filter><filter id="drop-shadow-8" filterUnits="userSpaceOnUse"><feOffset dx="2.83" dy="2.83"/><feGaussianBlur result="blur-8" stdDeviation="5.67"/><feFlood flood-color="#70410f" flood-opacity=".75"/><feComposite in2="blur-8" operator="in"/><feComposite in="SourceGraphic"/></filter><filter id="drop-shadow-9" filterUnits="userSpaceOnUse"><feOffset dx="2.83" dy="2.83"/><feGaussianBlur result="blur-9" stdDeviation="5.67"/><feFlood flood-color="#70410f" flood-opacity=".75"/><feComposite in2="blur-9" operator="in"/><feComposite in="SourceGraphic"/></filter><filter id="drop-shadow-10" filterUnits="userSpaceOnUse"><feOffset dx="2.83" dy="2.83"/><feGaussianBlur result="blur-10" stdDeviation="5.67"/><feFlood flood-color="#70410f" flood-opacity=".75"/><feComposite in2="blur-10" operator="in"/><feComposite in="SourceGraphic"/></filter><filter id="drop-shadow-11" filterUnits="userSpaceOnUse"><feOffset dx="2.83" dy="2.83"/><feGaussianBlur result="blur-11" stdDeviation="5.67"/><feFlood flood-color="#70410f" flood-opacity=".75"/><feComposite in2="blur-11" operator="in"/><feComposite in="SourceGraphic"/></filter><filter id="drop-shadow-12" filterUnits="userSpaceOnUse"><feOffset dx="2.83" dy="2.83"/><feGaussianBlur result="blur-12" stdDeviation="5.67"/><feFlood flood-color="#70410f" flood-opacity=".75"/><feComposite in2="blur-12" operator="in"/><feComposite in="SourceGraphic"/></filter><filter id="drop-shadow-13" filterUnits="userSpaceOnUse"><feOffset dx="2.83" dy="2.83"/><feGaussianBlur result="blur-13" stdDeviation="2.83"/><feFlood flood-color="#70410f" flood-opacity=".75"/><feComposite in2="blur-13" operator="in"/><feComposite in="SourceGraphic"/></filter><filter id="drop-shadow-14" filterUnits="userSpaceOnUse"><feOffset dx="2.83" dy="2.83"/><feGaussianBlur result="blur-14" stdDeviation="5.67"/><feFlood flood-color="#70410f" flood-opacity=".75"/><feComposite in2="blur-14" operator="in"/><feComposite in="SourceGraphic"/></filter></defs><g id="_層_1-2"><path class="cls-8" d="M1445.9,1242.59c0,101.15-22.07,197.28-61.76,284.05-1.89,4.13-3.82,8.24-5.79,12.33,18.27,20.47,35.32,44.03,22.53,71.75-14.21,33.27-52.58,44.36-86.14,34.82-1.53,1.98-4.14,5.51-6.85,9.12-59.65,79.38-136.1,146.01-224.24,194.89-4.01,2.22-8.04,4.41-12.09,6.56-3.19,2.73-4.61,4.11-4.61,8.27-5.68-18.02-2.84-38.81-15.63-55.45-14.21-18.02-34.1-27.72-56.84-23.56-19.89,4.16-38.37,18.02-41.21,38.81-5.68,31.88-4.26,76.24-37.05,92.42-4.55,1.19-9.12,2.34-13.71,3.44s-9.19,2.16-13.82,3.13c-2.2,.81-6.46,2.2-9.3-.57-12.79-20.79-29.84-37.43-54-40.2-32.68-2.77-52.58,30.49-65.37,55.45-5.68,12.48-36.95,4.16-57.76,1.94-4.7-.18-9.39-.4-14.07-.67-107.63-6.14-208.86-35.5-298.52-83.01-4.05-2.15-8.08-4.33-12.09-6.56-2.65-1.81-5.49-3.19-8.33-4.58-1.42,0-2.84,1.39-2.84,2.77,27-20.79,68.21-41.58,56.84-83.17-7.1-26.34-34.1-41.58-61.1-36.04-18.47,4.16-29.84,22.18-48.31,24.95-18.47,1.39-36.95-8.32-56.84-9.7-27-2.77-46.89-23.56-58.26-48.51,8.53,26.34,29.84,45.74,56.84,48.51,18.47,2.77,36.95,11.09,54,9.7,27-1.39,48.31-34.65,79.57-23.56,21.31,8.32,38.37,27.72,35.52,51.29-5.68,42.97-49.73,60.99-85.26,81.78-21.31,12.48-46.89-12.48-62.52-12.48-81-2.77-160.57-60.99-177.62-137.23-5.68-26.34,0-51.29-5.68-77.62-4.26-18.02,8.53-33.27,13.54-50.2-1.01-2.42-3.25-6.35-5.45-10.31-55.06-98.86-86.33-212.16-86.33-332.58,0-178.22,68.5-340.84,181.22-464.16,3.05-3.33,6.13-6.64,9.24-9.91,4.31-3.32,4.31-8.87,2.89-13.03-8.53-22.18-7.1-47.13,2.84-69.31,15.63-31.88,12.79-70.69,35.52-101.19,35.52-48.51,103.73-38.81,154.89-24.95,7.1,2.77,15.63-1.39,22.74,0,21.31,2.77,36.95,15.25,46.31,31.94,.42,0,2.78-.81,7.14-2.41,78.51-28.9,163.61-44.72,252.5-44.72,212.33,0,403.06,90.25,534.06,233.57,3.05,3.33,6.06,6.69,9.04,10.08,2.12,1.63,2.12,3.01,3.54,4.4,14.21,4.16,28.42-5.54,42.63-1.39,19.89,5.54,39.79,9.7,59.68,16.63,78.15,26.34,115.1,113.66,90.94,188.51-5.68,15.25-7.1,33.27-15.63,48.51-11.37,19.41-35.52,30.49-58.26,24.95-32.68-8.32-49.73-42.97-39.79-72.08,11.37-33.27,21.31-74.85-14.21-97.03,36.95,24.95,22.74,66.53,12.79,102.57-9.95,37.43,28.42,77.62,69.63,66.53-2.84,1.39-1.42,2.77,.07,4.78,1.13,4.48,2.22,8.97,3.26,13.48,11.47,49.6,17.53,101.21,17.53,154.2Z"/><g><line class="cls-7" x1="244.07" y1="488.22" x2="950.24" y2="488.22"/><line class="cls-10" x1="432.53" y1="605.02" x2="754.62" y2="605.02"/><line class="cls-6" x1="586.43" y1="304.45" x2="875.46" y2="709.6"/><line class="cls-2" x1="585.69" y1="308.58" x2="364.94" y2="754.62"/><rect class="cls-14" x="254.23" y="20.95" width="706.24" height="449.72"/><g><path class="cls-17" d="M649.8,242.05c0,19.95-4.31,38.91-12.06,56.03-.37,.81-.75,1.63-1.13,2.43,3.57,4.04,6.9,8.68,4.4,14.15-2.78,6.56-10.27,8.75-16.83,6.87-.3,.39-.81,1.09-1.34,1.8-11.65,15.66-26.58,28.8-43.8,38.44-.78,.44-1.57,.87-2.36,1.29-.62,.54-.9,.81-.9,1.63-1.11-3.55-.56-7.66-3.05-10.94-2.78-3.55-6.66-5.47-11.1-4.65-3.89,.82-7.49,3.55-8.05,7.66-1.11,6.29-.83,15.04-7.24,18.23-.89,.23-1.78,.46-2.68,.68s-1.8,.43-2.7,.62c-.43,.16-1.26,.43-1.82-.11-2.5-4.1-5.83-7.38-10.55-7.93-6.38-.55-10.27,6.01-12.77,10.94-1.11,2.46-7.22,.82-11.28,.38-.92-.04-1.83-.08-2.75-.13-21.02-1.21-40.8-7-58.31-16.37-.79-.42-1.58-.85-2.36-1.29-.52-.36-1.07-.63-1.63-.9-.28,0-.56,.27-.56,.55,5.27-4.1,13.32-8.2,11.1-16.4-1.39-5.19-6.66-8.2-11.93-7.11-3.61,.82-5.83,4.37-9.44,4.92-3.61,.27-7.22-1.64-11.1-1.91-5.27-.55-9.16-4.65-11.38-9.57,1.67,5.19,5.83,9.02,11.1,9.57,3.61,.55,7.22,2.19,10.55,1.91,5.27-.27,9.44-6.84,15.54-4.65,4.16,1.64,7.49,5.47,6.94,10.12-1.11,8.48-9.71,12.03-16.65,16.13-4.16,2.46-9.16-2.46-12.21-2.46-15.82-.55-31.36-12.03-34.69-27.07-1.11-5.19,0-10.12-1.11-15.31-.83-3.55,1.67-6.56,2.64-9.9-.2-.48-.64-1.25-1.07-2.03-10.75-19.5-16.86-41.85-16.86-65.6,0-35.15,13.38-67.23,35.4-91.55,.6-.66,1.2-1.31,1.8-1.96,.84-.66,.84-1.75,.56-2.57-1.67-4.37-1.39-9.3,.56-13.67,3.05-6.29,2.5-13.94,6.94-19.96,6.94-9.57,20.26-7.66,30.25-4.92,1.39,.55,3.05-.27,4.44,0,4.16,.55,7.22,3.01,9.04,6.3,.08,0,.54-.16,1.4-.48,15.34-5.7,31.96-8.82,49.32-8.82,41.47,0,78.73,17.8,104.31,46.07,.6,.66,1.18,1.32,1.77,1.99,.41,.32,.41,.59,.69,.87,2.78,.82,5.55-1.09,8.33-.27,3.89,1.09,7.77,1.91,11.66,3.28,15.27,5.19,22.48,22.42,17.76,37.18-1.11,3.01-1.39,6.56-3.05,9.57-2.22,3.83-6.94,6.01-11.38,4.92-6.38-1.64-9.71-8.48-7.77-14.22,2.22-6.56,4.16-14.76-2.78-19.14,7.22,4.92,4.44,13.12,2.5,20.23-1.94,7.38,5.55,15.31,13.6,13.12-.56,.27-.28,.55,.01,.94,.22,.88,.43,1.77,.64,2.66,2.24,9.78,3.42,19.96,3.42,30.41Z"/><path class="cls-15" d="M649.8,242.05c-.02,20.93-4.68,40.57-13.19,58.46,3.57,4.04,6.9,8.69,4.4,14.15-2.78,6.56-10.27,8.75-16.83,6.87-11.86,16.41-27.26,30.25-45.14,40.24-1.16,.84-3.3,1.18-3.26,2.92-1.11-3.55-.56-7.66-3.05-10.94-2.78-3.55-6.66-5.47-11.1-4.65-3.89,.82-7.49,3.55-8.05,7.65-1.11,6.29-.83,15.04-7.24,18.23-1.78,.47-3.57,.91-5.38,1.3-.43,.16-1.26,.43-1.82-.11-2.5-4.1-5.83-7.38-10.55-7.93-6.38-.55-10.27,6.02-12.77,10.94-1.55,2.96-9.89,.01-14.03,.25-22.68-1.32-43.56-7.85-62.3-18.57-.28,0-.56,.27-.56,.55,5.27-4.1,13.32-8.2,11.1-16.4-1.39-5.19-6.66-8.2-11.93-7.11-3.61,.82-5.83,4.37-9.44,4.92-3.61,.27-7.22-1.64-11.1-1.91-5.27-.55-9.16-4.65-11.38-9.57,1.67,5.19,5.83,9.02,11.1,9.57,3.61,.55,7.22,2.19,10.55,1.91,5.27-.27,9.44-6.83,15.54-4.65,4.16,1.64,7.49,5.47,6.94,10.12-1.11,8.48-9.71,12.03-16.65,16.13-4.16,2.46-9.16-2.46-12.21-2.46-15.82-.55-31.36-12.03-34.69-27.07-1.11-5.19,0-10.12-1.11-15.31-.83-3.55,1.67-6.56,2.64-9.9-11.32-20.16-17.97-43.02-17.93-67.63,.02-36.12,14.04-68.85,37.2-93.51,.84-.66,.84-1.75,.56-2.57-1.67-4.37-1.39-9.3,.56-13.67,3.05-6.29,2.5-13.94,6.94-19.96,6.94-9.57,20.26-7.66,30.25-4.92,1.39,.55,3.05-.27,4.44,0,4.16,.55,7.22,3.01,9.04,6.3,.08,0,.54-.16,1.4-.48,53.4-21.08,121.21-3.01,156.09,40.11,2.78,.82,5.55-1.1,8.33-.27,3.89,1.09,7.77,1.91,11.66,3.28,15.27,5.19,22.48,22.42,17.76,37.18-1.11,3.01-1.39,6.56-3.05,9.57-7.24,11.2-22.82,2.57-19.15-9.3,2.22-6.56,4.16-14.76-2.78-19.14,7.22,4.92,4.44,13.12,2.5,20.23-1.94,7.38,5.55,15.31,13.6,13.12-.56,.27-.28,.55,.01,.94,2.68,10.71,4.05,21.65,4.06,33.07h0Z"/></g><g><circle class="cls-17" cx="630.81" cy="187.94" r="57.87"/><path class="cls-15" d="M688.68,187.94c0,31.96-25.91,57.87-57.87,57.87-76.76-3.05-76.74-112.7,0-115.74,31.96,0,57.87,25.91,57.87,57.87h0Z"/></g><g><circle class="cls-17" cx="532.51" cy="372.81" r="28.93"/><path class="cls-15" d="M510,391c-10.05-12.43-8.11-30.65,4.32-40.69,30.81-22.94,65.26,19.71,36.38,45.01-12.43,10.04-30.65,8.11-40.69-4.32h0Z"/></g><g><g><path class="cls-4" d="M701.35,83.36c-1.28,5.54-4.86,35.91,3.48,38.53,11.09,3.47,19.81,4.76,31.84,4.76,14.29,0,24.72-7.27,37.93-6.22,10.11,.81,2.97-17.11,2.75-25.74-.14-5.66-11.21-34.43-28.36-43.82-15.23-8.34-12.78-17.69-22.06-18.4-15.57-1.19-23.49,41.78-25.6,50.9Z"/><path class="cls-4" d="M732.32,97.44c-.86,3.72-3.26,24.11,2.34,25.86,7.44,2.33,13.3,3.19,21.37,3.19,9.59,0,16.6-4.88,25.46-4.17,6.79,.54,1.99-11.49,1.85-17.28-.09-3.8-7.53-23.11-19.03-29.42-10.22-5.6-8.58-11.88-14.81-12.35-10.45-.8-15.77,28.05-17.18,34.17Z"/></g><g><path class="cls-17" d="M705.86,138.82c12.97,12.96,21.81,14.41,27.46,13.37,12.87-2.35,16.19-18.86,27.46-18.39,6.96,.29,7.5,6.65,20.59,11.7,5.51,2.13,11.86,4.57,18.88,3.34,14.67-2.57,18.12-18.75,27.46-18.39,4.07,.16,9.43,3.45,15.45,16.72"/><path class="cls-15" d="M705.86,138.82c12.97,12.96,21.81,14.41,27.46,13.37,12.87-2.35,16.19-18.86,27.46-18.39,6.96,.29,7.5,6.65,20.59,11.7,5.51,2.13,11.86,4.57,18.88,3.34,14.67-2.57,18.12-18.75,27.46-18.39,4.07,.16,9.43,3.45,15.45,16.72"/></g><g><path class="cls-17" d="M711.36,163.54c8.13,6.48,13.67,7.2,17.21,6.69,8.07-1.18,10.14-9.43,17.21-9.19,4.36,.14,4.7,3.33,12.9,5.85,3.45,1.06,7.43,2.29,11.83,1.67,9.19-1.29,11.35-9.37,17.21-9.19,2.55,.08,5.91,1.73,9.68,8.36"/><path class="cls-15" d="M711.36,163.54c8.13,6.48,13.67,7.2,17.21,6.69,8.07-1.18,10.14-9.43,17.21-9.19,4.36,.15,4.7,3.33,12.9,5.85,3.45,1.06,7.43,2.29,11.83,1.67,9.19-1.29,11.35-9.37,17.21-9.19,2.55,.08,5.91,1.73,9.68,8.36"/></g><g><path class="cls-17" d="M715.08,185.86c7.43,7.59,12.49,8.44,15.72,7.83,7.37-1.38,9.27-11.04,15.72-10.77,3.98,.17,4.29,3.9,11.79,6.85,3.16,1.24,6.79,2.68,10.81,1.96,8.4-1.51,10.37-10.98,15.72-10.77,2.33,.09,5.4,2.02,8.84,9.79"/><path class="cls-15" d="M715.08,185.86c7.43,7.59,12.49,8.44,15.72,7.83,7.37-1.38,9.27-11.04,15.72-10.77,3.98,.17,4.29,3.9,11.79,6.85,3.16,1.24,6.79,2.68,10.81,1.96,8.4-1.51,10.37-10.98,15.72-10.77,2.33,.09,5.4,2.02,8.84,9.79"/></g></g><g><path class="cls-4" d="M748.45,260.95c-1.28,5.54-4.86,35.91,3.48,38.53,11.09,3.47,19.81,4.76,31.84,4.76,14.29,0,24.72-7.27,37.93-6.22,10.11,.81,2.97-17.11,2.75-25.74-.14-5.66-11.21-34.43-28.36-43.82-15.23-8.34-12.78-17.69-22.06-18.4-15.57-1.19-23.49,41.78-25.6,50.9Z"/><path class="cls-4" d="M779.43,275.03c-.86,3.72-3.26,24.11,2.34,25.86,7.44,2.33,13.3,3.19,21.37,3.19,9.59,0,16.6-4.88,25.46-4.17,6.79,.54,1.99-11.49,1.85-17.28-.09-3.8-7.53-23.11-19.03-29.42-10.22-5.6-8.58-11.88-14.81-12.35-10.45-.8-15.77,28.05-17.18,34.17Z"/><g><path class="cls-17" d="M745.52,333.9c12.97,12.96,21.81,14.41,27.46,13.37,12.87-2.35,16.19-18.86,27.46-18.39,6.96,.29,7.5,6.65,20.59,11.7,5.51,2.13,11.86,4.57,18.88,3.34,14.67-2.57,18.12-18.75,27.46-18.39,4.07,.16,9.43,3.45,15.45,16.72"/><path class="cls-15" d="M745.52,333.9c12.97,12.96,21.81,14.41,27.46,13.37,12.87-2.35,16.19-18.86,27.46-18.39,6.96,.29,7.5,6.65,20.59,11.7,5.51,2.12,11.86,4.57,18.88,3.34,14.67-2.57,18.12-18.75,27.46-18.39,4.07,.16,9.43,3.45,15.45,16.72"/></g><g><path class="cls-17" d="M751.02,358.63c8.13,6.48,13.67,7.2,17.21,6.69,8.07-1.18,10.14-9.43,17.21-9.19,4.36,.14,4.7,3.33,12.9,5.85,3.45,1.06,7.43,2.29,11.83,1.67,9.19-1.29,11.35-9.37,17.21-9.19,2.55,.08,5.91,1.73,9.68,8.36"/><path class="cls-15" d="M751.02,358.63c8.13,6.48,13.67,7.2,17.21,6.69,8.07-1.18,10.14-9.43,17.21-9.19,4.36,.14,4.7,3.33,12.9,5.85,3.45,1.06,7.43,2.29,11.83,1.67,9.19-1.29,11.35-9.37,17.21-9.19,2.55,.08,5.91,1.73,9.68,8.36"/></g></g><g><path class="cls-17" d="M754.74,380.94c7.43,7.59,12.49,8.44,15.72,7.83,7.37-1.38,9.27-11.04,15.72-10.77,3.98,.17,4.29,3.9,11.79,6.85,3.16,1.24,6.79,2.68,10.81,1.96,8.4-1.51,10.37-10.98,15.72-10.77,2.33,.09,5.4,2.02,8.84,9.79"/><path class="cls-15" d="M754.74,380.94c7.43,7.59,12.49,8.44,15.72,7.83,7.37-1.38,9.27-11.04,15.72-10.77,3.98,.17,4.29,3.9,11.79,6.85,3.16,1.24,6.79,2.68,10.81,1.96,8.4-1.51,10.37-10.98,15.72-10.77,2.33,.09,5.4,2.02,8.84,9.79"/></g><path class="cls-3" d="M747.43,342.22c16.62-16.99,18.23-7.84-7.32-25.72-8.54-5.98-12.51-17.75-22.24-15.16-2.17,.58-11.49,8.23-15.15,15.92-3.66,7.7,14.26,20.4,15.46,32.74,1.99,20.48,3.73,23.25,9.37,20.55,5.34-2.56-3.09-4.86,19.88-28.34Z"/><path class="cls-9" d="M851.31,401.57c-7.55-11.7-29.14-23.15-50.97-44.57-16.52-16.2-38.39-33.18-52.18-36.34-1.87-.43-4.31-.72-9.23,2.89-7.2,5.29-7.56,10.01-11.2,14.98-6.25,8.51-5.7,7.13-14.49,16.86-4.43,4.91-3.89,8.15-8.62,12.53s-2.06,24.1-.77,27.25c2.34,5.66,3.38-12.5,41.89,13.73,62.74,42.74,66.83,38.69,77.56,42.67,4.99,1.85,17.69,4.83,19.65-.03,1.97-4.89,4.3-8.83,5.59-10.72,4.15-6.11,6.77-9.33,11.17-14.94,3.28-4.18-.05-11.38-8.4-24.32Z"/><path class="cls-4" d="M841.66,426.24c-12.48,17.38-2.8,49.52-13.3,89.86-7.94,30.52-9.21,67.37,5.53,84.58,2,2.34,5.16,5.17,20.19,7.53,22.01,3.46,32.28,.07,48.15,0,27.18-.13,23.48,.4,57.07,2.01,16.95,.81,21.73-.48,35.65,4.71,14.03,5.23,15.63,4.94,20.12,1.05,8.07-7.01,9.71-21.1,4.42-83.06-8.61-100.94-23.25-102.08-31.6-116.69-3.88-6.8-17.3-22.71-30.35-20.92s-24.84,2.45-30.71,2.59c-18.98,.44-29.65,.22-48,0-13.67-.16-23.37,9.12-37.17,28.34Z"/><path class="cls-4" d="M908.63,539.87c-15.52-12.81-19.51-24.06-27.72-5.86-2.74,6.08,5.41-.18,9.14,7.07,.83,1.61-11.89,21.09,13.8,32.9,6.31,2.9,2.68,2.9,11.45,2.44,14.55-.77,20.77-16.7,17.74-20.95-2.87-4.02-2.96,2.11-24.41-15.59Z"/><path class="cls-12" d="M963.33,414.71c-11.57,7.87-22.61,29.83-43.63,52.28-15.9,16.98-32.47,39.37-35.36,53.28-.39,1.89-.63,4.34,3.08,9.19,5.44,7.09,10.18,7.33,15.23,10.86,8.65,6.05,7.25,5.54,17.18,14.11,5.01,4.32,7.09,4.61,9.21,10.94,2.14,6.38,2.78,6.56,5.91,5.18,5.63-2.49,12.33-10.79,37.84-50.09,41.56-64.03,37.43-68.04,41.2-78.91,1.75-5.06,4.49-17.87-.43-19.71s-8.94-4.1-10.85-5.34c-6.2-4.01-9.48-6.56-15.19-10.83-4.25-3.18-11.4,.34-24.19,9.04Z"/><path class="cls-4" d="M824.72,290.11c-7.03,14.22,7.14,24.45-1.37,51.8-7.77,24.98-10.55,38.59-6.8,51.33,3.26,11.04,8.6,13.84,41.02,23.18,20.81,5.99,40.49,7.28,72.44,8.88,23.47,1.17,44.52,2.23,69.74-6.32,11.73-3.97,31.21-10.85,42.39-27.8,4.52-6.86,2.29-7.19,8.2-17.69,12.38-21.98,24.39-24.51,24.61-36.64,.17-9.25-6.59-19.31-13.67-20.22-9.42-1.2-12.01,7.9-19.53,6.3-6.77-1.44-11.39-8.91-13.29-15.14-13.39-43.95-182.4-60.89-203.75-17.69Z"/><path class="cls-1" d="M911.86,333.05c9.22-20.54,29.05-34.13,49.9-34.34,31.36-.31,60.34,29.7,53.6,58.37-5.14,21.86-29.78,37.6-53.6,36.05-28.45-1.85-52.95-28.17-49.9-60.09Z"/><path class="cls-16" d="M802.51,323.82c8.06-19.43,25.39-32.29,43.61-32.48,27.41-.29,52.73,28.09,46.84,55.22-4.49,20.68-26.02,35.57-46.84,34.11-24.86-1.75-46.27-26.65-43.61-56.84Z"/><path class="cls-4" d="M802.5,324.63c7.64-18.14,24.06-30.15,41.33-30.33,25.97-.27,49.97,26.23,44.39,51.55-4.26,19.3-24.66,33.21-44.39,31.84-23.56-1.63-43.85-24.88-41.33-53.07Z"/><path class="cls-4" d="M910.88,336.57c8.78-19.34,24.4-35.69,44.26-35.88,29.87-.29,60.74,31.51,54.32,58.51-4.89,20.58-28.36,35.4-51.05,33.95-27.09-1.74-50.43-26.52-47.53-56.58Z"/><line class="cls-5" x1="892.96" y1="346.56" x2="912.14" y2="346.14"/><line class="cls-4" x1="1014.19" y1="347.29" x2="1049.89" y2="324.82"/><path class="cls-13" d="M873.79,231.16c-7.14,1.66-29.1,12.35-37.95,25.11-3.01,4.34-37.68,44.72-21.76,46.91,6.88,.95,15.38,5.36,37.65,2.84,7.31-.83,9.01-21.67,11.28-17.53,2.78,5.07-6.41,19.46-2.05,21.32,16.5,7.07,35.81,7.48,45.64,11.37,3.59,1.42,1.54-16.11,2.56-28.43,.95-11.43-3.41,24.7,11.28,27.96,18.48,4.09,20.23,6.66,40.08,4.63,2.27-.23,1.41-28.72,1.97-25.01,1.44,9.59-1.7,26.51,8.2,26.2,19.49-.61,69.59-.8,76.05-2.96,11.81-3.94,19.63-8.75,20.47-13.59,3.02-17.47-53.74-53.51-77.97-66.84,0,0-60.92-24.72-115.46-12Z"/><path class="cls-11" d="M849.23,238.87c2.78,6.4,14.83,4.2,47.86,10.11,10.35,1.85,25.9,4.63,42.39,10.11,28,9.3,47.85,22.78,58.8,30.32,6.82,4.7,21.98,15.63,39.66,30.32,18.28,15.2,22.06,20.13,27.35,18.95,12.5-2.79,17.79-36.23,10.94-63.18-1.39-5.46-7.3-26.51-27.35-45.49-16.82-15.92-34.67-21.95-51.96-27.8-11.37-3.84-33.48-11.09-62.9-10.11-14.27,.48-32.7,1.29-51.96,11.37-16.85,8.82-36.86,26.07-32.82,35.38Z"/><line class="cls-4" x1="672.05" y1="264.65" x2="719.07" y2="312.37"/><path class="cls-4" d="M1036.74,399.22c6.99-27.85,64.16-61.59,27.5-78.4-9.42-1.2-18.09,5.06-28.72,18.03"/><ellipse class="cls-4" cx="900.65" cy="399.22" rx="12.18" ry="29.83" transform="translate(346.44 1213.71) rotate(-79.67)"/><g><rect class="cls-4" x="539.19" y="643.03" width="500.43" height="174.79"/><polygon class="cls-4" points="1163.57 701.49 1041.88 820.79 1040.37 643.03 1162.17 518.43 1163.57 701.49"/><polygon class="cls-4" points="1040.37 643.03 539.19 643.03 660.99 518.43 1162.17 518.43 1040.37 643.03"/></g></g></g></svg>