<svg xmlns="http://www.w3.org/2000/svg" viewBox="0 0 452.82 525.87"><defs><style>.cls-1{fill:#897752;}.cls-2{fill:#f5cd50;}.cls-3,.cls-5{opacity:0.55;}.cls-4,.cls-5{fill:#e59f13;}.cls-6{fill:#a0b06c;}.cls-7{fill:#fbd2a7;}.cls-8{fill:#b2996d;}.cls-9{fill:#dfb04c;}.cls-10{fill:#bddaa1;}.cls-11{fill:#f0d351;}.cls-12{fill:#634932;}.cls-13{fill:#ff7a43;}</style></defs><g id="圖層_2" data-name="圖層 2"><g id="圖層_1-2" data-name="圖層 1"><path class="cls-1" d="M271.93,454.51c-5.53-10-13.27-37.28-20-38.07-29.65,11.17-24.56,10.4-28,12.4-10,5.75-.4,18.54,5.1,28.41,3.49,6.28,6.17,8,15.88,18.71C252,483.78,263,486,267.35,485,278.08,482.34,273.43,457.23,271.93,454.51Z"/><path class="cls-2" d="M237.8,214.29c-1.08,4.23.46,9.55,3.54,12.91,3.48,3.81,8.1,4.22,13.21,5.06,23.5,3.87,28.54,12.13,37.27,8.1,2.73-1.25,5-4.6,9.64-11.29,7.63-11.09,7.76-15.84,13.54-24.2,4.54-6.58,9.05-10.29,15.33-15.45,12-9.88,18.81-15.46,29.63-16,11.12-.59,20.07,4.45,22.38,5.78,9.13,5.29,13,12.14,13.26,12,.64-.49-24.29-49.1-53.08-50.11-13.29-.46-24.59,9.32-29.08,13.21-11.36,9.84-8.33,15.34-19.82,26.58-11.11,10.86-25.29,16.82-32.46,19.84C248.11,206.11,239.62,207.16,237.8,214.29Z"/><g class="cls-3"><path class="cls-4" d="M432.05,133.82c-.61-.56-7.88-2.26-13.49.84-3,1.25-7.51,4.55-13.56,9-4.58,3.31-8,5.42-12.37,8.16-4.94,2.94-6.43,2.42-8.82,3.41a25.64,25.64,0,0,1-8,1.67c-2.72-.46-3.08.33-3.6.28-1.44-.37-1.38,2.11-2.75.84-1.19-1.18-1-4.27-.85-4.82s2.61.31,2.58.12c-.21-.54,2.69.51,4.25.66,1.82-.6-1.46,1.38,10.1-2.1,2.82-1.29,5.47-2,9.13-4.74,3.35-2.54,5.27-3.38,7.65-5.1,3.35-2.33,3.59-2.6,10.58-7.27,3.35-2.05,5.21-3.56,7.83-4.44,2.14-.83,5.81-.59,6-.34.3-.16,6.05,1.37,6.36,2.16.28.33-1-.21-.61.21.36.12,4.8,3.78,3.19,3.12A17,17,0,0,0,432.05,133.82Z"/></g><g class="cls-3"><path class="cls-4" d="M448.84,160.46c-.61-.56-7.87-2.26-13.48.84-3,1.25-7.52,4.55-13.57,9-4.57,3.31-8,5.42-12.36,8.16-4.95,2.94-6.44,2.43-8.83,3.41a25.64,25.64,0,0,1-8,1.67c-2.72-.46-3.08.34-3.6.29-1.44-.37-1.38,2.1-2.75.83-1.19-1.18-1-4.27-.85-4.82s2.62.31,2.58.12c-.21-.54,2.69.51,4.25.67,1.82-.61-1.46,1.37,10.1-2.11,2.82-1.29,5.47-2,9.13-4.74,3.35-2.53,5.27-3.38,7.65-5.1,3.35-2.32,3.59-2.6,10.58-7.27,3.35-2,5.21-3.56,7.83-4.44,2.14-.83,5.81-.59,6-.33.3-.17,6.05,1.36,6.36,2.16.28.32-1-.22-.61.2.36.12,4.8,3.78,3.19,3.13A17,17,0,0,0,448.84,160.46Z"/></g><g class="cls-3"><path class="cls-4" d="M444,145.73c-.61-.56-7.88-2.26-13.49.84-3,1.25-7.51,4.55-13.56,9-4.58,3.31-8,5.41-12.37,8.15-4.94,2.95-6.43,2.43-8.82,3.41a25.27,25.27,0,0,1-8,1.67c-2.72-.46-3.08.34-3.6.29-1.44-.37-1.38,2.1-2.75.83-1.2-1.18-1-4.27-.85-4.82s2.61.31,2.58.13c-.21-.54,2.69.5,4.25.66,1.82-.61-1.46,1.37,10.1-2.11,2.82-1.29,5.47-2,9.13-4.74,3.35-2.53,5.26-3.38,7.65-5.1,3.35-2.32,3.59-2.6,10.58-7.26,3.35-2,5.21-3.57,7.83-4.45,2.14-.83,5.81-.59,6-.33.29-.16,6.05,1.36,6.36,2.16.28.32-1-.21-.61.2.36.12,4.8,3.78,3.19,3.13A17,17,0,0,0,444,145.73Z"/></g><path class="cls-5" d="M309.33,200.11c-2.61-2.3-4.13-4.69-5.13-5.63a25.71,25.71,0,0,1-5.09-7.81c-.81-2-2.13-5.83-3-7.58-.62-1.34,1.35-.57,1.62-3.44,1.8.1,2.24-6.41,2.72-5.33a119.23,119.23,0,0,1,5.37,13.27c3.36,9.36,1.94,4.76,3.51,9.57s9.6,17.83,2.45,9.67c-1.87-2.12-1.34-1.61-1-1.28Z"/><path class="cls-6" d="M96.66,274.74c-11.19,3.24-14-.85-25.37-6.71-13.3-6.85-8.84-9.75-23.06-23.95-12-12-14-21.2-23.63-33.65-12-15.57-13.8-18.7-15-26.59-.77-5-4.1-6.33-4.82-8.28s-1.94-1.23-4-7.79c-1.66-5.27-.61-5.07,2.88-6.87,5.17-2.66,1.85,0,14.62-5.36,4.15-1.75,13.47-3.12,17.52-3.61,2.62-.31,3.41,3.66,13,5.15,6.73,1.06,11.74,11.83,16.56,20.67,6.33,11.59,14,29.29,16,32.6,5.66,9.56,9.55,9.58,21.22,32.7,3.51,7,9.58,10.95,8.31,16.39C108.89,267.69,104.28,272.52,96.66,274.74Z"/><path class="cls-7" d="M19.43,158.54C8.52,165.54,5.24,172.6,1,159.82c-1.42-4.26,3.53.63,6.4-3.81.64-1-6.5-15,11-20.42,4.3-1.32,1.93-1.66,7.63-.54,9.46,1.87,12.57,13,10.33,15.48S34.5,148.86,19.43,158.54Z"/><path class="cls-6" d="M155.37,362.67c.74-2.8,2.72-3,19.8-6.08,17.4-3.12,26.18-4.71,30.4-6,4-1.2,6.59-2.1,11.17.66,15.8,9.53,33.19,34.23,40.6,47.26,7,12.25,8.7,24.55,10.46,29.24,2.05,5.45,4.61,10.71,4.83,13.64l.42,3.23a26.3,26.3,0,0,1-1.4,4.35c-.57,1.79.26.71-.66,2.56-1.46,2.9-1.27,1.18-4.65,3.12-6,3.46,5.56-1.57-11.56,4.09a31.56,31.56,0,0,1-8.91,1.84l-8.25-1s-5.07,1.13-7.86-1.57c-21.74-21.05-31.91-30-46.37-48.82C156.41,374.08,154.29,366.73,155.37,362.67Z"/><path class="cls-6" d="M100.66,357.27c6,1.08.41-1.63,21.17.47,25.52,2.58,25.54,1.42,31.53.94,6.83-.55,9.57,1.13,11.77,3.29,5.45,5.38-3.94,26.52-2.59,36.47,1.47,10.81,1.42,23.49-3.95,40.94-1.52,4.94-6,19.4-3.11,28.16,1.73,5.34,3.26,5.64,4.11,9.12.62,2.58-2.94-.39-6.32-.75s-2.16-.27-6-.53c-4.41-.29-15.94-.29-23.05,0-3.67.15-9,.77-10,1.36a9.35,9.35,0,0,1-6.89.41c-3.79-1.68-3-.71-2.11-4.94,1.41-6.79-3.32-14.59-5.65-17.12-4.06-4.41-3.88-5.82-6.94-15.92-1.71-5.63-3.39-11.27-5.12-19.31-3.38-15.71.11-33.87-3.76-49.42-2.9-11.63.54-9.57,4.23-12.7C90.2,355.83,97,356.61,100.66,357.27Z"/><path class="cls-1" d="M111.21,474.94c11.86-2.5,36.21-19.95,42.14-16.46,16.42,27.11,12.84,23.37,14.31,27.1,4.23,10.73-11.94,15.1-22.88,19.64-7,2.88-20.85,8.94-37.16,15.49-10.27,4.12-14.48,1.54-18.4-.72C77.69,513.32,108,475.61,111.21,474.94Z"/><path class="cls-8" d="M106.94,485.26c-3.37,1.09-21.65,9.14-22.49,16-.55,4.48-3,23.84.93,24.24,8,.79,10.71.72,20.54-2.79,7.73-2.77,15.23-7.61,30.91-15.2,5.12-2.49-1.12-9.91-4.35-13.08C123.51,485.59,110.05,484.26,106.94,485.26Z"/><path class="cls-7" d="M261.86,213a78.64,78.64,0,0,1-25.63,18.64c-14.83,6.47-27.71,5.25-47.36,3.39-16.84-1.59-17.64.37-33.39.31-9.3,0-16.22.88-27,2.12a114.69,114.69,0,0,1-23.12.52c-13.27-1.09-24.74-8.82-29.87-20.74-1.85-4.29-5.12-11.88-3.88-21.18,1.69-12.68,9.94-14.73,11.64-29.65.5-4.37,1.21-10.56-1.55-16.94-2.14-5-4.6-5.92-4.66-9.32-.11-6.48,8.49-13.91,14.76-12.7,2.68.52,9.68-1,11.8-.37,0,0,4.12,1,6.35,1.65,13.2,4,3.32-.48,12,1,6.09,1,4.15,2,7.47,1.59s6.7-.33,12-2.47c8.49-3.43,11.69-1.81,18.53-4.94,4.91-2.25,9.9,3.2,15.71.15,7-3.68,8.67,4.58,15.35.91,4.92-2.71,15.15-1.21,17.27-1.76,3.47-.9,6.12,11.52,14.32,10.76,6.47-.61,15.51,3.53,20.62,3.64s8.44,30.66,14.76,30.5c1.28,0,3-1.34,3.95-2.21,2.9-2.75,2.67-6.14,3.81-6.26,1.78-.2,1.88,8,7,13.55,4.84,5.27,9.55,3.18,10.87,6.78,1.16,3.15-1.7,6.79-14,22.87C261.94,212.86,262.14,212.64,261.86,213Z"/><path class="cls-9" d="M178.89,151.07c8.79-3.8,24.83,21.27,29.51,17.79,2.77-2.07-.72-12.47,0-12.71,1.44-.48,11.33,42.84,20.19,42.36,7.56-.41,10.56-32.56,16.3-32.19,5.22.34,5.56,27,12.43,28,5.82.79,12.17-17.46,13.2-16.94,1.34.67-9.3,31.35-9.32,31.34s5.58-29.82,17.86-32.19c12.54-2.41,24.91,25.17,30.29,22,3.15-1.84,1.21-12.66-.48-22.09-2.77-15.43-7.31-25.77-6.51-26.2,1.36-.72,14.78,29.25,17.86,28,3.92-1.64-14.94-51.38-4.66-58.45,7.74-5.33,28.06,16.23,29.51,14.4,2.2-2.77-48.2-47.46-41.93-59.3,4.56-8.64,37.66,3.3,38.05,1.69.56-2.38-74.09-21-73-33.88.71-8.43,33.64-11.31,33.39-13.55-.43-3.85-96.87,11.05-100.95-5.09-2-8.12,20-21.27,18.64-23.71-2.37-4.16-63.49,38.59-74.55,25.41-4.44-5.3,17.32-5.58,2.13-8.4-31.15-5.79-43.53,39.47-55.2,44.21C78.09,67,76.37,34.16,72.24,35.65c-5.52,2-17,33-11.39,57C61.65,96,48.59,90.35,44,87.18c-5-3.44,2.41,18.24,11.42,36.78,1.78,3.67-16.87,21-15.65,22.86,1.43,2.18,19.76,0,32.73-5.92,6.2-2.83.09,8.39-8,15.45-5.11,4.45,30.92-2.73,33.53-14.47,1.41-6.35-5.47,12,11.29,27.18,7.42,6.7-1.13-29.71,13.69-34.93,6.21-2.19,8.21,29,12.42,28.8,4.54-.21.54-37.24,4.46-33.12,31.91,33.6,20.26,47.37,24.24,47S169.82,155,178.89,151.07Z"/><path class="cls-10" d="M91,262.22c-12.48,11.73-2.8,33.42-13.3,60.65-7.93,20.6-9.2,45.48,5.54,57.1,2,1.57,5.16,3.48,20.19,5.08,22,2.33,32.28.05,48.14,0,27.18-.09,23.48.27,57.08,1.35,16.95.55,21.73-.32,35.64,3.18s15.64,3.33,20.12.7c8.07-4.73,9.71-14.24,4.42-56.06-8.61-68.13-23.25-68.9-31.6-78.76-3.88-4.59-17.3-15.33-30.35-14.12s-24.84,1.66-30.7,1.75c-19,.3-29.66.15-48,0C114.55,243,104.84,249.25,91,262.22Z"/><path class="cls-11" d="M246.56,124.73c-9.07.43-14.81,22.07-19.8,20.34-1.64-.57-1.28-3-4.14-9.18-3.39-7.33-8-12.91-8.81-12.43s2.24,6.93,1.56,7.35c-1.08.64-9.7-14.54-10.36-14.12s7,12.44,4.92,14.68c-4,4.34-41.85-30.93-44.26-27.95-.56.69,1.44,2.7,2.59,7.62s1.56,13.15-1,15c-6.56,4.6-29.69-33.89-41.67-28.52-8.11,3.63-6.55,25.28-10.36,25.41-2.29.08-2.15-14.27-6-15-2.1-.38-4.16,3.55-5.69,5.93C94.91,127.31,76,134.23,72.22,130.24s5.48-23,16-35.58a85.3,85.3,0,0,1,23-18.92,106.51,106.51,0,0,1,39.86-13.83,118.89,118.89,0,0,1,44.53,1.41,127.35,127.35,0,0,1,35.2,14.12c7.22,4.2,13.78,8.1,20.71,15.81a77.4,77.4,0,0,1,13.2,20.9c4.66,10.81,5.68,19.71,6.73,28.8.84,7.33,1.71,14.9,0,15.53C267.72,159.87,258.35,124.18,246.56,124.73Z"/><path class="cls-6" d="M260.05,279.54c11.65-.21,13.11-4.94,22.25-13.9,10.69-10.47,8.83-9.59,18.22-27.35a299.71,299.71,0,0,0,17.72-39.54c6.88-18.43,8.47-27.74,4.19-32.19-3.5-3.63-.41-5.33-.3-7.4s-.66-2.07,4.16-7c3.78-3.85-8.65-5.72-11-8.87-8.78-11.77-13.75-14.94-27.54-16.32-4.48-.44,2.83-2.26-1.27,1.4-2,1.75-8.07-.85-15.36,18-4.62,11.93-5.95,20.69-7.76,30.6-4.47,24.42-8.28,15.27-18.84,46.68-3.55,10.53,1.88-8.14-6,28.91-1.61,7.63.65,11.69,3.47,16.51C246.29,276.41,252.11,279.68,260.05,279.54Z"/><path class="cls-7" d="M311,147.35c10.32,7.85,13,15.14,18.3,2.75,1.76-4.15-3.56.34-6.07-4.31-.56-1,7.67-14.47-9.35-21.22-4.18-1.67-1.79-1.82-7.56-1.15-9.57,1.12-13.55,11.93-11.52,14.61S296.75,136.51,311,147.35Z"/><path class="cls-2" d="M78.12,248.34c8-8.2,28.75-19,40.72-21.12,10.11-1.82,23.48.6,40.79,2.82,13.11,1.69,11.28.87,23.43,4.07,13.69,3.6,23.28.78,30.5-1,15.38-3.74,22.74-6.78,22.74-6.78,12.85-8,16.39-2.87,16.75,2.53.39,5.59-5.35,8.76-1.78,13.05,2.77,3.32,16.82-2.62,15.37,8.31-1.42,10.66-1.42,10.66-1.53,11.88-.62,7-11.81,15.81-15.68,11.13-4.61-5.58-14.54-3.13-32.73,2.19-8.36,2.45-30,3.65-41,6.4-13.63,3.4-14.71,1.44-21.51.17-7.16-1.34-1.32-2.88-21.34-4.26-9.58-.66,4.49.37-22.46-.58C104.24,277,85.28,284,85.06,282c-.33-3,15.72-9.76,15.33-12.64-.35-2.61-21.72,10.34-23.19,1.45-.5-3,8.64-8.17,15-14.94C96.63,251.22,71.93,254.64,78.12,248.34Z"/><path class="cls-5" d="M134.25,268.15c.83-.33,10.35-1.29,17.67-1.84,3.9-.3,9.92-1.53,17.7-1.34,5.87.14,10.11,1.14,15.76,1.17,6.37,0,8.07,1.48,11.21,1.1a49.87,49.87,0,0,0,10.66-2.32c3.58-.49,4.34-2.42,5.05-2.68,2-.72,2.49-4.65,4.19-4.24,1.49.36.43,5.55.09,6.65-.42,1.33-3.79,2.73-3.77,2.86.15.78-3.73,1.73-5.78,1.95-2.38.27,1.8.57-13.37,2.3-3.7.42-6.95-.67-11.74-.21-4.38.41-6.69-.65-9.75-.74-4.3-.13-4.54-.6-13.62-.23-4.34.18-6.92,1.35-10.32,1.55a37,37,0,0,1-7.69-.37c-.33-.31-7.84.29-8.2,0s1.35-.56.92-.89-6.1-.57-3.88-1.5C130.91,268.72,132.91,268.68,134.25,268.15Z"/><path class="cls-5" d="M80.67,251.18c8.27-4.27,11-4.06,17.4-1.94,5.5,1.81,42.42-7.78,41.81-4.74-1.17,5.79-25.69,8.88-29.53,9.25-6.93.68-2.38-.06-5.38-.14C97,253.41,78.38,252.36,80.67,251.18Z"/><path class="cls-5" d="M241.52,251.62a10.78,10.78,0,0,1,2.37-10.92c4-4.14,4.87-16.25,7.33-14.37,4.7,3.58,3.45,1.69,2.11,5.31-2.43,6.53-1.1,2.12-2.48,4.77C247.16,243.5,241.58,254.2,241.52,251.62Z"/><path class="cls-5" d="M147.24,244.34c8.21-3.43,28.64-3.43,35.18-3,5.77.41,18.4-2.41,17.79.63-1.17,5.79-13,3.23-16.78,3.61-6.94.68-8.89,1.23-11.88,1.15C163.57,246.56,144.87,245.33,147.24,244.34Z"/><ellipse class="cls-12" cx="110.18" cy="184.25" rx="9.3" ry="15.56" transform="translate(-104.07 197.82) rotate(-62.75)"/><ellipse class="cls-12" cx="200.23" cy="188.18" rx="15.56" ry="9.3" transform="translate(-42.04 58.52) rotate(-15.07)"/><ellipse class="cls-13" cx="153.86" cy="212.65" rx="13.98" ry="7.52"/></g></g></svg>