<svg xmlns="http://www.w3.org/2000/svg" viewBox="0 0 3107.6 3056.9"><defs><style>.cls-1{fill:#5a92ce;}.cls-2{fill:#4a957b;}.cls-3{fill:#fffbfa;opacity:0.42;}</style></defs><g id="圖層_2" data-name="圖層 2"><g id="圖層_1-2" data-name="圖層 1"><path class="cls-1" d="M92.53,1032.13c38-109.39,193.7-537.27,625-778.21,50.38-28.14,87.57-44.27,140.94-67.41C1018.61,117.09,1315.57-7.81,1698,14.94c95.34,5.67,275,18,484.09,110.3,42.07,18.57,167.82,76.8,306.38,190C2650.38,447.45,2740.71,582,2831.59,719.62c101.7,154,166.52,252.22,214.47,392.17,121.75,355.32,31.7,679-6.13,815-87.64,315-252.31,528.9-349.27,637.28-84.18,94.08-256.09,281.85-551.49,398.29-300.08,118.29-558.57,96.34-667.92,85.79-358.27-34.58-605-187.41-753.7-281.87-173-109.89-392-249-545.36-527-136-246.35-151.84-477.55-159.32-606.64C-4.87,1326.54,70.39,1095.88,92.53,1032.13Z"/><path class="cls-2" d="M2254.08,2911.78c-7.57,4,93.89-114.81,61.28-165.44-22.31-34.63-81.64-2.7-153.19-42.9-54.53-30.63-108.61-98.9-104.17-165.44,4.89-73.48,77.85-95.49,67.4-165.45-.41-2.75-8.09-49.81-42.89-67.4-19.14-9.68-37.28-5.8-67.41,0-94.37,18.16-141.91,27.07-159.32,18.38-41.47-20.7-24.79-71.43-67.4-91.92-38.4-18.46-59.82,19-122.55,12.26-59.43-6.35-62.56-42.31-134.81-55.15-36.93-6.56-35.82,2.89-98,0-59.82-2.77-107.76-5-147.07-30.64-45.71-29.82-33.58-61.19-73.53-110.3-75.25-92.48-169.65-44.31-226.72-122.55-49-67.14,10.32-116.63-42.9-214.47-41.25-75.83-88.49-67.45-116.42-140.93-18.62-49-12.42-91.9,0-177.7,17.34-119.87,41.37-117,42.89-190,2.17-104.13-46.67-112-42.89-220.6,2.82-81,31.58-121.56,6.13-147.06-20.88-20.92-61.21-14.68-116.43-6.13-82.32,12.74-104,36.9-122.55,24.51-37.56-25-24.4-173.79,61.27-232.85,93.28-64.3,234,4.29,288,30.64,60.23,29.36,46,37.62,165.45,116.42,133.51,88.09,163.8,86,190,134.81,46.81,87.3-6.36,175.65,30.64,196.09,41.78,23.08,104.87-92.27,208.34-85.79,84.6,5.3,135.29,88.25,153.19,73.53,13.49-11.09-13.77-59.52-49-183.83-20-70.35-19-82.42-12.26-91.91,26.65-37.25,124.72-7.88,232.85,24.51C1963.86,865,2015.09,881,2027.36,914.17c27.07,73.2-95.44,160.74-61.28,220.59,18.48,32.38,64.12,23.9,73.53,55.15,9.84,32.66-35.75,55.93-67.4,110.3-41.9,72-30.94,149.6-12.26,281.87,11.62,82.23,17.42,123.34,42.9,165.45,56.69,93.71,125.49,77.25,147.06,147.06,14.84,48-14.77,65.26-36.76,239-5.64,44.53-8.21,79.07,6.12,85.79,15.81,7.41,34.05-27.54,85.79-55.15,57-30.43,73-8.32,134.81-36.77,64.26-29.58,71.53-64.82,110.3-61.27,35.33,3.23,39.82,33.47,79.66,36.76,38.67,3.2,43.72-24.54,85.78-24.51,0,0,21.8,0,104.17,42.9,251.75-110.23,285.14-84.47,285.14-84.47C2995.51,2110.67,2788.19,2629.48,2254.08,2911.78Z"/><path class="cls-2" d="M1348,33.54c-36.11,7.59,41.73,109.74,107.4,135.68,98.42,38.88,157.63-58.25,275.74-30.64,29.09,6.8,89.24,53.65,208.34,147.07,107.77,84.52,118,98.36,147.07,98,100.65-1.11,148.7-168.43,220.59-153.19,35.39,7.5,32.1,49.81,85.79,85.78,67.53,45.26,162.21,73.93,165.45,60.17C2558.41,376.45,2141.73-133.29,1348,33.54Z"/><path class="cls-3" d="M698.43,307.28c4.53,34,63.72,63.41,110.3,61.28,39.93-1.83,47.36-25.76,110.3-55.15,38.42-17.94,116.18-54.25,171.58-24.51,31,16.65,21.77,36.17,61.27,67.4,43.65,34.52,71.57,23.84,122.55,49,9.59,4.74,100.62,49.7,110.3,116.43,9.19,63.31-64.73,78-110.3,196.09-10.56,27.36-40.27,107.32-18.38,196.08,16.46,66.72,44.48,67.05,55.15,116.43,28.35,131.15-147.19,231.12-116.42,288,24.82,45.89,173.8,44.92,251.23-30.64,43.33-42.28,53.39-107.85,73.53-239,13.59-88.47,5.93-88.43,18.38-183.83,24.63-188.63,53.43-180.16,55.15-294.13,1.43-94.35-17.7-140.87,18.39-183.83,37.89-45.12,97.17-39.27,98-61.28,1.34-34.19-140.84-72.54-190-85.78-83.21-22.44-116.19-22.24-122.55-42.9-14.61-47.44,139.83-112.22,128.68-147.06-12-37.63-210-17.77-404.43,36.77C978.21,126.81,687.83,227.55,698.43,307.28Z"/><path class="cls-3" d="M2025.12,970.3c1.87,34.26,58.6,68.17,105.21,69.67,39.94,1.28,49.21-22,114.25-46.41,39.69-14.9,120-45.06,173-11.1,29.63,19,18.9,37.75,55.85,72,40.83,37.8,69.49,29.33,118.37,58.4,9.19,5.46,96.45,57.37,100.92,124.65,4.23,63.83-70.61,72.77-125.21,186.91-12.66,26.46-48.5,103.87-33.57,194.07,11.22,67.8,39.13,70.3,45.93,120.36,18.08,133-164.71,219-138.45,278.08,21.18,47.68,169.78,58.3,252.85-11,46.48-38.79,61.62-103.37,91.89-232.54,20.42-87.15,12.78-87.7,32.61-181.85,39.21-186.14,67.27-175.46,77.85-289,8.75-94-6.7-141.82,32.61-181.84,41.29-42,99.94-31.6,102.51-53.47,4-34-134.78-83.27-182.72-100.3-81.21-28.84-114.11-31.2-118.84-52.29-10.88-48.43,148.12-101,139.72-136.61-9.08-38.45-208-34-406.06,5.22C2318.08,812.12,2020.75,890,2025.12,970.3Z"/><path class="cls-3" d="M1837.36,2053.75c-95.16,17.86-101.26,113.1-62.51,211.63,7.47,41.74-204.19-8.08-188.65,52.85,13.91,54.52-181.71,44.31-208.39,46.74-44.93,4.08-100.08,10.21-163.4,14.29-72.05,4.65-73.53-71.49-118.22-56.66-60.72,20.13-133.22,59.42-169.78,87.3-23.32,17.79-72.81-14.41-110.3-16.34-27.84-1.43-92.91-45.57-198.13,18.38-104.17,63.32-63,257.93,138.16,378.66,162.1,97.26,300.48,169.85,408.85,195,173.29,40.25,292.48,100.37,395.13,40.64,29.6-17.22,106.28-117.53,131.69-161.6,43-74.67,51.31-106.6,72.9-107.44,49.61-1.95,72.59,163.94,109.12,162.11C1967.55,2875.78,1975.32,2105.05,1837.36,2053.75Z"/><path class="cls-3" d="M141.33,2133.44c34.25,2.08,74.45-50.38,81.29-96.51,5.86-39.53-16.2-51.41-33-118.82-10.24-41.15-31-124.42,8.84-173.09,22.3-27.25,45.65-85.89,77.9-47.22,47.91,57.44,77.35,148.25,111.85,103,6.48-8.5,84.3-97.29,133.13-161.92,38.57-51,113.72,134.45,194.8,102.51,27.29-10.75,83.65,227.68,175,223.2,68.64-3.36,26.84-292.94,77.35-293.94,134.16-2.68,305.73-56.89,370.39-56.47,300.16,1.91,623.2,84.7,563.89-5.79-33.19-50.63-751.46-93.79-876.29-138.69-84.23-30.3-85.65-22.78-176.9-53.29-180.4-60.34-166.57-87-278.1-110.52-92.32-19.49-141.64-9.64-176.89-53.29-37-45.85-48.85-5.94-70.28-11-33.3-7.87-69.26,27.35-91.68,73-38,77.37-44.1,109.77-65.59,112.06-49.37,5.24-83.33-158.75-119.67-154.5-39.24,4.6-57.7,202.68-41.45,404C17.84,1824.25,61.05,2128.56,141.33,2133.44Z"/></g></g></svg>