<?xml version="1.0" encoding="UTF-8"?><svg id="_層_2" xmlns="http://www.w3.org/2000/svg" viewBox="0 0 1006.74 1707.49"><defs><style>.cls-1{fill:#79009d;}.cls-2{fill:#fff;}.cls-3{fill:#dfe0d3;}.cls-4{fill:#fc0000;}.cls-5{fill:#ff3e33;}.cls-6{fill:#f8ff67;stroke-width:5px;}.cls-6,.cls-7,.cls-8,.cls-9{stroke-miterlimit:10;}.cls-6,.cls-9{stroke:#bf8958;}.cls-10{fill:#8d04a0;}.cls-11,.cls-7{fill:#fdfffc;}.cls-7{stroke-width:1.3px;}.cls-7,.cls-8{stroke:#634932;}.cls-12{fill:#710484;}.cls-13{fill:#fbd2a7;}.cls-14{fill:#a5009a;}.cls-15{fill:#ff4318;}.cls-16{fill:#634932;}.cls-8{fill:none;stroke-width:2.24px;}.cls-17{fill:#d3b94f;}.cls-9{fill:#f2e972;}</style></defs><g id="_層_1-2"><path class="cls-3" d="M1006.74,1178.08c0,111.2-36.06,213.98-97.12,297.28-1.91,2.6-3.84,5.19-5.8,7.76-13.78,16.08-10.78,39.08-17.78,57.08-6,15-27,1-40.25,8.04-2.73,1.45-5.16,3.54-7.56,5.68-86.63,77.24-200.13,124.98-324.74,127.43-1.68,.03-3.37,.06-5.06,.11-3.39,.73-7.39,.73-10.39,1.73-13,6-17,27-31,24-17-4-20-29-40.33-31.55-1.67-.25-3.33-.52-4.99-.79-156.13-25.47-288.13-122.76-360.97-256.85-1.55-2.85-3.07-5.72-4.57-8.61-6.14-15.21-23.14-18.21-36.14-23.21-4-2-8-4-7-8,1-17,15-32,9.58-50.43-.98-3.15-1.93-6.32-2.85-9.5-12.88-44.5-19.78-91.54-19.78-140.19,0-44.27,5.72-87.21,16.45-128.11,.83-3.17,1.68-6.33,2.57-9.53,8.03-22.24,6.03-44.24,.03-67.24,0-4-2-8,1-11,12-9,32-4,38.4-19.76,1.49-2.81,3.01-5.61,4.55-8.39,37.05-66.72,88.83-124.14,150.95-167.87,2.68-1.88,5.38-3.74,8.2-5.63,19.89-9.35,30.89-27.35,44.89-44.35,3-3,7-6,11-6,10,1,19,10,29.39,4.07,3.01-1.27,6.04-2.52,9.08-3.74,57.77-23.11,120.83-35.82,186.86-35.82,22.59,0,44.83,1.49,66.63,4.37,1.71,.19,3.4,.38,5.12,.57,19.93,3.55,36.93-10.45,55.93-15.45,2-1,5-1,7,1,8,13,7,30,24.42,35.17,3.13,1.04,6.24,2.11,9.34,3.21,109.78,38.97,202.03,114.97,261.74,212.96,1.66,2.72,3.29,5.46,5.23,8.2,11.26,15.45,31.26,17.45,47.26,25.45,2,0,6,1,5,5-5,14-21,23-18.79,38.64,.92,3.1,2.07,6.12,3.2,9.14,20.23,54.53,31.29,113.52,31.29,175.1Z"/><g><path class="cls-10" d="M321.29,593.81c.37-96.29,38.42-174.32,90.41-183.83,75.07-13.73,188.33,113.74,166.17,194.04-3.96,14.35-10.49,20.82-12.22,22.47-52.22,49.59-234.51-28.38-244.36-32.68Z"/><path class="cls-12" d="M330.74,656.56c.34-60.52,37.71-69.9,85.91-75.88,69.59-8.63,172.48,31.83,151.94,82.3-3.67,9.02-9.72,13.09-11.33,14.12-48.41,31.17-217.38-17.84-226.52-20.54Z"/><path class="cls-4" d="M351.68,429.74c-.19,.62-25.09-21.42-25.28-20.79,0,0-42.51,126.54-69.58,231.17-27.28,105.47-46.74,180.69-62.44,281.87-17.95,115.67-26.92,173.51-13.88,216.51,46.79,154.21,237.55,249.79,259.02,232.85,7.82-6.17-10.58-24.28-30.07-73.53-40.89-103.32-8.06-145.26-27.75-267.57-15.99-99.34-40.13-87.14-53.19-185.87-8.93-67.5,6.33-219.62,14.54-297.55,5.91-56.1-9.51-58.21,29.64-99.38"/><path class="cls-5" d="M409.42,436.36c-9.43,34.23,35.09,54.91,108.26,155.23,53.39,73.21,87.32,119.74,98.04,185.87,12.95,79.89-23.5,92.67-8.17,171.57,11.53,59.32,32.96,56.4,85.79,163.4,52.81,106.98,48.02,143.6,93.96,171.57,36.33,22.13,90.79,30.57,118.47,6.13,10.27-9.07,14.97-21,20.43-67.4,10.81-91.96,16.21-137.94,0-181.79-16.98-45.93-34.49-43.19-51.06-96-14.52-46.26-3.34-55.55-14.3-93.96-15.19-53.25-41.82-53.39-98.04-132.77-30.56-43.14-18.77-37.56-75.57-128.68-39.34-63.11-37.37-53.56-69.45-106.21-41.77-68.58-43.09-81.46-63.32-91.92-49.01-25.32-133.37,2.65-145.02,44.94Z"/><path class="cls-14" d="M309.61,640.79c-3.43-16.85-4-50.3,18.38-63.32,17.79-10.35,44.74-4.68,55.15,10.21,8.16,11.68,.7,21.23,0,46.98-1.4,51.89,27.38,69.39,14.3,98.04-6.84,14.98-22.56,27.38-32.68,24.51-11.8-3.34-7.09-24.92-22.47-59.23-14.63-32.65-27.72-32.83-32.68-57.19Z"/><path class="cls-1" d="M383.68,640.79c-3.43-16.85-4-50.3,18.38-63.32,17.79-10.35,44.74-4.68,55.15,10.21,8.16,11.68,.7,21.23,0,46.98-1.4,51.89,27.38,69.39,14.3,98.04-6.84,14.98-22.56,27.38-32.68,24.51-11.8-3.34-7.09-24.92-22.47-59.23-14.63-32.65-27.72-32.83-32.68-57.19Z"/><g><path class="cls-11" d="M385.3,426.15c-11.83,3-16.07,6.85-16.25,18.21-.06,13.25,15.25,15.2,12.63,23.5-2.69,9.02-15.21,8.88-14.3,18.61,.87,7.99,6.98,6.75,10.4,17.13,3.97,11.37-14.25,12.21-9.96,27.5,2.32,7.87,11.64,8.1,16.51,12.11,3.82,3.32,5.32,24.89,14.61,24.87,15.23,0,15.62-11.97,12-24.98-.44-1.67,5.92-5.16,9.06-16.28,2.3-7.85-8.93-9.92-10.12-21.43-.61-6.34,10.33-12.71,10.54-19.67,.19-5.98-9.36-12.22-9.9-19.29-.93-14.41,12.1-13.26,13.12-26.05,.68-7.47-3.52-13.81-12.23-14.08-14.78-.46-19.99-1.7-26.11-.15Z"/><path class="cls-7" d="M390.86,426.46c-7.92,2.99-10.96,6.83-11.63,18.18-.63,13.22,9.36,15.17,7.41,23.44-1.97,9-10.15,8.87-9.67,18.57,.52,7.97,4.5,6.74,6.78,17.1,2.71,11.35-9.22,12.19-6,27.44,1.78,7.86,7.89,8.08,11.24,12.08,2.56,3.31,4.74,24.84,10.88,24.81,9.96,0,9.41-11.94,6.51-24.93-.34-1.67,3.63-5.15,5.36-16.24,1.32-7.83-6.1-9.9-6.99-21.39-.45-6.33,6.7-12.68,6.91-19.62,.18-5.97-5.96-12.19-6.12-19.25-.17-14.38,8.32-13.23,9.59-25.99,.82-7.46-1.52-13.78-7.19-14.05-9.63-.46-12.96-1.7-17.06-.15Z"/><path class="cls-7" d="M389.45,445.43c-.18,1.37-1.82,2.49-3.66,2.49-1.84,0-3.19-1.11-3-2.49,.18-1.37,1.84-2.49,3.68-2.49,1.84,0,3.17,1.11,2.99,2.49Z"/><path class="cls-7" d="M387.2,527.53c.11,1.38-1.28,2.5-3.12,2.5-1.84,0-3.43-1.12-3.54-2.5-.11-1.38,1.3-2.5,3.14-2.5,1.84,0,3.41,1.12,3.52,2.5Z"/><path class="cls-7" d="M389.45,486.43c-.04,1.38-1.55,2.5-3.39,2.5-1.84,0-3.31-1.12-3.27-2.5,.04-1.38,1.57-2.5,3.41-2.5,1.84,0,3.29,1.12,3.26,2.5Z"/><path class="cls-7" d="M408.02,486.43c-.04,1.38-1.55,2.5-3.39,2.5-1.84,0-3.31-1.12-3.27-2.5,.04-1.38,1.57-2.5,3.41-2.5,1.84,0,3.29,1.12,3.26,2.5Z"/><path class="cls-7" d="M411.35,445.43c-.18,1.37-1.82,2.49-3.66,2.49-1.84,0-3.19-1.11-3-2.49,.18-1.37,1.83-2.49,3.68-2.49s3.17,1.11,2.99,2.49Z"/><path class="cls-7" d="M409.1,527.53c.11,1.38-1.29,2.5-3.12,2.5-1.84,0-3.43-1.12-3.54-2.5-.11-1.38,1.3-2.5,3.14-2.5,1.84,0,3.41,1.12,3.52,2.5Z"/></g><path class="cls-2" d="M306.83,369.83c-7.66-2.64-18.67,2.06-22.47,10.21-5.12,11,5.16,23.37,6.13,24.51,10.28,12.03,23.43,7.9,28.6,18.38,4.2,8.53-2.62,15.07,2.04,20.43,5.79,6.64,17.43-2.15,30.64,4.08,12.48,5.89,13.65,19.21,18.38,18.38,5.97-1.04,13.18-23.79,4.09-38.81-10.97-18.11-35.44-8.09-51.06-28.6-9.78-12.83-6.68-25.27-16.34-28.6Z"/><path class="cls-17" d="M326.81,248.38c-1,2.25-2.64,11.15-5.49,15.85-.4,.66-.83,1.24-.83,1.24-2.05,2.81-4.44,4.38-6.11,5.26-1.43,.08-3.46,.32-5.84,.04-4.54-.55-12.3-2.22-25.23-6.74-3.97-1.38-17.02-6.52-22.79-20.12-8-18.85,4.23-39.29,6.21-42.47,8.63-13.86,19.89-17.11,18.64-22.35-1.71-7.18-22.86-1.03-31.07-13.41-5.55-8.38-3.32-22.43,2.07-31.29,7.97-13.08,18.96-8.46,31.07-22.35,10.36-11.89,4.93-18.29,14.5-29.06,7.97-8.97,20.51-11.2,45.57-15.65,15.64-2.78,25.02-2.56,33.14,2.24,4.95,2.92,8.35,6.7,8.35,6.7,7.92,8.79,7.16,17.31,10.29,17.89,5.82,1.07,7.62-28.52,24.86-38,7.12-3.92,9.21-.18,35.22,0,25.28,.18,26.59-3.33,35.22,0,19.92,7.69,29.05,32.62,31.07,31.29,1.7-1.12-7.32-17.25-4.14-20.12,3.26-2.94,13.58,13.31,33.14,17.88,14.06,3.29,16.42-3.31,31.07,0,2.87,.65,25.6,6.13,33.14,24.59,4.65,11.37-.58,17.63,4.14,26.82,6.65,12.95,23.28,4.51,31.07,15.65,7.79,11.14-4.48,23.23,2.07,40.24,6.73,17.49,23.11,13.52,29,29.06,6.57,17.33-11.92,27.24-12.43,58.12-.41,24.97,11.52,28.35,8.29,49.18-3.2,20.59-17.93,37.03-33.14,44.71-13.03,6.57-42.78,3.28-47.19-4.46-5.32-9.33,27.65-17.68,24.4-40.25-1.66-11.52-8.18-11.16-18.64-31.29-12.8-24.63-7.87-34.44-16.57-40.24-13.48-8.98-26.9,13.47-60.07,15.65-26.91,1.77-29.55-12.25-55.93-8.94-26.55,3.33-30.25,18.32-49.72,15.65-17.11-2.35-16.59-14.26-43.5-26.82-26.74-12.48-50.68-11.64-53.86-4.47Z"/><path class="cls-13" d="M310.95,257.48c-2.54,9.88,2.01,23-6.13,44.32-6.77,17.73-13.62,18.39-16.34,29.55-6.98,28.65,28.56,63.8,53.11,80.2,27.22,18.19,53.49,21.75,65.36,23.22,37.61,4.66,67.1-5.12,89.87-12.66,36.92-12.24,75.57-33.77,75.57-33.77h0s34.69-15.9,46.98-44.32c5.3-12.24,8.59-31.78,0-40.1-9.06-8.79-23.68,2.37-36.77-6.33-12.22-8.12-11-25.49-14.3-35.88-19.12-60.17-243.87-56.75-257.36-4.22Z"/><path class="cls-9" d="M338.84,244.45c-.91,2.05-6.26,5.66-8.87,9.96-.36,.6-9.35,2.84-9.35,2.84-1.87,2.57-4.06,4.01-5.58,4.81-1.31,.07-3.16,.3-5.33,.03-4.14-.5-11.24-2.03-23.05-6.16-3.63-1.26-15.55-5.96-20.81-18.38-7.3-17.23,3.87-35.9,5.68-38.81,7.88-12.67,18.17-15.64,17.03-20.43-1.56-6.56-20.88-.94-28.38-12.26-5.07-7.65-3.04-20.5,1.89-28.6,7.28-11.96,17.32-7.73,28.38-20.43,9.47-10.87,4.5-16.71,13.24-26.55,7.28-8.2,18.73-10.23,41.62-14.3,14.28-2.54,22.86-2.34,30.27,2.04,4.52,2.67,7.63,6.12,7.63,6.12,7.24,8.03,6.54,15.82,9.4,16.35,5.31,.98,6.96-26.06,22.7-34.72,6.51-3.58,8.41-.17,32.16,0,23.09,.16,24.29-3.04,32.16,0,18.2,7.03,26.54,29.81,28.38,28.6,1.56-1.02-6.69-15.76-3.78-18.38,2.98-2.69,12.4,12.16,30.27,16.34,12.84,3,15-3.03,28.38,0,2.62,.59,23.38,5.6,30.27,22.47,4.24,10.39-.53,16.11,3.78,24.51,6.07,11.83,21.26,4.12,28.38,14.3,7.12,10.18-4.09,21.23,1.89,36.77,6.15,15.98,21.11,12.35,26.49,26.55,6,15.84-10.89,24.89-11.35,53.11-.37,22.82,10.53,25.9,7.57,44.94-2.92,18.82-16.38,33.84-30.27,40.85-11.9,6-30.03,9.12-34.06,2.04-4.86-8.52,16.21-22.27,13.24-42.89-1.51-10.52-17.58,17.51-27.13-.88-11.7-22.51-17.81-8.26-25.76-13.56-12.31-8.2-13.05-27.68-43.35-25.69-24.58,1.62-17.77-22.12-41.87-19.1-24.25,3.04-27.63,16.74-45.41,14.3-15.63-2.15-14.04-13.37-45.85-10.51-26.85,2.41-27.73-21.81-30.64-15.26Z"/><g><path class="cls-15" d="M478.21,96.57c-1.5,7.86,5.84,19.37-17.33,3.76,.01,0-10.46,12.27,1.82,19.1,9.6,8.31,11.28,7.11,19.44,13.28,36.59,27.71,42.95,33.36,109.74,71.61,39.17,22.43,50.46,27.69,53.62,25.25,12.6-9.7-32.27-27.24-19.73-32.76,19.49-8.57,48.75-20.38,63.24-37.59,14.98-17.77,14.17-51.63-.72-66.5-16.7-16.68-55.61-13.96-55.61-13.96,0,0,8.95-3.26,8.91-25.15,0-3.38-4.19-12.91-12.06-18.27-13.7-3.67-19.57-3.46-29.38,2.94-3.65,2.38-10.36,10.27-16.53,8.49-9.21-2.66-6.5-7.68-7.44-9.5-5.94-11.42-1.03-19.7-22.06-30.44-15.7-8.02-35.67-.9-46.74,6.28-.9,.58-18.56,14.93-22.53,39.53-3.28,20.32-4.4,32.22-6.63,43.91Z"/><path class="cls-6" d="M639.75,52.47c-2.21-11.54-12.64-18.02-23.58-18.62-7.84-.43-29.98,7.05-32.58,17.39-1.43,5.68,9.18,15.13,16.1,19.51,20.12,12.73,13.77,11.02,26.86,10.25,14.82-.87,15.9-14.39,13.19-28.53Z"/><path class="cls-2" d="M609.37,56.52c-12.3,4.51-20.58,38.15-38.6,63.32-6.39,8.92-11.37,15.88-19.64,17.28-10.52,1.77-19.87,2.55-41.06-11.52-20.48-13.59-42.69-30.97-48.58-28.79-6.59,2.44-7.12,7.86-2.18,16.73,3.43,6.15,17.76,15.07,25,19.96,21.77,14.73,24.83,20.93,48.22,35.55,27.71,17.32,26.55,17.19,45.09,27.08,31.29,16.68,60.65,42.63,67.87,33.45,7.68-9.77-9.01-18.26-14.27-23.5-2.62-2.61-19.02-12.69-33.87-22.57-26.05-17.33-25.12-22.5-27.51-29.22-6.48-18.2,36.17-66.58,39.36-70.32,6.97-8.14,14.42-15.32,13.04-21.03-1.71-7.09-4.07-9.64-12.87-6.42Z"/><path class="cls-2" d="M603.08,70.62c-9.09,17.47-41.79,59.57-44.98,63.3-6.97,8.14-14.42,15.32-13.04,21.03,1.71,7.09-5.74,9.78,3.05,6.55,12.3-4.51,30.39-38.28,48.41-63.45,6.39-8.92,11.37-15.88,19.64-17.28,10.52-1.77,79.58-7.74,77.91,33.63-1.94,48.13-79.24,73.14-73.5,75.7,14.9,6.65,65.82-26.4,71.94-34.5,15.22-20.13,14.85-34.2,9.51-53.09-5.79-20.49-38.83-33.54-76.26-31.5"/><path class="cls-2" d="M607.12,81.01c-19.32-.17-47.11,61.06-49.59,65.3-5.42,9.25-9.76,18.64-15.61,19.21-7.26,.71,3.16,5.2,3.33-4.16,.24-13.1,15.71-37.82,33.61-63.09,6.34-8.96,11.29-15.94,9.9-24.21-1.77-10.52-18.72-77.74-57.26-62.63-44.85,17.58-43.2,98.8-47.5,94.22-11.16-11.9,3.42-70.83,9.07-79.26C507.11,5.43,520.52,1.18,540.13,.04c21.26-1.23,44.4,25.73,54.71,61.76"/></g><ellipse class="cls-16" cx="343.05" cy="308" rx="15.53" ry="24.76" transform="translate(-100.88 432.39) rotate(-57.57)"/><ellipse class="cls-16" cx="479.9" cy="326.65" rx="24.38" ry="15.77" transform="translate(-78.77 168.87) rotate(-18.47)"/><path class="cls-8" d="M376.78,377.19c2.78-1.87,6.98-4.89,11.53-9.02,6.57-5.98,8.53-9.44,11.62-9.09,2.05,.23,3.39,2,8.43,11.04,2.64,4.74,4.77,8.74,6.31,11.67"/><path class="cls-2" d="M430.3,436.05c10.12-18.45,7.2-21.29,14.3-28.6,4.6-4.74,6.54-4.28,32.68-16.34,19.99-9.23,18.8-9.47,22.47-10.21,18.72-3.79,24.15,7.75,42.89,6.13,20.63-1.78,28.89-17.03,36.77-12.26,4.84,2.93,2.6,9.21,6.13,30.64,3.47,21.11,7.66,27.31,4.09,30.64-6.73,6.28-24.58-12.96-40.85-6.13-11.76,4.94-7.96,17.33-20.43,24.51-16.05,9.24-29.78-7-49.02,2.04-12.17,5.72-10.31,13.91-22.47,18.38-16.22,5.96-38.17-1.78-40.85-12.26-1.51-5.87,4.19-8.13,14.3-26.55Z"/></g></g></svg>