<?xml version="1.0" encoding="UTF-8"?><svg id="_層_2" xmlns="http://www.w3.org/2000/svg" viewBox="0 0 1069.95 1533.72"><defs><style>.cls-1{fill:#f5cd50;}.cls-2{fill:#dfe0d3;}.cls-3{fill:#fbd2a7;}.cls-4{fill:#b2996d;}.cls-5{fill:#897752;}.cls-6{fill:#a0b06c;}.cls-7,.cls-8{opacity:.55;}.cls-9{fill:#634932;}.cls-10{fill:#f0d351;}.cls-11{fill:none;stroke:#000;stroke-miterlimit:10;stroke-width:5px;}.cls-12,.cls-8{fill:#e59f13;}.cls-13{fill:#dfb04c;}.cls-14{fill:#bddaa1;}</style></defs><g id="_層_1-2"><g><g><path class="cls-1" d="M598.33,278.05c-3.67,.02-6.15,.08-6.18,.12-.03,.05,3.08,.09,6.25,.13,14.61,.2,12.69,.29,21.84,.33,2.85,0,6.82,0,14.75-.02,13.13-.03,16.45-.07,26.38-.09,7.81-.02,13.63-.01,21.74,0,15.54,0,24.31,.01,32.64,.09,8.56,.07,11.7,.18,12.49,.2,3.11,.1,1.3,.18,1.61,.19,.81,0,15.55-.55-4.89-.76-9.44-.1-24.37-.1-30.32-.1-15.02,0-16.53,.06-32.6,.06-15.53,0-29.99-.05-37.3-.08-13.29-.05-20.24-.1-26.42-.06Z"/><g class="cls-7"><path class="cls-12" d="M755.59,301.08c-.67-1.22-7.46-5.52-12.63-3.25-2.75,.66-7.24,3.13-12.48,7.07-3.96,2.87-6.52,4.88-10.37,7.03-4.33,2.19-5.03,2.12-7.29,2.54-4.81,.58-8-2.02-8-1.94-2.6-1.76-3.73-3.29-4.29-3.89-.78,1.33,7.8,1.2,16.45-9.08,8.65-8.6,17.37-27.34,16.85-24.45-.45-2.34-9.46,17.11-18.28,24.92-8.82,9.67-17.46,7.69-17.17,5.73,.71,1.22,3.45,4.42,3.48,4.3,.15,.28,3.09,2.83,4.56,3.34,1.71-.32-1.04,2.1,9.84,.24,2.66-.98,4.53-1.99,7.93-4.26,3.11-2.15,4.36-3.12,6.41-4.6,2.89-1.92,2.9-2.46,9.2-5.78,3.02-1.36,5.15-1.81,7.53-1.73,1.95-.07,5.04,1.34,5.12,1.5,.13-.44,5.44,4.21,5.58,4.94,.13,.14-1.1-1.3-.91-1.07,.18-.06,3.97,5.27,2.17,2.75-1.24-1.77-2.62-3.32-3.7-4.3Z"/></g><g class="cls-7"><path class="cls-12" d="M749.8,300.97c-.67-1.4-7.46-5.46-12.63-2.16-2.75,1.07-7.24,4.49-12.48,8.89-3.96,3.14-6.53,5.13-10.37,6.56-4.33,1.16-5.03,.59-7.29-.06-4.8-1.93-8-8.02-8-7.88-.65-2.08,1.14,1.11,4.17,1.17,3.04,.44,7.32-2.27,11.67-7.23,8.7-10.44,17.65-27.34,17.37-25.98-1.57,1.11-3.17,2.44-4.21,3.27-.9,.72,1.47-1.24,2.06-1.68,.71-.6,3.45-2.55,3.48-2.53,.07-1.07-8.53,14.62-16.97,26.1-4.22,5.49-8.4,9.1-11.43,9.55-3.03,.79-4.92-1.59-4.55-.33,.85,1.33,.59,.59,1.48,1.83,.89,.9,2.92,3.77,8.36,4.38,2.66-.07,4.53-.64,7.93-2.63,3.12-1.98,4.36-3.07,6.41-4.69,2.89-2.21,2.9-2.7,9.2-7.07,3.02-1.88,5.15-2.69,7.53-2.91,1.95-.35,5.04,.88,5.12,1.06,.13-.55,5.44,4.25,5.58,5.12,.13,.15-1.1-1.41-.91-1.16,.18-.11,3.97,5.79,2.17,3.01-1.24-1.97-2.62-3.64-3.7-4.65Z"/></g><g class="cls-7"><path class="cls-12" d="M756.24,301.25c-.68-1.22-7.46-5.52-12.63-3.25-2.75,.66-7.24,3.13-12.48,7.07-3.96,2.87-6.53,4.88-10.37,7.03-4.33,2.19-5.03,2.12-7.29,2.54-4.81,.58-8-2.01-8-1.94-2.6-1.76-3.72-3.28-4.29-3.89-.78,1.33,7.8,1.2,16.45-9.08,8.65-8.6,17.37-27.34,16.85-24.45-.45-2.35-9.46,17.11-18.28,24.91-8.82,9.67-17.46,7.69-17.17,5.73,.71,1.22,3.45,4.41,3.48,4.3,.15,.28,3.09,2.83,4.56,3.34,1.71-.32-1.04,2.1,9.84,.24,2.66-.98,4.53-1.99,7.93-4.26,3.12-2.15,4.36-3.12,6.41-4.6,2.89-1.92,2.9-2.46,9.2-5.78,3.02-1.36,5.14-1.81,7.53-1.73,1.95-.07,5.04,1.34,5.12,1.5,.13-.43,5.44,4.21,5.58,4.94,.13,.14-1.1-1.3-.91-1.07,.18-.06,3.97,5.26,2.17,2.75-1.24-1.77-2.62-3.32-3.7-4.3Z"/></g><path class="cls-8" d="M660.45,278.45c-.36-.04,.15-.06,.05-.08-.16-.02,.51-.07,1.58-.1,.74-.02,2.39-.06,2.98-.08,.45-.01,1.37,0,3.52-.01,1.25,.01,6.01-.03,5.62-.02-2.89,.09-2.28,.07-5.08,.14-3.89,.1-1.81,.05-3.93,.1-2.08,.05-5.07,.2-4.78,.09,.08-.03,.12-.02,.14-.02l-.11-.02Z"/></g><path class="cls-6" d="M476.46,257.07c9.23,7.11,7.57,11.79,9.56,24.43,2.33,14.78-2.65,12.89-5.72,32.75-2.59,16.8-8.84,23.83-13.21,38.94-5.47,18.9-6.95,22.18-12.61,27.81-3.57,3.56-2.69,7.04-3.84,8.77-1.14,1.71,.16,2.3-3.91,7.83-3.28,4.45-3.73,3.49-7.24,1.74-5.21-2.6-1.07-1.52-12.96-8.64-3.86-2.31-10.48-9.03-13.26-12.01-1.8-1.93,.94-4.9-3.49-13.49-3.12-6.05,2.61-16.45,6.9-25.57,5.62-11.96,15.38-28.6,16.89-32.13,4.38-10.21,2.1-13.36,13.87-36.43,3.54-6.95,3.18-14.19,8.32-16.39,7.79-3.32,14.41-2.46,20.7,2.39Z"/><path class="cls-6" d="M520.12,375.13c2.18-2.36,4.68-1.87,26.79,1.27,22.52,3.2,33.9,4.8,39.6,5.08,5.34,.26,8.96,.35,13.26,4.55,14.82,14.47,24.66,43.71,27.72,58.51,2.88,13.92-.64,26.04-.63,31.05,0,5.82,.71,11.65-.35,14.47l-.97,3.18c-1.65,2.03-2.46,2.39-3.68,3.58-1.51,1.47,0,.75-1.97,2.16-3.09,2.21-2.07,.66-7.06,1.29-8.88,1.12,7.46,.48-15.88-.24-7.58-.23-11.65-1.41-11.65-1.41l-9.53-3.88s-6.67-.73-8.82-4.24c-16.78-27.35-25.03-39.32-34.01-62.01-16.76-42.32-15.98-49.94-12.81-53.37Z"/><path class="cls-6" d="M462.53,373.16c5.98,1.09,.42-1.63,21.18,.47,25.51,2.58,25.53,1.42,31.53,.94,6.82-.55,9.57,1.13,11.76,3.29,5.46,5.38-3.94,26.52-2.59,36.47,1.47,10.8,1.42,23.49-3.95,40.94-1.52,4.94-5.95,19.4-3.11,28.16,1.73,5.34,3.26,5.64,4.11,9.12,.63,2.58-2.94-.39-6.31-.75s-2.16-.28-6.03-.53c-4.41-.29-15.94-.29-23.06,0-3.67,.15-8.94,.77-10,1.36-1.51,.84-4.85,1.31-6.88,.41-3.79-1.68-3-.71-2.12-4.94,1.41-6.79-3.32-14.59-5.65-17.12-4.06-4.41-3.88-5.82-6.94-15.92-1.71-5.64-3.39-11.28-5.12-19.32-3.38-15.7,.11-33.86-3.76-49.41-2.89-11.63,.55-9.57,4.24-12.71,2.25-1.91,9.09-1.13,12.71-.47Z"/><path class="cls-5" d="M474.01,485.22c11.83,2.61,41.21-3.27,45.18,2.35,3.8,31.47,2.08,26.59,1.88,30.59-.56,11.52-17.1,8.84-28.94,8.47-7.53-.24-22.68-.43-40.24-1.18-11.06-.47-13.83-4.56-16.47-8.24-7.76-10.82,35.41-32.7,38.59-32Z"/><path class="cls-5" d="M615.53,491.96c-11.83,2.61-41.21-3.27-45.18,2.35-3.8,31.47-2.08,26.59-1.88,30.59,.56,11.52,17.1,8.84,28.94,8.47,7.53-.24,22.68-.43,40.24-1.18,11.06-.47,13.83-4.56,16.47-8.24,7.76-10.82-35.41-32.7-38.59-32Z"/><path class="cls-4" d="M637.79,502.12c-3.53-.35-23.5-.27-27,5.65-2.29,3.88-12.32,20.63-8.82,22.59,7.03,3.93,9.53,4.94,19.94,5.65,8.19,.56,17.01-.89,34.41-1.59,5.69-.23,2.93-9.53,1.24-13.72-4.71-11.65-16.52-18.25-19.76-18.57Z"/><path class="cls-3" d="M623.74,228.86c-1.15,1.3-10.98,12.25-25.63,18.64-14.83,6.47-27.71,5.25-47.37,3.39-16.83-1.59-17.63,.37-33.38,.31-9.3-.04-16.23,.88-27,2.12-8.71,1-16,1.12-23.12,.53-13.27-1.1-24.74-8.83-29.87-20.74-1.85-4.29-5.12-11.88-3.88-21.18,1.69-12.69,9.95-14.74,11.65-29.65,.5-4.38,1.21-10.56-1.55-16.94-2.14-4.96-4.6-5.92-4.66-9.32-.11-6.49,8.49-13.92,14.75-12.71,2.69,.52,9.69-.95,11.8-.36,0,0,4.12,.98,6.35,1.65,13.19,3.96,3.31-.48,12,1,6.09,1.04,4.14,1.97,7.47,1.59,3.31-.38,6.7-.33,12-2.47,8.49-3.43,11.69-1.81,18.53-4.94,4.9-2.25,9.9,3.2,15.71,.15,7.01-3.68,8.67,4.59,15.35,.91,4.92-2.71,15.15-1.2,17.27-1.75,3.47-.9,6.12,11.52,14.32,10.75,6.47-.61,15.51,3.53,20.62,3.65,5.23,.12,8.44,30.65,14.75,30.5,1.28-.03,3.03-1.34,3.95-2.21,2.9-2.75,2.67-6.14,3.82-6.27,1.78-.2,1.88,7.99,6.99,13.55,4.84,5.27,9.55,3.18,10.87,6.78,1.15,3.15-1.71,6.79-13.98,22.87-7.68,10.06-7.48,9.84-7.77,10.17Z"/><path class="cls-13" d="M540.76,165.47c8.8-4.16,24.83,23.3,29.51,19.49,2.77-2.26-.72-13.66,0-13.92,1.44-.53,11.33,46.92,20.19,46.39,7.56-.45,10.56-35.67,16.31-35.26,5.21,.37,5.55,29.6,12.42,30.62,5.82,.87,12.17-19.13,13.2-18.56,1.34,.74-9.3,34.34-9.32,34.33-.02-.01,5.58-32.67,17.86-35.26,12.54-2.64,24.91,27.56,30.29,24.12,3.15-2.01,1.21-13.86-.48-24.19-2.77-16.9-7.31-28.23-6.51-28.69,1.36-.79,14.78,32.03,17.86,30.62,3.92-1.8-14.94-56.27-4.66-64.02,7.74-5.84,28.06,17.78,29.51,15.77,2.2-3.03-48.19-51.99-41.93-64.95,4.57-9.46,37.67,3.62,38.05,1.86,.57-2.61-74.09-23.01-73-37.11,.71-9.24,33.64-12.39,33.39-14.85-.43-4.21-96.88,12.1-100.95-5.57-2.05-8.9,20.03-23.3,18.64-25.98-2.37-4.55-63.49,42.28-74.55,27.84-4.44-5.8,17.32-6.11,2.14-9.2-31.15-6.34-43.54,43.24-55.21,48.43-13.56,6.03-15.28-29.96-19.41-28.33-5.51,2.17-17.02,36.19-11.38,62.4,.8,3.7-12.26-2.48-16.85-5.96-4.97-3.77,2.41,19.99,11.42,40.29,1.78,4.02-16.87,23.03-15.65,25.04,1.44,2.38,19.76,0,32.74-6.48,6.2-3.1,.09,9.19-8.03,16.92-5.11,4.87,30.92-3,33.53-15.85,1.41-6.96-5.47,13.15,11.29,29.77,7.41,7.35-1.14-32.54,13.68-38.26,6.21-2.4,8.21,31.76,12.42,31.55,4.54-.22,.54-40.79,4.46-36.27,31.91,36.8,20.26,51.88,24.24,51.47s5.72-23.9,14.79-28.19Z"/><path class="cls-14" d="M452.92,278.11c-12.48,11.73-2.8,33.42-13.3,60.65-7.94,20.6-9.21,45.47,5.53,57.09,2,1.58,5.16,3.49,20.19,5.08,22.01,2.34,32.28,.05,48.15,0,27.18-.09,23.48,.27,57.07,1.35,16.95,.55,21.73-.32,35.65,3.18,14.03,3.53,15.63,3.33,20.12,.71,8.07-4.73,9.71-14.24,4.42-56.06-8.61-68.13-23.25-68.9-31.6-78.76-3.88-4.59-17.3-15.33-30.35-14.12s-24.84,1.66-30.71,1.75c-18.98,.3-29.65,.15-48,0-13.67-.11-23.37,6.16-37.17,19.13Z"/><path class="cls-6" d="M591.89,279.14c-8.69,7.76-6.7,12.31-7.76,25.06-1.25,14.91-.42,13.03,4.08,32.61,3.81,16.57,6.97,26.75,12.42,41.51,6.82,18.45,11.71,26.53,17.86,27.11,5.02,.47,3.79,3.77,5.06,5.41,1.26,1.62,1.85,1.14,1.41,8-.35,5.39,10.29-1.32,14.12-.47,14.34,3.18,20.18,2.32,31.52-5.65,3.68-2.59-.66,3.57,.05-1.88,.34-2.61,6.65-4.63-.14-23.67-4.3-12.04-9.02-19.55-14.12-28.24-12.57-21.41-3.72-16.97-16.24-47.65-4.2-10.29,3.89,7.39-14.38-25.78-3.76-6.83-8.13-8.42-13.41-10.24-8.01-2.75-14.55-1.41-20.47,3.88Z"/><g><path class="cls-1" d="M439.99,265.23c8.04-8.2,28.75-18.96,40.73-21.12,10.11-1.82,23.48,.6,40.79,2.83,13.11,1.69,11.28,.86,23.43,4.06,13.69,3.61,23.27,.79,30.5-.97,15.38-3.75,22.74-6.78,22.74-6.78,12.86-7.97,16.39-2.86,16.76,2.53s-5.35,8.77-1.78,13.06c2.76,3.32,16.81-2.62,15.36,8.31q-1.41,10.66-1.52,11.88c-.63,7.04-11.81,15.81-15.68,11.13-4.61-5.58-14.55-3.13-32.73,2.19-8.36,2.45-29.99,3.65-40.98,6.4-13.63,3.4-14.71,1.44-21.5,.17-7.17-1.34-1.32-2.88-21.34-4.26-9.58-.66,4.49,.38-22.46-.58-6.17-.22-25.13,6.84-25.35,4.86-.33-2.98,15.72-9.76,15.33-12.64-.35-2.61-21.72,10.34-23.19,1.45-.5-3.02,8.65-8.17,15.03-14.94,4.41-4.68-20.3-1.26-14.11-7.56Z"/><path class="cls-8" d="M496.12,284.05c.83-.33,10.35-1.29,17.67-1.84,3.9-.29,9.92-1.52,17.7-1.34,5.87,.14,10.11,1.14,15.76,1.17,6.37,.03,8.07,1.47,11.21,1.09,6.68-.81,10.66-2.32,10.66-2.32,3.59-.48,4.34-2.42,5.05-2.68,1.96-.72,2.49-4.65,4.2-4.23,1.49,.36,.43,5.54,.08,6.64-.42,1.33-3.79,2.73-3.76,2.87,.15,.78-3.73,1.73-5.78,1.95-2.38,.26,1.8,.57-13.37,2.3-3.71,.42-6.96-.67-11.74-.21-4.38,.41-6.7-.64-9.75-.73-4.3-.13-4.54-.6-13.62-.23-4.34,.18-6.92,1.35-10.33,1.55-2.78,.17-7.47-.16-7.69-.37-.33-.31-7.84,.29-8.2,0-.32-.27,1.35-.56,.92-.89-.41-.31-6.1-.57-3.88-1.51,1.53-.64,3.53-.68,4.87-1.21Z"/><path class="cls-8" d="M442.54,267.08c8.27-4.27,10.99-4.07,17.41-1.94,5.49,1.82,42.41-7.78,41.8-4.74-1.16,5.79-25.69,8.88-29.52,9.25-6.94,.68-2.38-.06-5.38-.14-7.98-.21-26.59-1.25-24.31-2.43Z"/><path class="cls-8" d="M603.39,267.52s-2.34-6.09,2.38-10.93c4.04-4.14,4.87-16.25,7.33-14.37,4.69,3.58,3.45,1.69,2.11,5.31-2.43,6.54-1.1,2.12-2.48,4.78-3.68,7.08-9.27,17.79-9.33,15.21Z"/><path class="cls-8" d="M509.12,260.23c8.21-3.43,28.64-3.42,35.17-2.96,5.77,.41,18.4-2.41,17.79,.63-1.16,5.79-12.94,3.23-16.78,3.61-6.94,.68-8.88,1.23-11.88,1.15-7.98-.21-26.68-1.44-24.31-2.43Z"/></g><ellipse class="cls-9" cx="472.06" cy="200.14" rx="9.3" ry="15.56" transform="translate(77.96 528.13) rotate(-62.75)"/><ellipse class="cls-9" cx="562.1" cy="204.08" rx="15.56" ry="9.3" transform="translate(-33.73 153.15) rotate(-15.07)"/><path class="cls-11" d="M490.92,229.7c2.6,3.79,6.6,8.41,11.23,8.17,5.36-.28,6.79-6.83,12.26-7.15,6.28-.36,8.55,8.05,15.32,8.68,3.08,.29,7.82-.96,14.3-9.19"/><path class="cls-10" d="M608.44,125.67c-9.07,.44-14.81,23.18-19.8,21.36-1.63-.6-1.27-3.12-4.14-9.64-3.39-7.7-8.02-13.56-8.8-13.05-.77,.51,2.24,7.28,1.55,7.71-1.08,.68-9.69-15.27-10.35-14.83-.6,.4,6.99,13.07,4.92,15.43-4.01,4.56-41.85-32.5-44.26-29.37-.56,.73,1.44,2.84,2.59,8.01,1.15,5.15,1.56,13.81-1.04,15.72-6.56,4.83-29.69-35.6-41.67-29.96-8.1,3.81-6.55,26.56-10.35,26.7-2.29,.08-2.15-14.99-5.95-15.72-2.1-.41-4.16,3.72-5.69,6.23-8.63,14.13-27.57,21.4-31.32,17.21-3.87-4.33,5.48-24.17,16.05-37.38,8.55-10.68,17.34-16.3,23.04-19.87,16.84-10.56,31.9-13.22,39.86-14.54,20.25-3.35,36.51-.42,44.52,1.48,3.99,.95,18.53,4.63,35.2,14.83,7.22,4.42,13.78,8.51,20.71,16.61,2.28,2.66,8.37,10.18,13.2,21.95,4.66,11.37,5.69,20.71,6.73,30.26,.84,7.71,1.71,15.66,0,16.32-3.82,1.47-13.19-36.03-24.98-35.45Z"/></g><path class="cls-2" d="M1038.88,1030.35c0,16.51-.79,32.83-2.35,48.93-.78,8.05-1.74,16.04,5.34,14.09-9.38,17.82-10.72,25.7,28.08,24.92-41.83,16.4-43.53,24.14-17.44,96.63-29.84-57.14-31.89-49.53-39.33-19.68,2.99-14.78,.6-7.32-2.13,.34-2.38,7.1-5.11,14.41-8,21.63-8.67,21.67-18.79,42.59-30.26,62.64-3.82,6.69-7.79,13.28-.97,17.68-15.06,8.58-19.32,14.96,15.57,31.36-43.69-3.83-48.23,2.35-36.72,70.46-20.86-55.97-25.67-50.01-44.1-20.21,8.55-18.11,3.47-12.38-3.92-5.1-3.01,3.94-8.33,9.43-13.78,14.8-16.34,16.11-33.78,31.11-52.19,44.88-6.46,4.83-13.04,9.51-17.58,11.6-8.85,6.96-15.66,11.33-12.02-7.3-17.48,27.03-24.51,31.07-58.23,14.09,19.46,24.73,12.22,28.44-10.37,32.99,7.92,2.51,.49,5.88-7.04,9.06-7.53,3.18-15.15,6.19-22.86,9.01-7.71,2.82-15.51,5.46-19.55,12.49-11.72-2.13-19.69,.13-27.01,10.94-8.76-6.67-16.87-4.79-25.11-3.02-8.15,1.58-16.41,3.06-24.74,4.33-25,3.82-50.6,5.8-76.66,5.8-27.8,0-55.07-2.25-81.65-6.59-3.32-.54-6.63-1.12-9.91-1.72s-6.52-1.23-9.32-1.78c-4.66-.98-8.74-1.87-.88,.47-11.19-2.84-10.45-2.45-.03,.66-8.09-2.28-12.74-3.58-.6,0-14.91-4.27-13.03-3.66,.16,.29-17.14-5.01-22.98-6.68-.5,.28-22.87-6.87-17.43-5.11,.25,.47-14.84-4.6-17.44-5.38-.31,.09-14.45-4.56-9.16-2.87,.54,.21-9.02-2.85-14.36-4.54-.57-.12-17.18-5.47-15.21-4.83,.19,.11-14.92-4.78-20.99-6.72-.37-.09-31.18-10.01-35.67-11.45-.35-.07-26.53-8.54-38.72-12.47-53.32-17.18-4.86-1.57-10-3.23-15.88-4.92-6.15-2.19-13.06-4.42-6.03,1.52-4.81-5.23,1.63-3.15,5.14-1.55,2.27,.26,1.6,.05-.63,.04-4.94-2.32-11.46-4.43-4.57,1.52-6.28-5.76,.37-3.61,4.86-1.56,2.54,.22,2.93,.33,.4-.04-3.7-1.67-10.31-3.83-5.14,1.5-2.12-4.36,2.72-2.8,3.99-1.42-3.3-2.09-10.16-4.35-3.98,1.37-8.51-6.5-3.98-5.02,2.68-1.09-5.83-3.69-9.53-4.93-2.52,.98-7.91-6.23-5.1-5.32,2.17-.9-8.57-4.9-12.67-6.28-2.15,.85-7.42-6.16-12.89-8.06-.6,.23-14.54-9.13-11.85-8.28,1.87-.86-12.37-7.12-13.7-7.68-.62,.18-11.29-7.53-15.62-9.28,.02-.17-23.17-12.29-26.36-13.73-1.3,.26-31.95-17.15-35.64-18.87-43.48-.97-2.71-22.98-9.5-26.45-36.98-39.91,14.08,6.23,7.47,2.47-1.54-2.45-4.01-2.88-10.43-6.92-16.74-11.11-82.12-54.4-147.35-132.25-186.15-224-3.18-7.53-6.19-15.15-11.65-10.35-.19-20.21-2.83-28.01-28.68-19.35,22.17-20.49,20.99-24.45-8.65-27.26,27.91-2.77,27.35-4.38,.74-8.54,24.55-3.88,23.03-10.31,10.48-22.48,11.5,8.62,11.96,11.5-7.35,11.98,19.4,.33,17.98-6.94,12.91-18,2.65-1.63,1.63-7.06,.67-12.39-1.93-10.65-3.65-20.89-6.35-37.23,2.86,16.01,1.79,7.61,.3-5.25-.23-4.06-.88-12.58-1.31-21.16-.43-8.58-.65-17.22-.65-25.9,0-22.95,1.54-45.53,4.51-67.67,.33-2.46,.68-4.91,1.04-7.36-11.51-16.94-20.51-33.94-27.31-53.03-1.3-2.3-2.57-4.65-3.7-7.05-9.08-19.23-9.49-42.01,2.51-60.86,4.5-7.5,10.62-14.01,17.76-19.24,2.38-1.74,4.8-3.4,7.14-5.09,18.1-16.67,42.1-23.67,65.11-30.88,1.51-2.62,3.05-5.23,4.61-7.82,29.61-49.25,67.41-93.02,111.52-129.42,6.22-5.13,12.56-10.11,11.47,.73,14-20.5,20.58-25.18,41.49-.29-7.52-33.94-.71-38.3,27.11-42.23-13.99-4.49-6.96-8.53,.29-12.43,7.01-3.85,14.25-7.55,21.59-11.09,66.02-31.81,140.04-49.64,218.23-49.64,17.38,0,34.54,.88,51.47,2.6,8.46,.86,16.86,1.93,16.11-2.95,17.41,7.42,25.68,8.9,23.69-17.86,18.37,30.12,26.49,31.99,57.25,20.92-14.68,15.21-6.71,17.47,6.78,19.41,2.27,2.97,10.07,5.61,17.78,8.43,77.1,28.23,145.36,74.78,199.53,134.37,5.42,5.96,10.69,12.05,14.27,17.62,6.69,6.86,11.67,13.2-2.97,20.34,24.3,5.78,28.98,12.36,20.38,37.63,17.65-11.89,22.02-5.08,25.95,9.08,4.48-.32,8.52,6.71,12.39,13.84,38.75,71.32,60.75,153.06,60.75,239.94Z"/></g></svg>