<?xml version="1.0" encoding="UTF-8"?><svg id="_層_2" xmlns="http://www.w3.org/2000/svg" viewBox="0 0 1322.29 1824.31"><defs><style>.cls-1{fill:#dfe0d3;}.cls-2{fill:#cccccf;}.cls-3{fill:#e6eae4;}.cls-4{fill:#b2bcac;}.cls-5{fill:#515b5a;stroke-width:1.26px;}.cls-5,.cls-6,.cls-7{stroke:#8a7900;stroke-miterlimit:10;}.cls-6{fill:#938e8a;}.cls-6,.cls-7{stroke-width:.86px;}.cls-8{fill:#fbd2a7;}.cls-9{fill:#e0e0d5;}.cls-10{fill:#edefdf;}.cls-11{fill:#634932;}.cls-12{fill:#f7617e;}.cls-7{fill:#e0dfde;}</style></defs><g id="_層_1-2"><path class="cls-1" d="M148.91,875.27c38.36-77.52,91.06-143.14,153.17-195.18,2.96-2.48,5.94-4.92,8.94-7.34-5.68-22.34-9.29-46.61,10.63-63.19,23.07-20.32,55.51-14.84,76.59,4.69,1.88-.96,5.14-2.72,8.5-4.5,74-39.11,155.53-62.32,238.92-67.69,3.79-.24,7.59-.45,11.38-.62,3.38-.93,4.95-1.47,6.53-4.66-2.65,15.88-12.63,30.78-9.53,48.18,3.62,18.98,14.58,33.66,32.89,38.76,16.22,4.06,35.07,.16,45.04-14.73,16.27-22.36,32.05-56.87,62.32-57.33,3.8,.75,7.6,1.53,11.4,2.36s7.59,1.69,11.36,2.64c1.93,.18,5.59,.67,6.63,3.83,1.53,20.59,7.76,39.55,24.49,50.47,23,14.03,50.25-4.22,69.13-18.68,8.91-7.49,28.76,10.27,43.24,19.55,3.39,1.85,6.76,3.73,10.1,5.64,76.87,43.9,140.23,103.27,188.19,172.32,2.17,3.12,4.31,6.27,6.41,9.43,1.26,2.35,2.83,4.44,4.39,6.54,1.05,.52,2.62-.03,3.14-1.09-27.75,6.1-65.96,7.03-73.37,43.03-4.76,22.77,9.32,44.29,31.29,49.87,15.17,3.54,30.37-6.13,45.01-1.52,14.12,5.67,24.03,19.83,38.15,28.14,18.82,11.96,25.57,35.14,24.47,58.39,3.71-23.29-4.61-45.92-23.43-57.88-12.54-8.85-22.98-21.95-36.05-27.1-20.39-8.77-48.69,8.96-67.49-10.92-12.53-14.14-17.72-35.22-6.69-52.24,20.48-30.86,59.73-28.62,93.76-31.62,20.42-1.8,29.78,26.64,41.28,32.33,58.55,31.62,95.03,105.21,78.66,169.85-5.81,22.25-19.45,39.3-25.26,61.55-3.7,15.36-18.89,22.39-29,33.54-.17,2.22-.02,6.05,.1,9.88,3.02,95.81-16.94,194.02-62.61,286.3-67.59,136.58-179.67,236.24-309.39,289.7-3.51,1.44-7.02,2.86-10.56,4.23-4.43,.98-6.53,5.23-7.06,8.93-2.14,20.1-12.65,38.7-28.38,52.08-23.59,18.74-36.22,49.51-64.52,64.6-44.54,24.24-91.05-8.04-123.44-37.29-4.18-4.71-12.03-4.63-16.73-8.28-14.63-9.89-21.4-25.14-21.96-41.34-.31-.15-2.35-.4-6.17-.75-68.74-6.45-137.36-25.32-202.76-57.69-156.25-77.33-262.37-215.95-304.41-373.49-.98-3.66-1.92-7.34-2.83-11.02-.94-2.02-.42-3.08-.94-4.66-8.88-8.36-23.02-6.1-31.9-14.46-12.54-11.49-25.6-21.93-37.61-34.48-47.52-48.64-41.59-129.02,4.57-177.58,9.97-9.61,17.84-22.91,29.9-31.48,15.72-10.73,37.71-10.43,52.33,2.1,20.9,18.28,20.3,51.04,1.94,69.72-20.98,21.35-44.07,49.6-26.34,79.53-17.72-32.57,8.5-59.27,29.49-83.26,21.51-25.06,8.53-69.83-26-76.34,2.62-.03,2.1-1.61,1.76-3.69,.86-3.84,1.77-7.68,2.71-11.52,10.37-42.19,25.49-83.94,45.58-124.54Z"/><path class="cls-1" d="M731.07,320.77c-11.8,12.15-18.44,17.57-29.95,39.17-7.99,14.98-8.9,16.7-6.54,60.87,3.87,72.35,9.45,102.86,7.3,118.92-1.28,9.53-5.28,20.6,1.82,28.69,8.69,9.9,4.49,12.65,23.07,10.24,50.09-6.52,43.73,5.61,113.14,0,37.96-3.07,39.81-6.69,63.87-5.66,14.09,.6-4.31,3.98,0,0,12.42-11.48,8.37-44.86,3.65-94.38-6.92-72.54,1.91-109.6-21.64-142.03-13.76-18.95-31.79-25.99-65.3-35.36-20.82-5.82-60.22-10.54-89.42,19.54Z"/><path class="cls-10" d="M785.4,318.74c-11.73,5.39,2.04,24.9-7.48,46.5-6.61,14.98-6.43,17.78-4.48,61.95,3.2,72.35-6.14,95.02-7.92,111.08-1.05,9.53-4.37,20.6,1.51,28.69,7.18,9.9,3.71,12.65,19.08,10.24,41.43-6.52,36.17,5.61,93.57,0,31.39-3.07,32.92-6.69,52.82-5.66,11.65,.6-3.56,3.98,0,0,10.27-11.48,6.92-44.86,3.02-94.38-5.72-72.54,1.58-109.6-17.9-142.03-11.38-18.95-39.62-28.38-54-35.36-12.68-6.16-44.72,3.6-78.22,18.98Z"/><g><rect class="cls-6" x="376.88" y="623.11" width="521.33" height="218.96"/><polygon class="cls-5" points="1027.33 696.35 900.56 845.8 898.99 623.11 1025.87 467.02 1027.33 696.35"/><polygon class="cls-6" points="898.99 623.11 376.88 623.11 503.76 467.02 1025.87 467.02 898.99 623.11"/></g><polygon class="cls-7" points="650.52 583.34 538.96 583.34 566.07 478.83 677.63 478.83 650.52 583.34"/><polygon class="cls-7" points="853.31 589.84 762.64 589.84 784.68 485.33 875.34 485.33 853.31 589.84"/><polygon class="cls-7" points="810.33 570 726.19 570 746.64 474.93 830.78 474.93 810.33 570"/><path class="cls-10" d="M871.95,335.43c-7.78,34.32,.4,48.5-1.89,83.55-1.01,15.47-4.08,29.15-10.23,56.49-8.42,37.43-21.49,53.8-12.07,64.69,13.67,15.82,33.81,12.13,48.91,17.54,8.93,3.2,12.78-2.6,19.34-32,19.17-85.86,19.34-79.24,19.93-89.11,1.53-25.71,3.31-64.03-18.66-98.94"/><path class="cls-3" d="M836.21,297.09c-3.34,.45-9.45,3.87-21.52,10.7-14.71,8.32-17.02,10.23-23.83,12.38-6.77,2.14-8.87,1.62-10.98,3.56-2.63,2.41-1.84,5.44,4.85,19.4,4.83,10.06,5.51,10.76,7.19,11.18,5.59,1.42,11.62-2.86,38.31-16.14,16.94-8.42,25.87-12.35,36.03-20.99,10.2-8.67,9.21-11.53,8.9-12.2-1.33-2.81-7.05-1.47-19.02-3.63-12.94-2.34-13.2-5.16-19.94-4.26Z"/><path class="cls-8" d="M801.17,292.33c-2.76,.09-8.18,1.97-18.89,5.73-13.06,4.57-15.19,5.69-21,6.69-5.77,1-7.39,.53-9.37,1.68-2.46,1.42-2.26,3.46,1.19,13,2.48,6.88,2.94,7.38,4.23,7.76,4.31,1.26,9.79-1.18,33.23-8.29,14.87-4.51,22.64-6.55,32.07-11.6,9.46-5.08,9.07-7.01,8.91-7.47-.68-1.92-5.49-1.38-14.85-3.51-10.13-2.3-9.93-4.17-15.51-3.98Z"/><path class="cls-9" d="M754.49,342.2c-11.48,33.27-25.9,41-42.43,72-7.3,13.68-11.89,26.92-21.08,53.4-12.57,36.24-8.92,54.7-23.32,54.85-22.64,.24-39.83-3.43-53.28-6.31-9.28-1.99-7.54-7.02,2.37-35.47,28.97-83.07,25.33-77.54,30.03-86.23,12.25-22.65,30.94-56.16,68.01-74.25,4.45-2.17,32.88-16.05,41.92-6.47,2.29,2.42,4.85,7.95-2.23,28.48Z"/><path class="cls-3" d="M744.5,301.11c2.13,.16,5.68,2.83,12.69,8.16,8.55,6.5,9.82,8.07,13.99,9.53,4.15,1.45,5.59,.83,6.72,2.43,1.41,2,.51,4.82-5.63,18.02-4.43,9.52-4.97,10.2-6.12,10.71-3.83,1.7-7.23-1.75-22.97-11.89-9.99-6.43-15.33-9.35-20.87-16.47-5.56-7.15-4.55-9.83-4.26-10.46,1.22-2.66,4.79-1.85,12.88-4.7,8.75-3.08,9.27-5.67,13.56-5.34Z"/><path class="cls-8" d="M674.15,120.63c-9.95,23.94-2.27,36.21-15.41,67.75-10.74,25.79-20.75,29.34-21.19,47.43-.56,23.34,15.53,41.07,19.26,45.17,14.1,15.53,30.67,19.89,44.3,22.59,53.54,10.59,66.31-3.61,134.81-2.26,33.19,.65,56.08,4.5,73.18-13.55,6.63-6.99,9.72-14.47,21.19-22.58,18.18-12.88,28.03-6.56,36.59-18.07,9.01-12.11,8.49-33.04,1.93-47.43-1.05-2.31-8.45-18.53-21.18-20.33-10.57-1.49-18.18,7.89-23.11,11.29-36.78,25.43-130.76-138.89-200.29-119.7-19.78,5.46-40.47,26.57-50.07,49.69Z"/><path class="cls-4" d="M707.56,100.88c-9.92,.48-13.32,13.26-32.09,32.09-11.89,11.93-33.6,17.51-36,10.67-4.22-12.07,.08-34.65,13.35-65.41,3.34-7.74,18.25-34.75,35.66-32.75,8.48,.97,10.99-3.59,15.73-6.29,4.28-2.44,5.89-12.22,24.54-20.76,56.63-25.96,66.22-17.26,99.88-16.06,29.08,1.03,37.45,11.74,63.92,26.79,3.28,1.86,.53,.51,30.2,22.65,37.99,28.35,36.1,29.67,41.96,37.72,13.28,18.27,13.5,38.53,15.1,53.48,.77,7.14-.56,26.8-8.81,54.11-6.32,20.94-20.39,45.74-28.94,44.05-9.49-1.88,12.98-34.53-5.03-43.42-8.76-4.32-22.72-1.64-33.98,1.26-22.73,5.85-39.21-2.55-73.62-20.76-46.16-24.44-80.88-34.35-99.21-58.49-6.18-8.14-13.16-19.34-22.65-18.88Z"/><ellipse class="cls-11" cx="701.38" cy="202.95" rx="13.91" ry="23.29" transform="translate(350.94 843.51) rotate(-77.46)"/><ellipse class="cls-11" cx="831.59" cy="211.65" rx="23.29" ry="13.91" transform="translate(-14.14 66.46) rotate(-4.54)"/><path class="cls-12" d="M790.25,275.18c-3.26,12.39-62.13,7.11-52.43-5.03,11.95-14.97,5.97-10.59,10.56-13.82,6.75-4.75,28.88-5.73,32.48,0,5.49,8.74,11,12.74,9.4,18.85Z"/><path class="cls-8" d="M643.27,520.77c19.04,3.77,29.89-.43,21.25,17.77-2.89,6.09-3.15-4.33-10.85-2.52-1.72,.4-8.58,22.95-33.04,10.61-6.01-3.03-3.81-.2-8.79-7.33-8.27-11.83-.11-27.02,4.92-27.41,4.76-.37,.22,3.68,26.52,8.88Z"/><path class="cls-8" d="M870.66,550.46c-15.98-7.75-21.3-17.24-25.94,2.21-1.55,6.5,4.86-1.68,9.34,4.12,1,1.29-7.52,23.21,17.49,27.17,6.15,.97,2.87,1.99,10.72-.9,13.03-4.79,16.22-21.56,12.83-24.71-3.21-2.99-2.35,2.82-24.43-7.88Z"/><circle class="cls-2" cx="777.48" cy="369.44" r="3.37"/><circle class="cls-2" cx="774.11" cy="408.7" r="3.2"/><circle class="cls-2" cx="775.44" cy="453.66" r="3.04"/></g></svg>