<?xml version="1.0" encoding="UTF-8"?><svg id="_層_2" xmlns="http://www.w3.org/2000/svg" xmlns:xlink="http://www.w3.org/1999/xlink" viewBox="0 0 858.29 1380"><defs><style>.cls-1{fill:#5b4736;filter:url(#drop-shadow-10);}.cls-2{filter:url(#drop-shadow-12);}.cls-2,.cls-3,.cls-4,.cls-5,.cls-6,.cls-7,.cls-8,.cls-9,.cls-10{fill:#68503a;}.cls-11{fill:#ff4949;filter:url(#drop-shadow-16);}.cls-3{filter:url(#drop-shadow-5);}.cls-12{filter:url(#drop-shadow-2);stroke:#8a7900;stroke-miterlimit:10;stroke-width:11px;}.cls-4{filter:url(#drop-shadow-17);}.cls-13{filter:url(#drop-shadow-14);}.cls-13,.cls-14,.cls-15,.cls-16{fill:#fbd2a7;}.cls-5{filter:url(#drop-shadow-19);}.cls-17{filter:url(#drop-shadow-24);}.cls-17,.cls-18{fill:#634932;}.cls-19{filter:url(#drop-shadow-23);}.cls-20{fill:#725741;filter:url(#drop-shadow-9);}.cls-18{filter:url(#drop-shadow-25);}.cls-6{filter:url(#drop-shadow-3);}.cls-21{fill:#cefbff;filter:url(#drop-shadow-18);}.cls-7{filter:url(#drop-shadow-8);}.cls-8{filter:url(#drop-shadow-6);}.cls-22{filter:url(#drop-shadow-7);}.cls-22,.cls-23{fill:#775c46;}.cls-24{fill:#3e0b00;filter:url(#drop-shadow-1);}.cls-14{filter:url(#drop-shadow-11);}.cls-25{fill:#755a3b;}.cls-10{filter:url(#drop-shadow-4);}.cls-26{fill:#ff8b5c;filter:url(#drop-shadow-15);}.cls-27{fill:#4b1a00;filter:url(#drop-shadow-22);}.cls-15{filter:url(#drop-shadow-13);}.cls-28{fill:#ff7a43;filter:url(#drop-shadow-26);}.cls-16{filter:url(#drop-shadow-21);}.cls-29{fill:#44372d;filter:url(#drop-shadow-20);}</style><filter id="drop-shadow-1" filterUnits="userSpaceOnUse"><feOffset dx="2.83" dy="2.83"/><feGaussianBlur result="blur" stdDeviation="2.83"/><feFlood flood-color="#70410f" flood-opacity=".75"/><feComposite in2="blur" operator="in"/><feComposite in="SourceGraphic"/></filter><filter id="drop-shadow-2" filterUnits="userSpaceOnUse"><feOffset dx="2.83" dy="2.83"/><feGaussianBlur result="blur-2" stdDeviation="2.83"/><feFlood flood-color="#70410f" flood-opacity=".75"/><feComposite in2="blur-2" operator="in"/><feComposite in="SourceGraphic"/></filter><filter id="drop-shadow-3" filterUnits="userSpaceOnUse"><feOffset dx="2.83" dy="2.83"/><feGaussianBlur result="blur-3" stdDeviation="2.83"/><feFlood flood-color="#70410f" flood-opacity=".75"/><feComposite in2="blur-3" operator="in"/><feComposite in="SourceGraphic"/></filter><filter id="drop-shadow-4" filterUnits="userSpaceOnUse"><feOffset dx="2.83" dy="2.83"/><feGaussianBlur result="blur-4" stdDeviation="2.83"/><feFlood flood-color="#70410f" flood-opacity=".75"/><feComposite in2="blur-4" operator="in"/><feComposite in="SourceGraphic"/></filter><filter id="drop-shadow-5" filterUnits="userSpaceOnUse"><feOffset dx="2.83" dy="2.83"/><feGaussianBlur result="blur-5" stdDeviation="2.83"/><feFlood flood-color="#70410f" flood-opacity=".75"/><feComposite in2="blur-5" operator="in"/><feComposite in="SourceGraphic"/></filter><filter id="drop-shadow-6" filterUnits="userSpaceOnUse"><feOffset dx="2.83" dy="2.83"/><feGaussianBlur result="blur-6" stdDeviation="2.83"/><feFlood flood-color="#70410f" flood-opacity=".75"/><feComposite in2="blur-6" operator="in"/><feComposite in="SourceGraphic"/></filter><filter id="drop-shadow-7" filterUnits="userSpaceOnUse"><feOffset dx="2.83" dy="2.83"/><feGaussianBlur result="blur-7" stdDeviation="2.83"/><feFlood flood-color="#70410f" flood-opacity=".75"/><feComposite in2="blur-7" operator="in"/><feComposite in="SourceGraphic"/></filter><filter id="drop-shadow-8" filterUnits="userSpaceOnUse"><feOffset dx="2.83" dy="2.83"/><feGaussianBlur result="blur-8" stdDeviation="2.83"/><feFlood flood-color="#70410f" flood-opacity=".75"/><feComposite in2="blur-8" operator="in"/><feComposite in="SourceGraphic"/></filter><filter id="drop-shadow-9" filterUnits="userSpaceOnUse"><feOffset dx="2.83" dy="2.83"/><feGaussianBlur result="blur-9" stdDeviation="2.83"/><feFlood flood-color="#70410f" flood-opacity=".75"/><feComposite in2="blur-9" operator="in"/><feComposite in="SourceGraphic"/></filter><filter id="drop-shadow-10" filterUnits="userSpaceOnUse"><feOffset dx="2.83" dy="2.83"/><feGaussianBlur result="blur-10" stdDeviation="2.83"/><feFlood flood-color="#70410f" flood-opacity=".75"/><feComposite in2="blur-10" operator="in"/><feComposite in="SourceGraphic"/></filter><filter id="drop-shadow-11" filterUnits="userSpaceOnUse"><feOffset dx="2.83" dy="2.83"/><feGaussianBlur result="blur-11" stdDeviation="2.83"/><feFlood flood-color="#70410f" flood-opacity=".75"/><feComposite in2="blur-11" operator="in"/><feComposite in="SourceGraphic"/></filter><filter id="drop-shadow-12" filterUnits="userSpaceOnUse"><feOffset dx="2.83" dy="2.83"/><feGaussianBlur result="blur-12" stdDeviation="2.83"/><feFlood flood-color="#70410f" flood-opacity=".75"/><feComposite in2="blur-12" operator="in"/><feComposite in="SourceGraphic"/></filter><filter id="drop-shadow-13" filterUnits="userSpaceOnUse"><feOffset dx="2.83" dy="2.83"/><feGaussianBlur result="blur-13" stdDeviation="2.83"/><feFlood flood-color="#70410f" flood-opacity=".75"/><feComposite in2="blur-13" operator="in"/><feComposite in="SourceGraphic"/></filter><filter id="drop-shadow-14" filterUnits="userSpaceOnUse"><feOffset dx="2.83" dy="2.83"/><feGaussianBlur result="blur-14" stdDeviation="2.83"/><feFlood flood-color="#70410f" flood-opacity=".75"/><feComposite in2="blur-14" operator="in"/><feComposite in="SourceGraphic"/></filter><filter id="drop-shadow-15" filterUnits="userSpaceOnUse"><feOffset dx="2.83" dy="2.83"/><feGaussianBlur result="blur-15" stdDeviation="2.83"/><feFlood flood-color="#70410f" flood-opacity=".75"/><feComposite in2="blur-15" operator="in"/><feComposite in="SourceGraphic"/></filter><filter id="drop-shadow-16" filterUnits="userSpaceOnUse"><feOffset dx="2.83" dy="2.83"/><feGaussianBlur result="blur-16" stdDeviation="2.83"/><feFlood flood-color="#70410f" flood-opacity=".75"/><feComposite in2="blur-16" operator="in"/><feComposite in="SourceGraphic"/></filter><filter id="drop-shadow-17" filterUnits="userSpaceOnUse"><feOffset dx="2.83" dy="2.83"/><feGaussianBlur result="blur-17" stdDeviation="2.83"/><feFlood flood-color="#70410f" flood-opacity=".75"/><feComposite in2="blur-17" operator="in"/><feComposite in="SourceGraphic"/></filter><filter id="drop-shadow-18" filterUnits="userSpaceOnUse"><feOffset dx="2.83" dy="2.83"/><feGaussianBlur result="blur-18" stdDeviation="2.83"/><feFlood flood-color="#70410f" flood-opacity=".75"/><feComposite in2="blur-18" operator="in"/><feComposite in="SourceGraphic"/></filter><filter id="drop-shadow-19" filterUnits="userSpaceOnUse"><feOffset dx="2.83" dy="2.83"/><feGaussianBlur result="blur-19" stdDeviation="2.83"/><feFlood flood-color="#70410f" flood-opacity=".75"/><feComposite in2="blur-19" operator="in"/><feComposite in="SourceGraphic"/></filter><filter id="drop-shadow-20" filterUnits="userSpaceOnUse"><feOffset dx="2.83" dy="2.83"/><feGaussianBlur result="blur-20" stdDeviation="2.83"/><feFlood flood-color="#70410f" flood-opacity=".75"/><feComposite in2="blur-20" operator="in"/><feComposite in="SourceGraphic"/></filter><filter id="drop-shadow-21" filterUnits="userSpaceOnUse"><feOffset dx="2.83" dy="2.83"/><feGaussianBlur result="blur-21" stdDeviation="2.83"/><feFlood flood-color="#70410f" flood-opacity=".75"/><feComposite in2="blur-21" operator="in"/><feComposite in="SourceGraphic"/></filter><filter id="drop-shadow-22" filterUnits="userSpaceOnUse"><feOffset dx="2.83" dy="2.83"/><feGaussianBlur result="blur-22" stdDeviation="2.83"/><feFlood flood-color="#70410f" flood-opacity=".75"/><feComposite in2="blur-22" operator="in"/><feComposite in="SourceGraphic"/></filter><filter id="drop-shadow-23" filterUnits="userSpaceOnUse"><feOffset dx="2.83" dy="2.83"/><feGaussianBlur result="blur-23" stdDeviation="2.83"/><feFlood flood-color="#70410f" flood-opacity=".75"/><feComposite in2="blur-23" operator="in"/><feComposite in="SourceGraphic"/></filter><filter id="drop-shadow-24" filterUnits="userSpaceOnUse"><feOffset dx="2.83" dy="2.83"/><feGaussianBlur result="blur-24" stdDeviation="2.83"/><feFlood flood-color="#70410f" flood-opacity=".75"/><feComposite in2="blur-24" operator="in"/><feComposite in="SourceGraphic"/></filter><filter id="drop-shadow-25" filterUnits="userSpaceOnUse"><feOffset dx="2.83" dy="2.83"/><feGaussianBlur result="blur-25" stdDeviation="2.83"/><feFlood flood-color="#70410f" flood-opacity=".75"/><feComposite in2="blur-25" operator="in"/><feComposite in="SourceGraphic"/></filter><filter id="drop-shadow-26" filterUnits="userSpaceOnUse"><feOffset dx="2.83" dy="2.83"/><feGaussianBlur result="blur-26" stdDeviation="2.83"/><feFlood flood-color="#70410f" flood-opacity=".75"/><feComposite in2="blur-26" operator="in"/><feComposite in="SourceGraphic"/></filter></defs><g id="_層_1-2"><g><path class="cls-24" d="M147.08,449.87c-9.19,112,40.28,471.87,19.85,548.47-.76,2.86-39.46,352.46-32.72,361.53,10.19,13.71,42.66,6.11,49.02,4.08,108.39-34.58-17.25-797.16,10.21-927.32,1.3-6.18,8.04-35.02-2.04-40.85-12.76-7.39-43.37,42.53-44.32,54.09Z"/><line class="cls-12" x1="332.72" y1="376.19" x2="540.64" y2="1277.13"/><path class="cls-6" d="M549.83,1027.46c-9.81-5.02-18.26-12.03-36.77-36.77-20.4-27.26-30.6-40.89-38.3-59.74-10.58-25.89-2.91-24.48-15.32-58.21-7.85-21.35-14.73-32.3-9.19-42.89,5.87-11.21,21.22-13.54,22.98-13.79,13.65-1.89,24.13,5.24,27.57,7.66,15.18,10.66,16.89,25.97,26.04,53.62,7.3,22.06,14.67,44.33,29.11,67.4,14.97,23.93,27.43,32.59,33.7,58.21,2.2,9.01,5.35,22.59-1.53,29.11-9.76,9.23-33.09-1.93-38.3-4.6Z"/><path class="cls-10" d="M544.98,907.56c-10.55,12.03-13.47,29.82-18.38,59.74-3.8,23.15-3.35,42.04-3.06,49.02,.82,20.34,3.61,24.25,4.6,41.36,1.22,21.12-2.38,26.29-6.13,58.21-5.48,46.72,1.1,45.38-4.6,82.72-4.99,32.72-11.02,40.24-4.6,50.55,6.89,11.07,24.09,14.17,58.21,19.92,8.39,1.41,14.54,2.2,53.62,6.13,33.31,3.35,50.04,5.02,53.62,4.6,28.27-3.31,35.54-14.75,64.34-13.79,14,.47,17.82,3.36,21.45,0,9.5-8.8-10.21-34.69-26.04-93.45-4.36-16.17-8.89-33.33-10.72-56.68-1.44-18.29,.28-21.26-1.53-39.83-2.29-23.44-5.42-22.7-10.72-55.15-5.95-36.46-4.96-55.55-4.6-61.28,.9-14.03,2.32-13.96,1.53-18.38-7.18-40.3-130.22-75.62-166.98-33.7Z"/><path class="cls-3" d="M556.15,1264.79c11.78-10.57,35.99-11.35,45.96,0,4.72,5.38,5.19,12.78,6.13,27.57,.59,9.25,.88,13.87-1.53,16.85-4.94,6.1-13.85,1.39-36.77,1.53-19.65,.12-25.9,3.65-36.77-1.53-5.13-2.45-12.99-7.65-12.26-12.26,.81-5.1,11.27-3.81,21.45-12.26,9.1-7.55,6.44-13.32,13.79-19.91Z"/><path class="cls-8" d="M652.7,1264.79c11.78-10.57,35.99-11.35,45.96,0,4.72,5.38,5.19,12.78,6.13,27.57,.59,9.25,.88,13.87-1.53,16.85-4.94,6.1-13.85,1.39-36.77,1.53-19.65,.12-25.9,3.65-36.77-1.53-5.13-2.45-12.99-7.65-12.26-12.26,.81-5.1,11.27-3.81,21.45-12.26,9.1-7.55,6.44-13.32,13.79-19.91Z"/><path class="cls-22" d="M600.92,982.37c.06,10.74,1.22,14.16,1.53,35.23,.11,7.21,.07,15.02,0,30.64-.09,19.39-.22,20.61,0,26.04,.11,2.77,.64,15.1,3.06,30.64,1.29,8.3,3.67,21.01,10.72,44.43,11,36.51,13.2,32.1,21.45,61.28,4.66,16.48,6.66,27.44,15.32,42.89,6.73,12,10.09,18.01,16.85,21.45,13.04,6.63,22.1-3.22,58.21-9.19,21.66-3.58,30.62,5.2,35.98,.25,16.84-15.58-4.04-64.52-6.87-72.25-15.21-41.65-37.8-47.17-38.3-78.13-.18-11.06,2.73-8.54,6.13-38.3,2.37-20.77,2.82-38.35,3.06-49.02,.43-18.33-.35-16.84,0-33.7,.83-40.53,5.22-45.12,0-53.62-6.53-10.64-22.74-13.22-55.15-18.38-32.45-5.17-48.68-7.76-58.21,0-14.07,11.45-13.93,35.97-13.79,59.74Z"/><path class="cls-7" d="M166.17,121.4c7-2.44-2.21-24.38,10.21-40.85,12.38-16.41,37.15-15.36,36.77-20.43-.33-4.45-19.05-.8-32.68-12.26-16.94-14.23-11.39-39.47-20.43-41.21-7.26-1.4-8.36,24.08-26.61,38.06-20.71,15.86-41.69,3.26-42.83,11.32-1.21,8.54,26.87,2.3,51.57,25.45,18.39,17.23,18.13,41.96,24,39.92Z"/><path class="cls-20" d="M693.72,980.26c-9.29-7.07-24.4-15.53-65.87-19.91-33.33-3.52-31.99,1.05-70.47-1.53-39.55-2.65-53.33-8.31-62.81,1.53-8.53,8.86-8.79,25.32-3.06,36.77,7.17,14.33,22.6,18.55,27.57,19.92,22.24,6.09,31.14-6.71,68.94-10.72,19.28-2.05,31.28-3.32,45.96,1.53,27.31,9.03,32.14,28.78,50.55,27.57,13.83-.9,28.14-13.16,29.11-26.04,.99-13.19-12.3-23.31-19.91-29.11Z"/><path class="cls-1" d="M522.06,1069.09c6.09-7.92,28.09,4.61,65.87,12.26,15.87,3.21,29.98,4.18,58.21,6.13,52.02,3.58,70.2-.18,78.13,12.26,5.22,8.19,4.33,20.8-1.53,26.04-6.44,5.75-16.87,.84-38.3-4.6-2.07-.52-23.33-3.92-65.87-10.72-21.26-3.4-38.95-5.97-50.55-7.66-17.53-2.55-42.89-6.13-42.89-6.13h0s-8.4-20.64-3.06-27.57Z"/><path class="cls-14" d="M593.46,911.25c13.5,47.29-24.56,87.06,12.81,40.8,13.35-16.52,47.38-74.52-12.81-40.8Z"/><path class="cls-2" d="M641.29,1055.67c-12.79-7.79-8.98-19.66-23.44-50.29-14.65-31.04-20.09-43.38-15.72-49.89,3.96-5.9,8.03,2.75,51.08,7.77,20.54,2.4,30.81,3.6,42,3.07,28.68-1.35,39.75-9.41,46.5-2.76,6.59,6.5-1.94,16.22-.48,43.28,1.23,22.88,7.95,27.59,3.36,35.51-4.14,7.15-12.23,7.82-56.15,12.48-36.9,3.92-41.12,4.49-47.15,.82Z"/><path class="cls-15" d="M458.74,835.14c2.98-12.62,8.54-18.06-4.93-17.84-4.5,.07,1.76,3.11-1.47,7.3-.72,.93-16.33-1.13-15.6,17.16,.18,4.5-.93,2.37,2.03,7.37,4.91,8.3,16.4,7.55,18.03,4.6,1.54-2.79-2.17-1.15,1.94-18.59Z"/><path class="cls-13" d="M487.03,976.84c1.05-12.92,5.73-19.14-7.55-16.9-4.44,.75,2.21,2.81-.36,7.44-.57,1.03-16.32,1.33-12.85,19.3,.85,4.42-.56,2.48,3.11,6.99,6.1,7.47,17.35,5,18.52,1.84,1.11-2.99-2.32-.81-.87-18.67Z"/><path class="cls-26" d="M295.51,218.13c-5.43,.88-7.27,24.6-10.72,72-4.16,57.17-2.24,66.77,3.06,76.6,9.26,17.15,19.12,17.01,29.11,39.83,7.04,16.08,5.97,24.9,15.32,32.17,9.1,7.08,22.92,8.69,33.7,4.6,3.54-1.34,8.82-4.09,29.11-35.23,9.7-14.9,14.6-22.48,16.85-29.11,6.29-18.5,6.52-42.73-1.53-45.96-9.72-3.9-27.35,24.5-32.17,21.45-3.68-2.33,6.93-18.66,9.19-41.36,2.81-28.19-7.87-59.94-19.91-61.28,0,0-7.63-.84-33.7,38.3,0,0-25.45-74.07-38.3-72Z"/><path class="cls-11" d="M335.31,398.59c-4.87-5.11-20.71-22.74-29.11-55.15-4.51-17.41-6.42-37.35-3.06-38.3,4.78-1.35,16.81,36.7,22.98,35.23,6.83-1.62,.93-50.32,3.06-50.55,2.25-.25,6.82,54.55,16.85,55.15,7.9,.47,15.15-32.91,18.38-32.17,4.73,1.08-11.62,72.36,0,76.6,6.38,2.32,16.88-17.09,19.91-15.32,3.89,2.27-5,39.02-22.98,41.36-8.89,1.16-16.25-6.58-26.04-16.85Z"/><path class="cls-4" d="M77.06,359.97c17.05,13.87,32.98,22.84,44.94,28.6,21.47,10.33,36.82,17.71,57.19,16.34,20.2-1.36,35.57-10.67,44.94-16.34,25.59-15.49,31.61-31.21,38.81-28.6,9.11,3.31,12.27,33.13,0,55.15-13.94,25.02-45.21,35.35-69.45,34.72-22.05-.57-22.66-9.8-63.32-22.47-40.73-12.7-58.61-9.2-65.36-22.47-3.69-7.25-4.41-20.2,12.26-44.94Z"/><path class="cls-21" d="M63.99,215.77c6.23,30.18,8.91,54.87,10.21,71.49,3.66,46.62-.99,62.08,12.26,81.7,12.87,19.07,33.52,28.54,46.98,34.72,11.63,5.34,26.15,12,44.94,12.26,30.1,.4,64.52-15.74,79.66-42.89,14.07-25.23-.27-38.86,0-96,.31-65.14,19.19-100.53,8.17-106.21-12.96-6.68-35.7,44.06-85.79,61.28-42.92,14.75-87.22-1.54-116.43-16.34Z"/><path class="cls-5" d="M153.66,103.68c-21.15,4.52-17.07,35.54-44.94,51.06-40.99,22.84-95.46-18.86-102.13-8.17-6.04,9.68,33.75,51.83,85.79,79.66,29.53,15.79,55.83,29.86,87.83,28.6,92.32-3.65,152.85-131.79,147.06-136.85-3.86-3.37-34.39,50.27-77.62,46.98-45.85-3.49-65-67.9-96-61.28Z"/><path class="cls-29" d="M166.82,103.21c-33.39-9.46-36.62,54.31-67.08,55.48-43.76,1.69-87.45-21.12-93.01-14.78-4.96,5.67,50.06,78.91,84.12,67.03,31.51-10.99,54.68-72.75,76.16-40.7,13.75,20.52,51.86,54.46,72.67,40.57,56.32-37.61,90.89-90.34,87.59-92.82-3.9-2.93-28.65,43.36-83.23,47-20.63,1.37-50.73-54.27-77.22-61.77Z"/><path class="cls-16" d="M586.56,801.2c-6.79,6.39-8.48,17.45-22.72,25.75-11.76,6.85-17.59,3.4-27.27,10.6-14.55,10.84-16.5,29.95-16.66,31.81-1.47,16.78,7.23,29.08,16.66,42.42,4.53,6.41,14.27,18.68,30.3,28.78,7.3,4.61,14.97,7.62,30.3,13.63,9.05,3.55,19.89,7.81,34.84,12.12,11.05,3.19,28.63,8.17,51.51,10.6,21.59,2.3,33.33,3.03,33.33,3.03,12.97,.81,16.62,.59,22.72,3.03,12.42,4.97,14.01,12.55,21.21,12.12,9.35-.57,15.49-13.88,18.18-19.69,2.56-5.55,9.67-20.96,3.03-30.3-5.79-8.14-16.18-3.45-24.24-10.6-10.9-9.67-4.42-29.33-4.54-42.42-.58-58.88-136.35-119.4-166.64-90.89Z"/><path class="cls-27" d="M581.31,776.84c-7.56,4.42-17.69,20.82-17.7,20.83,0,.01-5.4,14.84,4.81,17.27,7.24,1.72,16.71,1.64,20.39,3.96,4.14,2.61,1.19,11.26,5.81,14.97,5.39,4.33,16.3-5.08,22.27-.5,4.37,3.35-1.26,13.06,3.28,17.16,6.63,5.98,25.91-8.14,29.49-3.86,3.32,3.97-10.89,19-7.88,22.44,3.55,4.06,26.67-13.19,31.37-8.33,3.64,3.76-7.12,17.28-3.18,21.26,3.92,3.97,16.4-7.54,24.79-2.69,6.31,3.65-1.99,13.89,4.82,21.04,9.16,9.62,27.88,.26,32.88,8,4.07,6.3-4.43,12.69-5.54,31.84-.49,8.58-1.08,18.76,5.74,25.03,5.52,5.07,15.3,7.04,21.26,3.18,11.32-7.33,4.77-33.04,3.07-39.71-5.39-21.16-17.21-35.12-20.07-38.43-19.19-22.18-117.47-135.73-155.62-113.46Z"/><g class="cls-19"><path class="cls-25" d="M652.64,738.25c-22.97-13.06-75.8-28.32-88.34-16.84-14.71,13.47-3.03,46.99,29.65,72.37,27.7,21.51,106.05,99.59,120.16,87.7,16.44-13.85-14.9-116.76-61.46-143.24Z"/><path class="cls-9" d="M651.5,739.07c-12.33,41.86,28.61,112.52,34,124.08,10.94,23.48,48.62,90.78,79.28,94.46,61.09,7.35,48.61-8.98,68.26-11.91,15.26-2.27,29.21-47.8,24.22-64.48-3.78-12.62-25.57-34.53-29.08-39.78-2.58-3.86,7.74-11.42,12.75-18.9,9.35-13.98-12.69-39.08-35.68-49.94-21.54-10.17-28.11,.12-44.76-9.22-16.64-9.33-18.5-14.99-31.69-30.19-13.69-15.77-71.01-15.49-77.3,5.87Z"/><path class="cls-23" d="M668.09,786.69c-21.28,13.31,13.85,65.3,19.24,76.86,10.94,23.48,27.42,55.62,57.58,49.63,21.85-4.34,17.24-7.4,25.14-11.48,13.26-6.85,28.33-15.81,36.75-28.39,7.57-11.31,14.8-21.21,23.21-31.47,2.98-3.64,7.74-11.42,12.75-18.9,9.35-13.98-12.69-39.08-35.68-49.94-21.54-10.17-30-1.58-49.09,3.26-11.05,2.8-20.03,7.42-40.86,1.01-16.58-5.11-29.75-2.65-49.04,9.41Z"/></g><ellipse class="cls-17" cx="564.25" cy="847.04" rx="9.19" ry="15.39" transform="translate(-441 687.89) rotate(-47.33)"/><ellipse class="cls-18" cx="649.42" cy="901.94" rx="9.19" ry="15.39" transform="translate(-401.99 1262.17) rotate(-73.16)"/><ellipse class="cls-28" cx="571.07" cy="897.14" rx="8.84" ry="15.31" transform="translate(-372.06 405.73) rotate(-30)"/></g></g></svg>