<?xml version="1.0" encoding="UTF-8"?><svg id="_層_2" xmlns="http://www.w3.org/2000/svg" xmlns:xlink="http://www.w3.org/1999/xlink" viewBox="0 0 406.38 553"><defs><style>.cls-1{filter:url(#drop-shadow-18);}.cls-1,.cls-2,.cls-3{fill:#fbd2a7;}.cls-4{fill:#f5cd50;}.cls-5{filter:url(#drop-shadow-14);}.cls-6{fill:none;filter:url(#drop-shadow-17);stroke:#000;stroke-miterlimit:10;stroke-width:5px;}.cls-7{fill:#bddaa1;filter:url(#drop-shadow-10);}.cls-8{fill:#dfb04c;filter:url(#drop-shadow-9);}.cls-9{filter:url(#drop-shadow-1);}.cls-10{filter:url(#drop-shadow-5);}.cls-10,.cls-11{fill:#897752;}.cls-12{filter:url(#drop-shadow-4);}.cls-12,.cls-13,.cls-14,.cls-15{fill:#a0b06c;}.cls-16{fill:#b2996d;filter:url(#drop-shadow-7);}.cls-13{filter:url(#drop-shadow-2);}.cls-17,.cls-18{opacity:.55;}.cls-19{filter:url(#drop-shadow-15);}.cls-19,.cls-20{fill:#634932;}.cls-14{filter:url(#drop-shadow-12);}.cls-21,.cls-18{fill:#e59f13;}.cls-20{filter:url(#drop-shadow-16);}.cls-2{filter:url(#drop-shadow-13);}.cls-3{filter:url(#drop-shadow-8);}.cls-15{filter:url(#drop-shadow-3);}.cls-22{fill:#f0d351;filter:url(#drop-shadow-11);}.cls-11{filter:url(#drop-shadow-6);}</style><filter id="drop-shadow-1" filterUnits="userSpaceOnUse"><feOffset dx="2.83" dy="2.83"/><feGaussianBlur result="blur" stdDeviation="2.83"/><feFlood flood-color="#70410f" flood-opacity=".75"/><feComposite in2="blur" operator="in"/><feComposite in="SourceGraphic"/></filter><filter id="drop-shadow-2" filterUnits="userSpaceOnUse"><feOffset dx="2.83" dy="2.83"/><feGaussianBlur result="blur-2" stdDeviation="2.83"/><feFlood flood-color="#70410f" flood-opacity=".75"/><feComposite in2="blur-2" operator="in"/><feComposite in="SourceGraphic"/></filter><filter id="drop-shadow-3" filterUnits="userSpaceOnUse"><feOffset dx="2.83" dy="2.83"/><feGaussianBlur result="blur-3" stdDeviation="2.83"/><feFlood flood-color="#70410f" flood-opacity=".75"/><feComposite in2="blur-3" operator="in"/><feComposite in="SourceGraphic"/></filter><filter id="drop-shadow-4" filterUnits="userSpaceOnUse"><feOffset dx="2.83" dy="2.83"/><feGaussianBlur result="blur-4" stdDeviation="2.83"/><feFlood flood-color="#70410f" flood-opacity=".75"/><feComposite in2="blur-4" operator="in"/><feComposite in="SourceGraphic"/></filter><filter id="drop-shadow-5" filterUnits="userSpaceOnUse"><feOffset dx="2.83" dy="2.83"/><feGaussianBlur result="blur-5" stdDeviation="2.83"/><feFlood flood-color="#70410f" flood-opacity=".75"/><feComposite in2="blur-5" operator="in"/><feComposite in="SourceGraphic"/></filter><filter id="drop-shadow-6" filterUnits="userSpaceOnUse"><feOffset dx="2.83" dy="2.83"/><feGaussianBlur result="blur-6" stdDeviation="2.83"/><feFlood flood-color="#70410f" flood-opacity=".75"/><feComposite in2="blur-6" operator="in"/><feComposite in="SourceGraphic"/></filter><filter id="drop-shadow-7" filterUnits="userSpaceOnUse"><feOffset dx="2.83" dy="2.83"/><feGaussianBlur result="blur-7" stdDeviation="2.83"/><feFlood flood-color="#70410f" flood-opacity=".75"/><feComposite in2="blur-7" operator="in"/><feComposite in="SourceGraphic"/></filter><filter id="drop-shadow-8" filterUnits="userSpaceOnUse"><feOffset dx="2.83" dy="2.83"/><feGaussianBlur result="blur-8" stdDeviation="2.83"/><feFlood flood-color="#70410f" flood-opacity=".75"/><feComposite in2="blur-8" operator="in"/><feComposite in="SourceGraphic"/></filter><filter id="drop-shadow-9" filterUnits="userSpaceOnUse"><feOffset dx="2.83" dy="2.83"/><feGaussianBlur result="blur-9" stdDeviation="2.83"/><feFlood flood-color="#70410f" flood-opacity=".75"/><feComposite in2="blur-9" operator="in"/><feComposite in="SourceGraphic"/></filter><filter id="drop-shadow-10" filterUnits="userSpaceOnUse"><feOffset dx="2.83" dy="2.83"/><feGaussianBlur result="blur-10" stdDeviation="2.83"/><feFlood flood-color="#70410f" flood-opacity=".75"/><feComposite in2="blur-10" operator="in"/><feComposite in="SourceGraphic"/></filter><filter id="drop-shadow-11" filterUnits="userSpaceOnUse"><feOffset dx="2.83" dy="2.83"/><feGaussianBlur result="blur-11" stdDeviation="2.83"/><feFlood flood-color="#70410f" flood-opacity=".75"/><feComposite in2="blur-11" operator="in"/><feComposite in="SourceGraphic"/></filter><filter id="drop-shadow-12" filterUnits="userSpaceOnUse"><feOffset dx="2.83" dy="2.83"/><feGaussianBlur result="blur-12" stdDeviation="2.83"/><feFlood flood-color="#70410f" flood-opacity=".75"/><feComposite in2="blur-12" operator="in"/><feComposite in="SourceGraphic"/></filter><filter id="drop-shadow-13" filterUnits="userSpaceOnUse"><feOffset dx="2.83" dy="2.83"/><feGaussianBlur result="blur-13" stdDeviation="2.83"/><feFlood flood-color="#70410f" flood-opacity=".75"/><feComposite in2="blur-13" operator="in"/><feComposite in="SourceGraphic"/></filter><filter id="drop-shadow-14" filterUnits="userSpaceOnUse"><feOffset dx="2.83" dy="2.83"/><feGaussianBlur result="blur-14" stdDeviation="2.83"/><feFlood flood-color="#70410f" flood-opacity=".75"/><feComposite in2="blur-14" operator="in"/><feComposite in="SourceGraphic"/></filter><filter id="drop-shadow-15" filterUnits="userSpaceOnUse"><feOffset dx="2.83" dy="2.83"/><feGaussianBlur result="blur-15" stdDeviation="2.83"/><feFlood flood-color="#70410f" flood-opacity=".75"/><feComposite in2="blur-15" operator="in"/><feComposite in="SourceGraphic"/></filter><filter id="drop-shadow-16" filterUnits="userSpaceOnUse"><feOffset dx="2.83" dy="2.83"/><feGaussianBlur result="blur-16" stdDeviation="2.83"/><feFlood flood-color="#70410f" flood-opacity=".75"/><feComposite in2="blur-16" operator="in"/><feComposite in="SourceGraphic"/></filter><filter id="drop-shadow-17" filterUnits="userSpaceOnUse"><feOffset dx="2.83" dy="2.83"/><feGaussianBlur result="blur-17" stdDeviation="2.83"/><feFlood flood-color="#70410f" flood-opacity=".75"/><feComposite in2="blur-17" operator="in"/><feComposite in="SourceGraphic"/></filter><filter id="drop-shadow-18" filterUnits="userSpaceOnUse"><feOffset dx="2.83" dy="2.83"/><feGaussianBlur result="blur-18" stdDeviation="2.83"/><feFlood flood-color="#70410f" flood-opacity=".75"/><feComposite in2="blur-18" operator="in"/><feComposite in="SourceGraphic"/></filter></defs><g id="_層_1-2"><g><g class="cls-9"><path class="cls-4" d="M207.06,285.06c-3.67,2.36-6.17,7.29-6.21,11.86-.05,5.16,3.05,8.61,6.21,12.71,14.55,18.85,12.61,28.33,21.74,31.34,2.85,.94,6.82,.06,14.75-1.69,13.14-2.9,16.47-6.29,26.4-8.47,7.81-1.72,13.63-1.35,21.74-.85,15.53,.97,24.31,1.52,32.62,8.47,8.53,7.15,11.65,16.93,12.42,19.48,3.08,10.09,1.25,17.76,1.55,17.79,.81,.07,15.72-52.48-4.66-72.85-9.41-9.4-24.34-9.95-30.29-10.17-15.01-.55-16.55,5.54-32.62,5.93-15.53,.37-29.97-4.94-37.27-7.62-13.28-4.88-20.21-9.9-26.4-5.93Z"/><g class="cls-17"><path class="cls-21" d="M401.59,355.38c-.67-1.59-7.45-10.2-12.61-10.47-2.75-.77-7.23,.08-12.46,1.4-3.95,.89-6.51,1.06-10.34,1.5-4.32,.29-5.02-1.08-7.27-1.37-4.8-.92-7.99-3.9-7.99-3.83-2.59-2.6-3.72-3.31-4.29-4-1.57-2.06-3.18-2.62-4.21-5.3-.9-2.27,1.48-.53,2.07-.29,.71,.65,3.45,4.16,3.48,3.95,.15-.19,3.09,3.05,4.56,4.04,1.7,.24-1.04,1.29,9.82,2.9,2.66-.13,4.52,.42,7.92-.65,3.11-1.04,4.35-.69,6.4-1.13,2.88-.39,2.89-.72,9.19-.88,3.01,.2,5.14,.23,7.52,1.7,1.95,1.05,5.03,4.87,5.11,5.24,.12-.19,5.43,8.08,5.57,9.21,.13,.43-1.1-1.79-.91-1.18,.18,.26,3.96,8.93,2.16,5.57-1.24-2.37-2.62-4.99-3.7-6.42Z"/></g><g class="cls-17"><path class="cls-21" d="M395.71,386.32c-.67-1.59-7.45-10.2-12.61-10.47-2.75-.77-7.23,.08-12.46,1.4-3.95,.89-6.51,1.06-10.34,1.5-4.32,.29-5.02-1.08-7.27-1.37-4.8-.92-7.99-3.9-7.99-3.83-2.59-2.6-3.72-3.31-4.29-4-1.57-2.06-3.18-2.62-4.21-5.3-.9-2.27,1.48-.52,2.07-.29,.71,.65,3.45,4.16,3.48,3.95,.15-.19,3.09,3.05,4.56,4.04,1.7,.24-1.04,1.29,9.82,2.9,2.66-.13,4.52,.42,7.92-.65,3.11-1.04,4.35-.69,6.4-1.13,2.88-.39,2.89-.72,9.19-.88,3.01,.2,5.14,.23,7.52,1.7,1.95,1.05,5.03,4.87,5.11,5.24,.12-.19,5.43,8.08,5.57,9.21,.13,.43-1.1-1.79-.91-1.18,.18,.26,3.96,8.93,2.16,5.57-1.24-2.37-2.62-4.99-3.7-6.42Z"/></g><g class="cls-17"><path class="cls-21" d="M402.19,372.23c-.67-1.59-7.45-10.2-12.61-10.47-2.74-.77-7.23,.08-12.46,1.4-3.95,.89-6.51,1.06-10.34,1.5-4.32,.29-5.02-1.08-7.27-1.37-4.8-.92-7.99-3.9-7.99-3.83-2.59-2.6-3.72-3.31-4.29-4-1.57-2.06-3.18-2.62-4.21-5.3-.9-2.27,1.48-.53,2.07-.29,.71,.65,3.45,4.16,3.48,3.95,.15-.19,3.09,3.05,4.56,4.04,1.7,.24-1.04,1.29,9.82,2.9,2.66-.13,4.52,.42,7.92-.65,3.11-1.04,4.35-.69,6.4-1.13,2.88-.39,2.89-.72,9.19-.88,3.01,.2,5.14,.23,7.52,1.7,1.95,1.05,5.03,4.87,5.11,5.24,.12-.19,5.43,8.08,5.57,9.21,.13,.43-1.1-1.79-.91-1.18,.18,.26,3.96,8.93,2.16,5.57-1.24-2.37-2.62-4.99-3.7-6.42Z"/></g><path class="cls-18" d="M269.06,323.46c-.35-3.46,.17-6.24,.08-7.62-.16-2.37,.53-6.31,1.61-9.18,.75-2,2.41-5.71,3-7.56,.45-1.4,1.37,.5,3.52-1.41,1.25,1.31,6.02-3.16,5.63-2.05-2.91,8.41-2.3,6.8-5.12,13.37-3.92,9.14-1.82,4.81-3.96,9.39-2.1,4.5-5.13,19.59-4.81,8.74,.08-2.83,.12-2.08,.15-1.61,0,0-.1-2.07-.1-2.08Z"/></g><path class="cls-13" d="M80.92,262.88c9.23,7.11,7.57,11.79,9.56,24.43,2.33,14.78-2.65,12.89-5.72,32.75-2.59,16.8-8.84,23.83-13.21,38.94-5.47,18.9-6.95,22.18-12.61,27.81-3.57,3.56-2.69,7.04-3.84,8.77-1.14,1.71,.16,2.3-3.91,7.83-3.28,4.45-3.73,3.49-7.24,1.74-5.21-2.6-1.07-1.52-12.96-8.64-3.86-2.31-10.48-9.03-13.26-12.01-1.8-1.93,.94-4.9-3.49-13.49-3.12-6.05,2.61-16.45,6.9-25.57,5.62-11.96,15.38-28.6,16.89-32.13,4.38-10.21,2.1-13.36,13.87-36.43,3.54-6.95,3.18-14.19,8.32-16.39,7.79-3.32,14.41-2.46,20.7,2.39Z"/><path class="cls-15" d="M124.58,380.94c2.18-2.36,4.68-1.87,26.79,1.27,22.52,3.2,33.9,4.8,39.6,5.08,5.34,.26,8.96,.35,13.26,4.55,14.82,14.47,24.66,43.71,27.72,58.51,2.88,13.92-.64,26.04-.63,31.05,0,5.82,.71,11.65-.35,14.47l-.97,3.18c-1.65,2.03-2.46,2.39-3.68,3.58-1.51,1.47,0,.75-1.97,2.16-3.09,2.21-2.07,.66-7.06,1.29-8.88,1.12,7.46,.48-15.88-.24-7.58-.23-11.65-1.41-11.65-1.41l-9.53-3.88s-6.67-.73-8.82-4.24c-16.78-27.35-25.03-39.32-34.01-62.01-16.76-42.32-15.98-49.94-12.81-53.37Z"/><path class="cls-12" d="M67,378.98c5.98,1.09,.42-1.63,21.18,.47,25.51,2.58,25.53,1.42,31.53,.94,6.82-.55,9.57,1.13,11.76,3.29,5.46,5.38-3.94,26.52-2.59,36.47,1.47,10.8,1.42,23.49-3.95,40.94-1.52,4.94-5.95,19.4-3.11,28.16,1.73,5.34,3.26,5.64,4.11,9.12,.63,2.58-2.94-.39-6.31-.75s-2.16-.28-6.03-.53c-4.41-.29-15.94-.29-23.06,0-3.67,.15-8.94,.77-10,1.36-1.51,.84-4.85,1.31-6.88,.41-3.79-1.68-3-.71-2.12-4.94,1.41-6.79-3.32-14.59-5.65-17.12-4.06-4.41-3.88-5.82-6.94-15.92-1.71-5.64-3.39-11.28-5.12-19.32-3.38-15.7,.11-33.86-3.76-49.41-2.89-11.63,.55-9.57,4.24-12.71,2.25-1.91,9.09-1.13,12.71-.47Z"/><path class="cls-10" d="M78.47,491.03c11.83,2.61,41.21-3.27,45.18,2.35,3.8,31.47,2.08,26.59,1.88,30.59-.56,11.52-17.1,8.84-28.94,8.47-7.53-.24-22.68-.43-40.24-1.18-11.06-.47-13.83-4.56-16.47-8.24-7.76-10.82,35.41-32.7,38.59-32Z"/><path class="cls-11" d="M218.13,496.86c-11.83,2.61-41.21-3.27-45.18,2.35-3.8,31.47-2.08,26.59-1.88,30.59,.56,11.52,17.1,8.84,28.94,8.47,7.53-.24,22.68-.43,40.24-1.18,11.06-.47,13.83-4.56,16.47-8.24,7.76-10.82-35.41-32.7-38.59-32Z"/><path class="cls-16" d="M240.39,507.03c-3.53-.35-23.5-.27-27,5.65-2.29,3.88-12.32,20.63-8.82,22.59,7.03,3.93,9.53,4.94,19.94,5.65,8.19,.56,17.01-.89,34.41-1.59,5.69-.23,2.93-9.53,1.24-13.72-4.71-11.65-16.52-18.25-19.76-18.57Z"/><path class="cls-3" d="M228.2,234.67c-1.15,1.3-10.98,12.25-25.63,18.64-14.83,6.47-27.71,5.25-47.37,3.39-16.83-1.59-17.63,.37-33.38,.31-9.3-.04-16.23,.88-27,2.12-8.71,1-16,1.12-23.12,.53-13.27-1.1-24.74-8.83-29.87-20.74-1.85-4.29-5.12-11.88-3.88-21.18,1.69-12.69,9.95-14.74,11.65-29.65,.5-4.38,1.21-10.56-1.55-16.94-2.14-4.96-4.6-5.92-4.66-9.32-.11-6.49,8.49-13.92,14.75-12.71,2.69,.52,9.69-.95,11.8-.36,0,0,4.12,.98,6.35,1.65,13.19,3.96,3.31-.48,12,1,6.09,1.04,4.14,1.97,7.47,1.59,3.31-.38,6.7-.33,12-2.47,8.49-3.43,11.69-1.81,18.53-4.94,4.9-2.25,9.9,3.2,15.71,.15,7.01-3.68,8.67,4.59,15.35,.91,4.92-2.71,15.15-1.2,17.27-1.75,3.47-.9,6.12,11.52,14.32,10.75,6.47-.61,15.51,3.53,20.62,3.65,5.23,.12,8.44,30.65,14.75,30.5,1.28-.03,3.03-1.34,3.95-2.21,2.9-2.75,2.67-6.14,3.82-6.27,1.78-.2,1.88,7.99,6.99,13.55,4.84,5.27,9.55,3.18,10.87,6.78,1.15,3.15-1.71,6.79-13.98,22.87-7.68,10.06-7.48,9.84-7.77,10.17Z"/><path class="cls-8" d="M145.23,171.29c8.8-4.16,24.83,23.3,29.51,19.49,2.77-2.26-.72-13.66,0-13.92,1.44-.53,11.33,46.92,20.19,46.39,7.56-.45,10.56-35.67,16.31-35.26,5.21,.37,5.55,29.6,12.42,30.62,5.82,.87,12.17-19.13,13.2-18.56,1.34,.74-9.3,34.34-9.32,34.33-.02-.01,5.58-32.67,17.86-35.26,12.54-2.64,24.91,27.56,30.29,24.12,3.15-2.01,1.21-13.86-.48-24.19-2.77-16.9-7.31-28.23-6.51-28.69,1.36-.79,14.78,32.03,17.86,30.62,3.92-1.8-14.94-56.27-4.66-64.02,7.74-5.84,28.06,17.78,29.51,15.77,2.2-3.03-48.19-51.99-41.93-64.95,4.57-9.46,37.67,3.62,38.05,1.86,.57-2.61-74.09-23.01-73-37.11,.71-9.24,33.64-12.39,33.39-14.85-.43-4.21-96.88,12.1-100.95-5.57-2.05-8.9,20.03-23.3,18.64-25.98-2.37-4.55-63.49,42.28-74.55,27.84-4.44-5.8,17.32-6.11,2.14-9.2-31.15-6.34-43.54,43.24-55.21,48.43-13.56,6.03-15.28-29.96-19.41-28.33-5.51,2.17-17.02,36.19-11.38,62.4,.8,3.7-12.26-2.48-16.85-5.96-4.97-3.77,2.41,19.99,11.42,40.29,1.78,4.02-16.87,23.03-15.65,25.04,1.44,2.38,19.76,0,32.74-6.48,6.2-3.1,.09,9.19-8.03,16.92-5.11,4.87,30.92-3,33.53-15.85,1.41-6.96-5.47,13.15,11.29,29.77,7.41,7.35-1.14-32.54,13.68-38.26,6.21-2.4,8.21,31.76,12.42,31.55,4.54-.22,.54-40.79,4.46-36.27,31.91,36.8,20.26,51.88,24.24,51.47s5.72-23.9,14.79-28.19Z"/><path class="cls-7" d="M57.38,283.93c-12.48,11.73-2.8,33.42-13.3,60.65-7.94,20.6-9.21,45.47,5.53,57.09,2,1.58,5.16,3.49,20.19,5.08,22.01,2.34,32.28,.05,48.15,0,27.18-.09,23.48,.27,57.07,1.35,16.95,.55,21.73-.32,35.65,3.18,14.03,3.53,15.63,3.33,20.12,.71,8.07-4.73,9.71-14.24,4.42-56.06-8.61-68.13-23.25-68.9-31.6-78.76-3.88-4.59-17.3-15.33-30.35-14.12s-24.84,1.66-30.71,1.75c-18.98,.3-29.65,.15-48,0-13.67-.11-23.37,6.16-37.17,19.13Z"/><path class="cls-22" d="M212.9,144.74c-9.07,.44-14.81,23.18-19.8,21.36-1.63-.6-1.27-3.12-4.14-9.64-3.39-7.7-8.02-13.56-8.8-13.05-.77,.51,2.24,7.28,1.55,7.71-1.08,.68-9.69-15.27-10.35-14.83-.6,.4,6.99,13.07,4.92,15.43-4.01,4.56-41.85-32.5-44.26-29.37-.56,.73,1.44,2.84,2.59,8.01,1.15,5.15,1.56,13.81-1.04,15.72-6.56,4.83-29.69-35.6-41.67-29.96-8.1,3.81-6.55,26.56-10.35,26.7-2.29,.08-2.15-14.99-5.95-15.72-2.1-.41-4.16,3.72-5.69,6.23-8.63,14.13-27.57,21.4-31.32,17.21-3.87-4.33,5.48-24.17,16.05-37.38,8.55-10.68,17.34-16.3,23.04-19.87,16.84-10.56,31.9-13.22,39.86-14.54,20.25-3.35,36.51-.42,44.52,1.48,3.99,.95,18.53,4.63,35.2,14.83,7.22,4.42,13.78,8.51,20.71,16.61,2.28,2.66,8.37,10.18,13.2,21.95,4.66,11.37,5.69,20.71,6.73,30.26,.84,7.71,1.71,15.66,0,16.32-3.82,1.47-13.19-36.03-24.98-35.45Z"/><path class="cls-14" d="M196.35,284.95c-8.69,7.76-6.7,12.31-7.76,25.06-1.25,14.91-.42,13.03,4.08,32.61,3.81,16.57,6.97,26.75,12.42,41.51,6.82,18.45,11.71,26.53,17.86,27.11,5.02,.47,3.79,3.77,5.06,5.41,1.26,1.62,1.85,1.14,1.41,8-.35,5.39,10.29-1.32,14.12-.47,14.34,3.18,20.18,2.32,31.52-5.65,3.68-2.59-.66,3.57,.05-1.88,.34-2.61,6.65-4.63-.14-23.67-4.3-12.04-9.02-19.55-14.12-28.24-12.57-21.41-3.72-16.97-16.24-47.65-4.2-10.29,3.89,7.39-14.38-25.78-3.76-6.83-8.13-8.42-13.41-10.24-8.01-2.75-14.55-1.41-20.47,3.88Z"/><path class="cls-2" d="M249.92,418.32c-12.94,.81-19.76-2.94-15.65,9.88,1.37,4.29,2.47-2.59,7.41-.71,1.1,.42,3.65,15.96,20.94,9.96,4.25-1.47,2.54,.2,6.47-4.08,6.52-7.1,2.47-17.88-.82-18.59-3.12-.67-.47,2.41-18.35,3.53Z"/><g class="cls-5"><path class="cls-4" d="M44.46,271.04c8.04-8.2,28.75-18.96,40.73-21.12,10.11-1.82,23.48,.6,40.79,2.83,13.11,1.69,11.28,.86,23.43,4.06,13.69,3.61,23.27,.79,30.5-.97,15.38-3.75,22.74-6.78,22.74-6.78,12.86-7.97,16.39-2.86,16.76,2.53,.38,5.59-5.35,8.77-1.78,13.06,2.76,3.32,16.81-2.62,15.36,8.31s-1.41,10.66-1.52,11.88c-.63,7.04-11.81,15.81-15.68,11.13-4.61-5.58-14.55-3.13-32.73,2.19-8.36,2.45-29.99,3.65-40.98,6.4-13.63,3.4-14.71,1.44-21.5,.17-7.17-1.34-1.32-2.88-21.34-4.26-9.58-.66,4.49,.38-22.46-.58-6.17-.22-25.13,6.84-25.35,4.86-.33-2.98,15.72-9.76,15.33-12.64-.35-2.61-21.72,10.34-23.19,1.45-.5-3.02,8.65-8.17,15.03-14.94,4.41-4.68-20.3-1.26-14.11-7.56Z"/><path class="cls-18" d="M100.59,289.86c.83-.33,10.35-1.29,17.67-1.84,3.9-.29,9.92-1.52,17.7-1.34,5.87,.14,10.11,1.14,15.76,1.17,6.37,.03,8.07,1.47,11.21,1.09,6.68-.81,10.66-2.32,10.66-2.32,3.59-.48,4.34-2.42,5.05-2.68,1.96-.72,2.49-4.65,4.2-4.23,1.49,.36,.43,5.54,.08,6.64-.42,1.33-3.79,2.73-3.76,2.87,.15,.78-3.73,1.73-5.78,1.95-2.38,.26,1.8,.57-13.37,2.3-3.71,.42-6.96-.67-11.74-.21-4.38,.41-6.7-.64-9.75-.73-4.3-.13-4.54-.6-13.62-.23-4.34,.18-6.92,1.35-10.33,1.55-2.78,.17-7.47-.16-7.69-.37-.33-.31-7.84,.29-8.2,0-.32-.27,1.35-.56,.92-.89-.41-.31-6.1-.57-3.88-1.51,1.53-.64,3.53-.68,4.87-1.21Z"/><path class="cls-18" d="M47.01,272.89c8.27-4.27,10.99-4.07,17.41-1.94,5.49,1.82,42.41-7.78,41.8-4.74-1.16,5.79-25.69,8.88-29.52,9.25-6.94,.68-2.38-.06-5.38-.14-7.98-.21-26.59-1.25-24.31-2.43Z"/><path class="cls-18" d="M207.86,273.33s-2.34-6.09,2.38-10.93c4.04-4.14,4.87-16.25,7.33-14.37,4.69,3.58,3.45,1.69,2.11,5.31-2.43,6.54-1.1,2.12-2.48,4.78-3.68,7.08-9.27,17.79-9.33,15.21Z"/><path class="cls-18" d="M113.58,266.05c8.21-3.43,28.64-3.42,35.17-2.96,5.77,.41,18.4-2.41,17.79,.63-1.16,5.79-12.94,3.23-16.78,3.61-6.94,.68-8.88,1.23-11.88,1.15-7.98-.21-26.68-1.44-24.31-2.43Z"/></g><ellipse class="cls-19" cx="76.52" cy="205.96" rx="9.3" ry="15.56" transform="translate(-141.61 179.66) rotate(-62.75)"/><ellipse class="cls-20" cx="166.57" cy="209.89" rx="15.56" ry="9.3" transform="translate(-48.84 50.52) rotate(-15.07)"/><path class="cls-6" d="M95.38,235.51c2.6,3.79,6.6,8.41,11.23,8.17,5.36-.28,6.79-6.83,12.26-7.15,6.28-.36,8.55,8.05,15.32,8.68,3.08,.29,7.82-.96,14.3-9.19"/><path class="cls-1" d="M37.4,400.48c12.1,4.67,19.73,3.16,11.94,14.14-2.6,3.67-1.58-3.21-6.85-2.91-1.18,.07-8.29,14.12-22.97,3.18-3.61-2.69-2.48-.57-4.94-5.84-4.08-8.74,3.04-17.79,6.39-17.47,3.17,.3-.28,2.44,16.43,8.9Z"/></g></g></svg>