<?xml version="1.0" encoding="UTF-8"?><svg id="_層_2" xmlns="http://www.w3.org/2000/svg" xmlns:xlink="http://www.w3.org/1999/xlink" viewBox="0 0 934.91 816.07"><defs><style>.cls-1{fill:#f5cd50;}.cls-2,.cls-3{fill:#dfe0d3;}.cls-4{filter:url(#drop-shadow-8);}.cls-4,.cls-5{fill:#a98fc9;}.cls-6{filter:url(#drop-shadow-13);}.cls-6,.cls-7{fill:#dec0ff;}.cls-5{filter:url(#drop-shadow-7);}.cls-8{stroke-width:.45px;}.cls-8,.cls-9,.cls-10,.cls-11,.cls-12,.cls-13,.cls-14,.cls-15,.cls-3,.cls-16,.cls-17,.cls-18,.cls-19,.cls-20,.cls-21,.cls-22{stroke-miterlimit:10;}.cls-8,.cls-9,.cls-10,.cls-12,.cls-13,.cls-14,.cls-15,.cls-16,.cls-17,.cls-18,.cls-19,.cls-20,.cls-21,.cls-22{stroke:#8a7900;}.cls-8,.cls-15{fill:#d9fffe;}.cls-9{filter:url(#drop-shadow-3);}.cls-9,.cls-22{stroke-width:11px;}.cls-10{stroke-width:1.93px;}.cls-10,.cls-19,.cls-20{fill:none;}.cls-11{fill:#c6c6be;}.cls-11,.cls-3{stroke:#000;stroke-width:.25px;}.cls-12{fill:#515b5a;stroke-width:1.1px;}.cls-23{fill:#f52350;}.cls-24,.cls-25{fill:#fbd2a7;}.cls-13{filter:url(#drop-shadow-10);}.cls-13,.cls-16{fill:#71bdff;stroke-width:.48px;}.cls-14{filter:url(#drop-shadow-1);stroke-width:40px;}.cls-15{stroke-width:.5px;}.cls-16{filter:url(#drop-shadow-9);}.cls-17{fill:#938e8a;}.cls-17,.cls-18{stroke-width:.75px;}.cls-18{fill:#fffce9;filter:url(#drop-shadow-5);}.cls-19{filter:url(#drop-shadow-11);}.cls-19,.cls-20{stroke-width:5.79px;}.cls-26{fill:#ff7a43;}.cls-25{filter:url(#drop-shadow-6);}.cls-21{filter:url(#drop-shadow-2);stroke-width:16px;}.cls-27{fill:#475600;filter:url(#drop-shadow-12);}.cls-22{filter:url(#drop-shadow-4);}</style><filter id="drop-shadow-1" filterUnits="userSpaceOnUse"><feOffset dx="2.83" dy="2.83"/><feGaussianBlur result="blur" stdDeviation="5.67"/><feFlood flood-color="#70410f" flood-opacity=".75"/><feComposite in2="blur" operator="in"/><feComposite in="SourceGraphic"/></filter><filter id="drop-shadow-2" filterUnits="userSpaceOnUse"><feOffset dx="2.83" dy="2.83"/><feGaussianBlur result="blur-2" stdDeviation="5.67"/><feFlood flood-color="#70410f" flood-opacity=".75"/><feComposite in2="blur-2" operator="in"/><feComposite in="SourceGraphic"/></filter><filter id="drop-shadow-3" filterUnits="userSpaceOnUse"><feOffset dx="2.83" dy="2.83"/><feGaussianBlur result="blur-3" stdDeviation="5.67"/><feFlood flood-color="#70410f" flood-opacity=".75"/><feComposite in2="blur-3" operator="in"/><feComposite in="SourceGraphic"/></filter><filter id="drop-shadow-4" filterUnits="userSpaceOnUse"><feOffset dx="2.83" dy="2.83"/><feGaussianBlur result="blur-4" stdDeviation="5.67"/><feFlood flood-color="#70410f" flood-opacity=".75"/><feComposite in2="blur-4" operator="in"/><feComposite in="SourceGraphic"/></filter><filter id="drop-shadow-5" filterUnits="userSpaceOnUse"><feOffset dx="2.83" dy="2.83"/><feGaussianBlur result="blur-5" stdDeviation="5.67"/><feFlood flood-color="#70410f" flood-opacity=".75"/><feComposite in2="blur-5" operator="in"/><feComposite in="SourceGraphic"/></filter><filter id="drop-shadow-6" filterUnits="userSpaceOnUse"><feOffset dx="2.83" dy="2.83"/><feGaussianBlur result="blur-6" stdDeviation="5.67"/><feFlood flood-color="#70410f" flood-opacity=".75"/><feComposite in2="blur-6" operator="in"/><feComposite in="SourceGraphic"/></filter><filter id="drop-shadow-7" filterUnits="userSpaceOnUse"><feOffset dx="2.83" dy="2.83"/><feGaussianBlur result="blur-7" stdDeviation="5.67"/><feFlood flood-color="#70410f" flood-opacity=".75"/><feComposite in2="blur-7" operator="in"/><feComposite in="SourceGraphic"/></filter><filter id="drop-shadow-8" filterUnits="userSpaceOnUse"><feOffset dx="2.83" dy="2.83"/><feGaussianBlur result="blur-8" stdDeviation="5.67"/><feFlood flood-color="#70410f" flood-opacity=".75"/><feComposite in2="blur-8" operator="in"/><feComposite in="SourceGraphic"/></filter><filter id="drop-shadow-9" filterUnits="userSpaceOnUse"><feOffset dx="2.83" dy="2.83"/><feGaussianBlur result="blur-9" stdDeviation="5.67"/><feFlood flood-color="#70410f" flood-opacity=".75"/><feComposite in2="blur-9" operator="in"/><feComposite in="SourceGraphic"/></filter><filter id="drop-shadow-10" filterUnits="userSpaceOnUse"><feOffset dx="2.83" dy="2.83"/><feGaussianBlur result="blur-10" stdDeviation="5.67"/><feFlood flood-color="#70410f" flood-opacity=".75"/><feComposite in2="blur-10" operator="in"/><feComposite in="SourceGraphic"/></filter><filter id="drop-shadow-11" filterUnits="userSpaceOnUse"><feOffset dx="2.83" dy="2.83"/><feGaussianBlur result="blur-11" stdDeviation="5.67"/><feFlood flood-color="#70410f" flood-opacity=".75"/><feComposite in2="blur-11" operator="in"/><feComposite in="SourceGraphic"/></filter><filter id="drop-shadow-12" filterUnits="userSpaceOnUse"><feOffset dx="2.83" dy="2.83"/><feGaussianBlur result="blur-12" stdDeviation="2.83"/><feFlood flood-color="#70410f" flood-opacity=".75"/><feComposite in2="blur-12" operator="in"/><feComposite in="SourceGraphic"/></filter><filter id="drop-shadow-13" filterUnits="userSpaceOnUse"><feOffset dx="2.83" dy="2.83"/><feGaussianBlur result="blur-13" stdDeviation="5.67"/><feFlood flood-color="#70410f" flood-opacity=".75"/><feComposite in2="blur-13" operator="in"/><feComposite in="SourceGraphic"/></filter></defs><g id="_層_1-2"><g><line class="cls-14" x1="14.86" y1="482.2" x2="721.03" y2="482.2"/><line class="cls-21" x1="203.32" y1="598.99" x2="525.41" y2="598.99"/><line class="cls-9" x1="357.22" y1="298.42" x2="646.25" y2="703.57"/><line class="cls-22" x1="356.47" y1="302.55" x2="135.73" y2="748.59"/><rect class="cls-18" x="25.02" y="14.92" width="706.24" height="449.72"/><g><path class="cls-2" d="M420.59,236.02c0,19.95-4.31,38.91-12.06,56.03-.37,.81-.75,1.63-1.13,2.43,3.57,4.04,6.9,8.68,4.4,14.15-2.78,6.56-10.27,8.75-16.83,6.87-.3,.39-.81,1.09-1.34,1.8-11.65,15.66-26.58,28.8-43.8,38.44-.78,.44-1.57,.87-2.36,1.29-.62,.54-.9,.81-.9,1.63-1.11-3.55-.56-7.66-3.05-10.94-2.78-3.55-6.66-5.47-11.1-4.65-3.89,.82-7.49,3.55-8.05,7.66-1.11,6.29-.83,15.04-7.24,18.23-.89,.23-1.78,.46-2.68,.68s-1.8,.43-2.7,.62c-.43,.16-1.26,.43-1.82-.11-2.5-4.1-5.83-7.38-10.55-7.93-6.38-.55-10.27,6.01-12.77,10.94-1.11,2.46-7.22,.82-11.28,.38-.92-.04-1.83-.08-2.75-.13-21.02-1.21-40.8-7-58.31-16.37-.79-.42-1.58-.85-2.36-1.29-.52-.36-1.07-.63-1.63-.9-.28,0-.56,.27-.56,.55,5.27-4.1,13.32-8.2,11.1-16.4-1.39-5.19-6.66-8.2-11.93-7.11-3.61,.82-5.83,4.37-9.44,4.92-3.61,.27-7.22-1.64-11.1-1.91-5.27-.55-9.16-4.65-11.38-9.57,1.67,5.19,5.83,9.02,11.1,9.57,3.61,.55,7.22,2.19,10.55,1.91,5.27-.27,9.44-6.84,15.54-4.65,4.16,1.64,7.49,5.47,6.94,10.12-1.11,8.48-9.71,12.03-16.65,16.13-4.16,2.46-9.16-2.46-12.21-2.46-15.82-.55-31.36-12.03-34.69-27.07-1.11-5.19,0-10.12-1.11-15.31-.83-3.55,1.67-6.56,2.64-9.9-.2-.48-.64-1.25-1.07-2.03-10.75-19.5-16.86-41.85-16.86-65.6,0-35.15,13.38-67.23,35.4-91.55,.6-.66,1.2-1.31,1.8-1.96,.84-.66,.84-1.75,.56-2.57-1.67-4.37-1.39-9.3,.56-13.67,3.05-6.29,2.5-13.94,6.94-19.96,6.94-9.57,20.26-7.66,30.25-4.92,1.39,.55,3.05-.27,4.44,0,4.16,.55,7.22,3.01,9.04,6.3,.08,0,.54-.16,1.4-.48,15.34-5.7,31.96-8.82,49.32-8.82,41.47,0,78.73,17.8,104.31,46.07,.6,.66,1.18,1.32,1.77,1.99,.41,.32,.41,.59,.69,.87,2.78,.82,5.55-1.09,8.33-.27,3.89,1.09,7.77,1.91,11.66,3.28,15.27,5.19,22.48,22.42,17.76,37.18-1.11,3.01-1.39,6.56-3.05,9.57-2.22,3.83-6.94,6.01-11.38,4.92-6.38-1.64-9.71-8.48-7.77-14.22,2.22-6.56,4.16-14.76-2.78-19.14,7.22,4.92,4.44,13.12,2.5,20.23-1.94,7.38,5.55,15.31,13.6,13.12-.56,.27-.28,.55,.01,.94,.22,.88,.43,1.77,.64,2.66,2.24,9.78,3.42,19.96,3.42,30.41Z"/><path d="M420.6,236.02c.04,20.15-4.51,40.28-13.17,58.47,2.78,3.03,5.99,7.3,5.13,11.84-.86,4.44-4.41,8.12-8.76,9.27-2.88,.81-5.97,.74-8.84-.06-2.9,4.09-6.46,8.47-9.97,12.33-10.69,11.8-23.46,21.68-37.47,29.22-.18,.14-.5,.44-.65,.67-.17,.26-.21,.58-.21,.89v.52c-1.21-3.5-.73-7.46-2.71-10.69-1.89-2.9-5.05-5.18-8.56-5.47-4.56-.42-9.71,2.38-10.8,7.03-1.36,7.18-.79,18.33-10.11,19.69l-2.7,.62c-.53,.18-1.44,.42-1.93-.16-2.72-4.71-8.08-9.36-13.85-7.46-3.26,1.16-5.52,4.02-7.29,6.87-.6,.97-1.15,1.97-1.68,2.98-.26,.48-.5,1.08-1.03,1.41-2.66,1.24-5.76,.2-8.52-.08-4.52-.6-9.13-.56-13.67-1.22-18.82-2.22-37.12-8.38-53.55-17.81h.04c-.23,0-.47,.24-.47,.47l-.13-.07c4.57-3.61,11.25-6.97,11.45-13.55,.12-5.95-5.26-10.67-11.13-9.99-4.12,.22-6.54,4.44-10.53,5.08-3.42,.22-6.58-1.3-9.9-1.78-3.38-.17-6.66-1.63-8.95-4.15-1.56-1.62-2.76-3.56-3.69-5.6l.11-.04c1.52,4.95,5.84,9.07,11.11,9.54,5,.88,10.29,3.56,15.03,.35,4.95-3.05,9.09-5.43,14.25-1.21,4.64,3.44,4.71,9.48,1.53,13.96-3.58,5-9.48,7.5-14.62,10.56-4.26,2.23-8.17-2.19-12.31-2.53-17.01-.7-34.56-14.28-35.06-32.09-.08-3.46,.14-6.95-.59-10.34-.8-3.57,1.7-6.64,2.65-9.89-7.03-12.39-12.38-26.34-15.22-40.49-5.8-28.41-2.27-58.66,10.14-84.89,6.1-13.16,14.46-25.21,24.33-35.82,1.37-.99,.36-2.73,.04-4-1.19-4.31-.54-9.01,1.4-12.99,2.34-5.4,2.38-11.58,5.16-16.89,6.04-11.83,20.97-10.38,31.82-7.27,1.23,.47,2.56-.1,3.92-.06,3.9,.16,8.16,3.2,9.53,6.35,18.35-6.98,38.32-10.12,57.97-9.1,17.9,.95,35.63,5.22,51.91,12.73,17.09,7.85,32.55,19.28,45.21,33.17,.55,.65,2.04,2.21,2.47,2.87,2.31,.74,5.27-.95,7.9-.39,4.4,1.26,11.27,2.66,15.35,4.78,9.76,4.74,15.87,15.46,15.9,26.21,.1,3.32-.5,6.75-1.48,9.92-1.1,3.15-1.38,6.62-3.1,9.54-3.81,6.25-12.73,6.71-17.2,.97-1.69-2.11-2.59-4.82-2.49-7.51,.09-2.71,1.44-5.15,1.93-7.79,1.37-5.08,.83-11.39-4.14-14.28,3.16,1.65,5.01,5.87,4.74,9.53-.11,3.75-1.3,7.33-2.22,10.92-1.8,7.74,6.2,14.85,13.62,12.9-.17,.08-.36,.22-.29,.41,.06,.18,.21,.33,.32,.5,2.7,10.81,4.05,21.94,4.05,33.08h0Zm-.03,0c0-11.35-1.44-23.09-4.32-33.86,.07-.08,.16-.13,.25-.18l.02,.05c-1.8,.48-3.73,.48-5.53-.02-5.39-1.45-9.5-7.31-8.16-12.9,.92-3.59,2.1-7.17,2.21-10.9,.23-3.74-1.46-7.48-4.65-9.52l.05-.08c1.11,.76,2.16,1.62,2.95,2.73,2.41,3.38,2.16,7.81,1.25,11.66-.49,2.63-1.84,5.08-1.92,7.77-.27,5.39,3.84,10.6,9.22,11.35,3.98,.57,8.15-1.46,10.22-4.89,1.36-2.31,1.82-5.02,2.5-7.59,.47-1.61,.97-3.2,1.37-4.83,.08-.32,.12-.66,.18-.99l.33-1.98c.41-3.99,.14-8.05-.96-11.91-2.11-7.72-7.45-14.61-14.68-18.13-4.08-2.06-10.84-3.53-15.31-4.75-2.62-.58-5.29,1.19-8.01,.34-.27-.29-.37-.64-.7-.87l-1.78-2.01c-4.15-4.46-8.84-9.11-13.54-13-13.64-11.56-29.62-20.37-46.58-25.99-17-5.51-35.09-7.83-52.93-6.73-14.31,.86-28.39,3.96-41.87,9.01l-.06,.02-.05-.08c-.65-1.15-1.44-2.21-2.39-3.12-1.89-1.83-4.44-2.95-7.05-3.17-1.27-.07-2.68,.55-3.97,.05-10.72-3.08-25.61-4.55-31.55,7.16-2.76,5.25-2.8,11.41-5.16,16.87-2.35,4.68-2.56,10.1-.76,14.97,.12,.71-.13,1.68-.73,2.08-19.83,21.1-32.92,48.51-36.21,77.32-3.56,28.81,2.59,58.52,16.92,83.73-.95,3.27-3.45,6.3-2.66,9.86,1.11,5.11,0,10.41,1.15,15.5,2.81,11.9,12.82,21.17,24.22,24.95,3.28,1.09,6.7,1.79,10.15,1.92,.88,.02,1.72,.28,2.52,.62,3,1.27,6.49,3.66,9.75,1.93,6.95-4.04,17.06-8.36,16.8-17.83-.39-4.32-4.18-7.93-8.35-8.74-5.45-.86-9.17,4.86-14.44,5.01-3.5,.12-6.77-1.41-10.18-1.92-5.3-.48-9.68-4.63-11.21-9.62l.11-.04c2.21,5.1,6.74,9.53,12.55,9.67,3.29,.48,6.52,1.99,9.86,1.77,3.96-.65,6.4-4.87,10.54-5.09,3.96-.44,8.13,1.57,10.03,5.13,4.56,9.09-3.95,14.03-10.23,18.69l-.14,.11v-.18c.03-.35,.32-.62,.67-.63,8.47,4.82,17.45,8.89,26.76,11.88,13.05,4.44,26.76,6.17,40.43,7.09,2.26,.32,4.53,.78,6.79,.59,.55-.09,1.12-.19,1.58-.49,.47-.29,.68-.81,.96-1.32,2.5-4.81,6.32-10.87,12.52-10.4,4.73,.44,8.35,4.1,10.67,7.98l-.02-.02c.43,.43,1.14,.32,1.71,.09,1.36-.29,4.05-.94,5.39-1.3,6.66-3.58,5.99-12.35,7.3-18.85,1.87-7.39,12.15-9.46,17.36-4.28,1.8,1.55,3.13,3.64,3.61,5.98,.53,2.3,.58,4.69,1.27,6.93l-.15,.02c0-.33,.05-.68,.24-.98,.19-.29,.45-.51,.71-.72,9.34-5.02,18.12-11.07,26.11-18.04,8.01-6.96,15.13-14.89,21.38-23.46,2.83,.71,5.97,.9,8.84,.05,4.32-1.14,7.85-4.79,8.71-9.19,.85-4.61-2.32-8.59-5.11-11.86,8.67-18.18,13.23-38.3,13.22-58.44h0Z"/></g><path class="cls-1" d="M459.67,181.91c-.4,52.7-62.75,79.39-101.2,43.13-24.33-23.09-24.32-63.18,.01-86.26,38.47-36.23,100.79-9.57,101.19,43.12h0Zm-.4,0c.23-22.83-14.45-44.72-35.63-53.22-37.76-15.62-79.59,12.33-79.51,53.22-.07,40.88,41.75,68.83,79.51,53.22,21.18-8.5,35.86-30.39,35.63-53.22h0Z"/><path class="cls-23" d="M280.64,385.1c-16.76-20.96-.99-51.76,26.04-50.2,17.68,1.1,31.12,17.75,28.49,35.27-4.17,26.74-37.55,35.71-54.53,14.93h0Zm.31-.25c16.09,19.72,48.07,10.26,50.77-15.05,1.88-15.2-10.15-30.09-25.41-31.44-25.31-2.66-41.26,26.63-25.36,46.49h0Z"/><g><g><path class="cls-3" d="M472.13,77.34c-1.28,5.54-4.86,35.91,3.48,38.53,11.09,3.47,19.81,4.76,31.84,4.76,14.29,0,24.72-7.27,37.93-6.22,10.11,.81,2.97-17.11,2.75-25.74-.14-5.66-11.21-34.43-28.36-43.82-15.23-8.34-12.78-17.69-22.06-18.4-15.57-1.19-23.49,41.78-25.6,50.9Z"/><path class="cls-3" d="M503.11,91.42c-.86,3.72-3.26,24.11,2.34,25.86,7.44,2.33,13.3,3.19,21.37,3.19,9.59,0,16.6-4.88,25.46-4.17,6.79,.54,1.99-11.49,1.85-17.28-.09-3.8-7.53-23.11-19.03-29.42-10.22-5.6-8.58-11.88-14.81-12.35-10.45-.8-15.77,28.05-17.18,34.17Z"/></g><path d="M476.79,132.65c8.6,6.6,19.81,15.78,31.04,10.38,4.51-2.31,7.71-6.09,11.44-9.7,3.71-3.81,8.91-7.37,14.5-5.83,1.84,.42,3.39,1.54,4.78,2.6,2.72,2.24,5.43,4.27,8.48,5.76,3.04,1.52,6.32,2.53,9.56,3.55,10.35,3.49,18.94,2.18,26.49-6.03,3.93-3.77,7.02-8.88,12.7-10.42,9.36-1.78,14.51,8.46,17.45,15.63l.9,2.47-.36,.17c-3.99-6.62-12-20.89-20.72-12.5-4.81,4.79-9.04,11.38-15.8,14.28-10.49,4.82-22.08,.17-31.29-5.24-3.04-1.81-5.66-4.32-8.26-6.62-2.45-2.37-5.8-3.36-9.07-2.42-3.24,.94-5.63,3.51-7.72,6.09-2.16,2.66-4.18,5.57-6.88,8.09-5.51,5.56-14.09,6.67-21.09,3.39-6.57-2.86-11.95-7.91-16.42-13.37l.28-.28h0Z"/><path d="M482.27,157.36c6.08,4.5,14.82,9.06,21.76,3.95,3.44-2.36,5.8-6.34,10.3-7.39,1.15-.27,2.4-.34,3.57-.15,3.31,.58,5.5,3.14,8.52,4.23,5.16,1.93,11.25,3.67,16.66,1.99,3.82-1.11,6.33-3.82,9.63-6.28,7.15-5.19,13.23,1.33,15.64,7.88l-.35,.2c-1.28-1.62-2.57-3.2-4.05-4.5-2.76-2.63-6.28-3.52-9.1-.78-2.97,2.74-6.27,6.32-10.56,7.45-6.54,1.98-13.21-.48-19.21-3.06-1.89-.88-3.76-2.22-5.39-3.38-1.33-.96-2.65-1.26-4.2-1.17-4.16,.42-6.81,4.48-10.36,6.61-7.71,5.09-17.09,.05-23.12-5.3l.25-.31h0Z"/><path d="M486.01,179.69c5.05,4.92,13.79,10.98,19.98,4.55,2.55-2.35,4.4-5.83,7.54-7.7,1.6-.88,3.52-1.23,5.33-.79,3.18,.93,5.02,3.81,7.8,5.06,6.85,3.37,13.89,5.16,19.62-1.21,2.19-2.03,4.29-5.31,7.73-6.07,6.23-1.03,9.21,6.3,10.64,11.11l-.37,.16c-1.08-1.7-2.17-3.38-3.41-4.86-2.1-2.62-5.16-5.1-7.88-2.05-2.68,2.82-5.09,6.8-9.03,8.64-4.11,2.14-9.19,1.46-13.19-.25-3.87-1.38-7.81-3.72-10.62-6.59-1.18-1.1-2.21-1.57-3.71-1.44-3.88,.61-6.03,5.07-9.12,7.48-7.4,6.66-16.33,.24-21.59-5.77l.29-.28h0Z"/></g><g><path class="cls-3" d="M519.24,254.92c-1.28,5.54-4.86,35.91,3.48,38.53,11.09,3.47,19.81,4.76,31.84,4.76,14.29,0,24.72-7.27,37.93-6.22,10.11,.81,2.97-17.11,2.75-25.74-.14-5.66-11.21-34.43-28.36-43.82-15.23-8.34-12.78-17.69-22.06-18.4-15.57-1.19-23.49,41.78-25.6,50.9Z"/><path class="cls-11" d="M550.21,269c-.86,3.72-3.26,24.11,2.34,25.86,7.44,2.33,13.3,3.19,21.37,3.19,9.59,0,16.6-4.88,25.46-4.17,6.79,.54,1.99-11.49,1.85-17.28-.09-3.8-7.53-23.11-19.03-29.42-10.22-5.6-8.58-11.88-14.81-12.35-10.45-.8-15.77,28.05-17.18,34.17Z"/><path d="M516.45,327.73c8.6,6.6,19.81,15.78,31.04,10.38,4.51-2.31,7.71-6.09,11.44-9.7,3.71-3.81,8.91-7.37,14.5-5.83,1.84,.42,3.39,1.54,4.78,2.6,2.72,2.24,5.43,4.27,8.48,5.76,3.04,1.52,6.32,2.53,9.56,3.55,10.35,3.49,18.94,2.18,26.49-6.03,3.93-3.77,7.02-8.88,12.7-10.42,9.36-1.78,14.51,8.46,17.45,15.63l.9,2.47-.36,.17c-3.99-6.62-12-20.89-20.72-12.5-4.81,4.79-9.04,11.38-15.8,14.28-10.49,4.82-22.08,.17-31.29-5.24-3.04-1.81-5.66-4.32-8.26-6.62-2.45-2.37-5.8-3.36-9.07-2.42-3.24,.94-5.63,3.51-7.72,6.09-2.16,2.66-4.18,5.57-6.88,8.09-5.51,5.56-14.09,6.67-21.09,3.39-6.57-2.86-11.95-7.91-16.42-13.37l.28-.28h0Z"/><path d="M521.93,352.44c6.08,4.5,14.82,9.06,21.76,3.95,3.44-2.36,5.8-6.34,10.3-7.39,1.15-.27,2.4-.34,3.57-.15,3.31,.58,5.5,3.14,8.52,4.23,5.16,1.93,11.25,3.67,16.66,1.99,3.82-1.11,6.33-3.82,9.63-6.28,7.15-5.19,13.23,1.33,15.64,7.88l-.35,.2c-1.28-1.62-2.57-3.2-4.05-4.5-2.76-2.63-6.28-3.52-9.1-.78-2.97,2.74-6.27,6.32-10.56,7.45-6.54,1.98-13.21-.48-19.21-3.06-1.89-.88-3.76-2.22-5.39-3.38-1.33-.96-2.65-1.26-4.2-1.17-4.16,.42-6.81,4.48-10.36,6.61-7.71,5.09-17.09,.05-23.12-5.3l.25-.31h0Z"/></g><path d="M525.67,374.77c5.05,4.92,13.79,10.98,19.98,4.55,2.55-2.35,4.4-5.83,7.54-7.7,1.6-.88,3.52-1.23,5.33-.79,3.18,.93,5.02,3.81,7.8,5.06,6.85,3.37,13.89,5.16,19.62-1.21,2.19-2.03,4.29-5.31,7.73-6.07,6.23-1.03,9.21,6.3,10.64,11.11l-.37,.16c-1.08-1.7-2.17-3.38-3.41-4.86-2.1-2.62-5.16-5.1-7.88-2.05-2.68,2.82-5.09,6.8-9.03,8.64-4.11,2.14-9.19,1.46-13.19-.25-3.87-1.38-7.81-3.72-10.62-6.59-1.18-1.1-2.21-1.57-3.71-1.44-3.88,.61-6.03,5.07-9.12,7.48-7.4,6.66-16.33,.24-21.59-5.77l.29-.28h0Z"/><path class="cls-25" d="M518.22,336.19c16.62-16.99,18.23-7.84-7.32-25.72-8.54-5.98-12.51-17.75-22.24-15.16-2.17,.58-11.49,8.23-15.15,15.92s14.26,20.4,15.46,32.74c1.99,20.48,3.73,23.25,9.37,20.55,5.34-2.56-3.09-4.86,19.88-28.34Z"/><path class="cls-5" d="M622.1,395.54c-7.55-11.7-29.14-23.15-50.97-44.57-16.52-16.2-38.39-33.18-52.18-36.34-1.87-.43-4.31-.72-9.23,2.89-7.2,5.29-7.56,10.01-11.2,14.98-6.25,8.51-5.7,7.13-14.49,16.86-4.43,4.91-3.89,8.15-8.62,12.53s-2.06,24.1-.77,27.25c2.34,5.66,3.38-12.5,41.89,13.73,62.74,42.74,66.83,38.69,77.56,42.67,4.99,1.85,17.69,4.83,19.65-.03,1.97-4.89,4.3-8.83,5.59-10.72,4.15-6.11,6.77-9.33,11.17-14.94,3.28-4.18-.05-11.38-8.4-24.32Z"/><path class="cls-7" d="M612.44,420.21c-12.48,17.38-2.8,49.52-13.3,89.86-7.94,30.52-9.21,67.37,5.53,84.58,2,2.34,5.16,5.17,20.19,7.53,22.01,3.46,32.28,.07,48.15,0,27.18-.13,23.48,.4,57.07,2.01,16.95,.81,21.73-.48,35.65,4.71,14.03,5.23,15.63,4.94,20.12,1.05,8.07-7.01,9.71-21.1,4.42-83.06-8.61-100.94-23.25-102.08-31.6-116.69-3.88-6.8-17.3-22.71-30.35-20.92s-24.84,2.45-30.71,2.59c-18.98,.44-29.65,.22-48,0-13.67-.16-23.37,9.12-37.17,28.34Z"/><path class="cls-24" d="M679.42,533.84c-15.52-12.81-19.51-24.06-27.72-5.86-2.74,6.08,5.41-.18,9.14,7.07,.83,1.61-11.89,21.09,13.8,32.9,6.31,2.9,2.68,2.9,11.45,2.44,14.55-.77,20.77-16.7,17.74-20.95-2.87-4.02-2.96,2.11-24.41-15.59Z"/><path class="cls-4" d="M734.12,408.68c-11.57,7.87-22.61,29.83-43.63,52.28-15.9,16.98-32.47,39.37-35.36,53.28-.39,1.89-.63,4.34,3.08,9.19,5.44,7.09,10.18,7.33,15.23,10.86,8.65,6.05,7.25,5.54,17.18,14.11,5.01,4.32,7.09,4.61,9.21,10.94,2.14,6.38,2.78,6.56,5.91,5.18,5.63-2.49,12.33-10.79,37.84-50.09,41.56-64.03,37.43-68.04,41.2-78.91,1.75-5.06,4.49-17.87-.43-19.71s-8.94-4.1-10.85-5.34c-6.2-4.01-9.48-6.56-15.19-10.83-4.25-3.18-11.4,.34-24.19,9.04Z"/><path class="cls-24" d="M595.51,284.08c-7.03,14.22,7.14,24.45-1.37,51.8-7.77,24.98-10.55,38.59-6.8,51.33,3.26,11.04,8.6,13.84,41.02,23.18,20.81,5.99,40.49,7.28,72.44,8.88,23.47,1.17,44.52,2.23,69.74-6.32,11.73-3.97,31.21-10.85,42.39-27.8,4.52-6.86,2.29-7.19,8.2-17.69,12.38-21.98,24.39-24.51,24.61-36.64,.17-9.25-6.59-19.31-13.67-20.22-9.42-1.2-12.01,7.9-19.53,6.3-6.77-1.44-11.39-8.91-13.29-15.14-13.39-43.95-182.4-60.89-203.75-17.69Z"/><path class="cls-16" d="M682.65,327.03c9.22-20.54,29.05-34.13,49.9-34.34,31.36-.31,60.34,29.7,53.6,58.37-5.14,21.86-29.78,37.6-53.6,36.05-28.45-1.85-52.95-28.17-49.9-60.09Z"/><path class="cls-13" d="M573.3,317.8c8.06-19.43,25.39-32.29,43.61-32.48,27.41-.29,52.73,28.09,46.84,55.22-4.49,20.68-26.02,35.57-46.84,34.11-24.86-1.75-46.27-26.65-43.61-56.84Z"/><path class="cls-8" d="M573.29,318.61c7.64-18.14,24.06-30.15,41.33-30.33,25.97-.27,49.97,26.23,44.39,51.55-4.26,19.3-24.66,33.21-44.39,31.84-23.56-1.63-43.85-24.88-41.33-53.07Z"/><path class="cls-15" d="M681.67,330.54c8.78-19.34,24.4-35.69,44.26-35.88,29.87-.29,60.74,31.51,54.32,58.51-4.89,20.58-28.36,35.4-51.05,33.95-27.09-1.74-50.43-26.52-47.53-56.58Z"/><line class="cls-19" x1="663.75" y1="340.53" x2="682.93" y2="340.11"/><line class="cls-20" x1="784.98" y1="341.26" x2="820.67" y2="318.79"/><path class="cls-27" d="M644.58,225.13c-7.14,1.66-29.1,12.35-37.95,25.11-3.01,4.34-37.68,44.72-21.76,46.91,6.88,.95,15.38,5.36,37.65,2.84,7.31-.83,9.01-21.67,11.28-17.53,2.78,5.07-6.41,19.46-2.05,21.32,16.5,7.07,35.81,7.48,45.64,11.37,3.59,1.42,1.54-16.11,2.56-28.43,.95-11.43-3.41,24.7,11.28,27.96,18.48,4.09,20.23,6.66,40.08,4.63,2.27-.23,1.41-28.72,1.97-25.01,1.44,9.59-1.7,26.51,8.2,26.2,19.49-.61,69.59-.8,76.05-2.96,11.81-3.94,19.63-8.75,20.47-13.59,3.02-17.47-53.74-53.51-77.97-66.84,0,0-60.92-24.72-115.46-12Z"/><path class="cls-6" d="M620.02,232.84c2.78,6.4,14.83,4.2,47.86,10.11,10.35,1.85,25.9,4.63,42.39,10.11,28,9.3,47.85,22.78,58.8,30.32,6.82,4.7,21.98,15.63,39.66,30.32,18.28,15.2,22.06,20.13,27.35,18.95,12.5-2.79,17.79-36.23,10.94-63.18-1.39-5.46-7.3-26.51-27.35-45.49-16.82-15.92-34.67-21.95-51.96-27.8-11.37-3.84-33.48-11.09-62.9-10.11-14.27,.48-32.7,1.29-51.96,11.37-16.85,8.82-36.86,26.07-32.82,35.38Z"/><line class="cls-10" x1="442.83" y1="258.63" x2="489.86" y2="306.35"/><path class="cls-24" d="M807.53,393.19c6.99-27.85,64.16-61.59,27.5-78.4-9.42-1.2-18.09,5.06-28.72,18.03"/><ellipse class="cls-26" cx="671.44" cy="393.19" rx="12.18" ry="29.83" transform="translate(164.25 983.27) rotate(-79.67)"/><g><rect class="cls-17" x="309.98" y="637" width="500.43" height="174.79"/><polygon class="cls-12" points="934.35 695.46 812.67 814.77 811.16 637 932.96 512.41 934.35 695.46"/><polygon class="cls-17" points="811.16 637 309.98 637 431.78 512.41 932.96 512.41 811.16 637"/></g></g></g></svg>