<?xml version="1.0" encoding="UTF-8"?><svg id="_層_2" xmlns="http://www.w3.org/2000/svg" xmlns:xlink="http://www.w3.org/1999/xlink" viewBox="0 0 533 859"><defs><style>.cls-1{fill:#ec1200;filter:url(#drop-shadow-16);}.cls-2{filter:url(#drop-shadow-11);}.cls-2,.cls-3{fill:#fbffe3;}.cls-4{fill:#899188;filter:url(#drop-shadow-19);}.cls-5{filter:url(#drop-shadow-9);}.cls-5,.cls-6,.cls-7,.cls-8{fill:#1e004b;}.cls-9{filter:url(#drop-shadow-20);}.cls-9,.cls-10{fill:#290570;}.cls-11{fill:#160235;filter:url(#drop-shadow-3);}.cls-12{filter:url(#drop-shadow-7);}.cls-12,.cls-13,.cls-14,.cls-15{fill:#fbd2a7;}.cls-16{filter:url(#drop-shadow-1);}.cls-16,.cls-17{fill:#542300;}.cls-6{filter:url(#drop-shadow-4);}.cls-18{filter:url(#drop-shadow-18);}.cls-18,.cls-19{fill:#fcfff1;}.cls-20{fill:none;filter:url(#drop-shadow-21);stroke:#bd2300;stroke-miterlimit:10;stroke-width:3.23px;}.cls-3{filter:url(#drop-shadow-12);}.cls-21{filter:url(#drop-shadow-14);}.cls-21,.cls-22{fill:#634932;}.cls-22{filter:url(#drop-shadow-15);}.cls-7{filter:url(#drop-shadow-6);}.cls-17{filter:url(#drop-shadow-2);}.cls-8{filter:url(#drop-shadow-5);}.cls-13{filter:url(#drop-shadow-13);}.cls-14{filter:url(#drop-shadow-8);}.cls-15{filter:url(#drop-shadow-22);}.cls-19{filter:url(#drop-shadow-17);}.cls-10{filter:url(#drop-shadow-10);}</style><filter id="drop-shadow-1" filterUnits="userSpaceOnUse"><feOffset dx="2.83" dy="2.83"/><feGaussianBlur result="blur" stdDeviation="2.83"/><feFlood flood-color="#70410f" flood-opacity=".75"/><feComposite in2="blur" operator="in"/><feComposite in="SourceGraphic"/></filter><filter id="drop-shadow-2" filterUnits="userSpaceOnUse"><feOffset dx="2.83" dy="2.83"/><feGaussianBlur result="blur-2" stdDeviation="2.83"/><feFlood flood-color="#70410f" flood-opacity=".75"/><feComposite in2="blur-2" operator="in"/><feComposite in="SourceGraphic"/></filter><filter id="drop-shadow-3" filterUnits="userSpaceOnUse"><feOffset dx="2.83" dy="2.83"/><feGaussianBlur result="blur-3" stdDeviation="2.83"/><feFlood flood-color="#70410f" flood-opacity=".75"/><feComposite in2="blur-3" operator="in"/><feComposite in="SourceGraphic"/></filter><filter id="drop-shadow-4" filterUnits="userSpaceOnUse"><feOffset dx="2.83" dy="2.83"/><feGaussianBlur result="blur-4" stdDeviation="2.83"/><feFlood flood-color="#70410f" flood-opacity=".75"/><feComposite in2="blur-4" operator="in"/><feComposite in="SourceGraphic"/></filter><filter id="drop-shadow-5" filterUnits="userSpaceOnUse"><feOffset dx="2.83" dy="2.83"/><feGaussianBlur result="blur-5" stdDeviation="2.83"/><feFlood flood-color="#70410f" flood-opacity=".75"/><feComposite in2="blur-5" operator="in"/><feComposite in="SourceGraphic"/></filter><filter id="drop-shadow-6" filterUnits="userSpaceOnUse"><feOffset dx="2.83" dy="2.83"/><feGaussianBlur result="blur-6" stdDeviation="2.83"/><feFlood flood-color="#70410f" flood-opacity=".75"/><feComposite in2="blur-6" operator="in"/><feComposite in="SourceGraphic"/></filter><filter id="drop-shadow-7" filterUnits="userSpaceOnUse"><feOffset dx="2.83" dy="2.83"/><feGaussianBlur result="blur-7" stdDeviation="2.83"/><feFlood flood-color="#70410f" flood-opacity=".75"/><feComposite in2="blur-7" operator="in"/><feComposite in="SourceGraphic"/></filter><filter id="drop-shadow-8" filterUnits="userSpaceOnUse"><feOffset dx="2.83" dy="2.83"/><feGaussianBlur result="blur-8" stdDeviation="2.83"/><feFlood flood-color="#70410f" flood-opacity=".75"/><feComposite in2="blur-8" operator="in"/><feComposite in="SourceGraphic"/></filter><filter id="drop-shadow-9" filterUnits="userSpaceOnUse"><feOffset dx="2.83" dy="2.83"/><feGaussianBlur result="blur-9" stdDeviation="2.83"/><feFlood flood-color="#70410f" flood-opacity=".75"/><feComposite in2="blur-9" operator="in"/><feComposite in="SourceGraphic"/></filter><filter id="drop-shadow-10" filterUnits="userSpaceOnUse"><feOffset dx="2.83" dy="2.83"/><feGaussianBlur result="blur-10" stdDeviation="2.83"/><feFlood flood-color="#70410f" flood-opacity=".75"/><feComposite in2="blur-10" operator="in"/><feComposite in="SourceGraphic"/></filter><filter id="drop-shadow-11" filterUnits="userSpaceOnUse"><feOffset dx="2.83" dy="2.83"/><feGaussianBlur result="blur-11" stdDeviation="2.83"/><feFlood flood-color="#70410f" flood-opacity=".75"/><feComposite in2="blur-11" operator="in"/><feComposite in="SourceGraphic"/></filter><filter id="drop-shadow-12" filterUnits="userSpaceOnUse"><feOffset dx="2.83" dy="2.83"/><feGaussianBlur result="blur-12" stdDeviation="2.83"/><feFlood flood-color="#70410f" flood-opacity=".75"/><feComposite in2="blur-12" operator="in"/><feComposite in="SourceGraphic"/></filter><filter id="drop-shadow-13" filterUnits="userSpaceOnUse"><feOffset dx="2.83" dy="2.83"/><feGaussianBlur result="blur-13" stdDeviation="2.83"/><feFlood flood-color="#70410f" flood-opacity=".75"/><feComposite in2="blur-13" operator="in"/><feComposite in="SourceGraphic"/></filter><filter id="drop-shadow-14" filterUnits="userSpaceOnUse"><feOffset dx="2.83" dy="2.83"/><feGaussianBlur result="blur-14" stdDeviation="2.83"/><feFlood flood-color="#70410f" flood-opacity=".75"/><feComposite in2="blur-14" operator="in"/><feComposite in="SourceGraphic"/></filter><filter id="drop-shadow-15" filterUnits="userSpaceOnUse"><feOffset dx="2.83" dy="2.83"/><feGaussianBlur result="blur-15" stdDeviation="2.83"/><feFlood flood-color="#70410f" flood-opacity=".75"/><feComposite in2="blur-15" operator="in"/><feComposite in="SourceGraphic"/></filter><filter id="drop-shadow-16" filterUnits="userSpaceOnUse"><feOffset dx="2.83" dy="2.83"/><feGaussianBlur result="blur-16" stdDeviation="2.83"/><feFlood flood-color="#70410f" flood-opacity=".75"/><feComposite in2="blur-16" operator="in"/><feComposite in="SourceGraphic"/></filter><filter id="drop-shadow-17" filterUnits="userSpaceOnUse"><feOffset dx="2.83" dy="2.83"/><feGaussianBlur result="blur-17" stdDeviation="2.83"/><feFlood flood-color="#70410f" flood-opacity=".75"/><feComposite in2="blur-17" operator="in"/><feComposite in="SourceGraphic"/></filter><filter id="drop-shadow-18" filterUnits="userSpaceOnUse"><feOffset dx="2.83" dy="2.83"/><feGaussianBlur result="blur-18" stdDeviation="2.83"/><feFlood flood-color="#70410f" flood-opacity=".75"/><feComposite in2="blur-18" operator="in"/><feComposite in="SourceGraphic"/></filter><filter id="drop-shadow-19" filterUnits="userSpaceOnUse"><feOffset dx="2.83" dy="2.83"/><feGaussianBlur result="blur-19" stdDeviation="2.83"/><feFlood flood-color="#70410f" flood-opacity=".75"/><feComposite in2="blur-19" operator="in"/><feComposite in="SourceGraphic"/></filter><filter id="drop-shadow-20" filterUnits="userSpaceOnUse"><feOffset dx="2.83" dy="2.83"/><feGaussianBlur result="blur-20" stdDeviation="2.83"/><feFlood flood-color="#70410f" flood-opacity=".75"/><feComposite in2="blur-20" operator="in"/><feComposite in="SourceGraphic"/></filter><filter id="drop-shadow-21" filterUnits="userSpaceOnUse"><feOffset dx="2.83" dy="2.83"/><feGaussianBlur result="blur-21" stdDeviation="2.83"/><feFlood flood-color="#70410f" flood-opacity=".75"/><feComposite in2="blur-21" operator="in"/><feComposite in="SourceGraphic"/></filter><filter id="drop-shadow-22" filterUnits="userSpaceOnUse"><feOffset dx="2.83" dy="2.83"/><feGaussianBlur result="blur-22" stdDeviation="2.83"/><feFlood flood-color="#70410f" flood-opacity=".75"/><feComposite in2="blur-22" operator="in"/><feComposite in="SourceGraphic"/></filter></defs><g id="_層_1-2"><g><path class="cls-16" d="M163.99,772.18c-9.95-2.08-11.32,9.36-21.79,19.06-8.38,7.77-16.68,13.38-23.35,20.03-.29,.29-1.19-.14-2.09,.21-5.49,2.14-8.42,16.3-4.08,22.47,5.6,7.96,24.27,4.93,56.15,3.37,34.48-1.69,49.4,6.33,52.11-7.45,2.98-15.14,5.02-28.41,6.13-46.98,0,0-41.44-6.2-63.07-10.71Z"/><path class="cls-17" d="M357.77,780.16c9.95-2.08,11.32,9.36,21.79,19.06,8.38,7.77,16.68,13.38,23.35,20.03,.29,.29,1.19-.14,2.09,.21,5.49,2.14,8.42,16.3,4.08,22.47-5.6,7.96-24.27,4.93-56.15,3.37-34.48-1.69-49.4,6.33-52.11-7.45-2.98-15.14-5.02-28.41-6.13-46.98,0,0,41.44-6.2,63.07-10.71Z"/><path class="cls-11" d="M63.93,467.97c-6.42,7.3-12.91,14.59-20.9,26.69-4.03,6.1-42.52,65.33-36.51,100.7,2.83,16.67,15.23,20.58,40.03,28.41,31.66,9.99,50.56,15.95,63.91-1.06,15.76-20.09,6.43-50.14,18.27-126.26,12.47-80.18,34.52-122.14,26.7-129.24-6.4-5.81-21.86,21.61-91.5,100.76Z"/><path class="cls-6" d="M450.97,405.21c7.97-8.22,16.03-16.43,25.83-30.18,4.94-6.93,52.1-74.22,42.9-115.61-4.34-19.5-20.47-24.56-52.74-34.68-41.2-12.92-31.83-17.81-48.32,1.42-19.49,22.72-31.78,54.35-52.33,143.27s-39.46,140.62-29.09,149.2c8.48,7.01,27.28-24.23,113.75-113.41Z"/><path class="cls-8" d="M148.43,765.46c-9.63-12.63-2.22-23.68-6.13-60.73-3.96-37.54-14.4-53.22-8.17-58.48,5.64-4.76,15.97,6.58,55.15,26.99,18.69,9.74,28.04,14.6,38.81,17.99,27.61,8.69,40.67,4.17,44.94,13.49,4.17,9.11-7.02,16.24-14.3,44.98-6.15,24.3-1.29,31.59-8.17,38.24-6.21,6-14.09,3.85-57.19-6.75-36.22-8.91-40.4-9.79-44.94-15.74Z"/><path class="cls-7" d="M389.32,785.93c12.01-11.56,6.97-24.64,18.3-63.12,11.48-38.99,24.91-53.62,19.85-60.35-4.58-6.09-17.01,3.97-59.63,18.21-20.33,6.79-30.5,10.19-41.76,11.76-28.88,4.01-40.79-3.22-46.87,5.84-5.93,8.86,3.61,18.5,4.94,50.29,1.13,26.88-5.13,33.67,.29,42,4.89,7.51,13.06,6.72,57.54,3.6,37.37-2.63,41.66-2.78,47.32-8.23Z"/><path class="cls-12" d="M49.81,624.12c20.71,8.63,34.71,3.41,18.44,31.28-5.44,9.32-2.15-7.34-11.68-5.52-2.12,.41-17.82,35.46-41.85,12.41-5.91-5.67-4.33-.85-7.63-12.91-5.48-20.02,9.17-43.14,15.12-43.08,5.63,.06-1.01,5.9,27.6,17.82Z"/><path class="cls-14" d="M454.11,222.32c-25.81-2.51-39.29-6.91-33.92-27.55,3.43-13.19,8,11.84,16.29,3.93,15.29-14.59-16.29-3.93-10.72-34.83,1.32-7.34,58.75-1.78,66.59,11.55,13.01,22.11,4.93,55.7-1.64,57.9-6.22,2.08-.94-7.52-36.6-10.99Z"/><path class="cls-5" d="M190.95,366.55c-12.88,.02-27.32,6.32-45.57,20.28-10.13,7.74-12.16,39-23.49,91.68-17.66,82.15-14.8,62.38-23.52,149.49-.96,9.62-3.07,28.36,8.05,40.85,10.83,12.17,28.19,11.67,40.25,12.26,74.25,3.62,90.37,33.93,110.03,16.19,12.67-11.44,26.58-16.31,36.9-20.28,7.78-2.99,15.05,15.99,28.18,20.43,61.45,20.77,83.09,16.09,138.81-1.17,9.56-2.96,3.56-14.2,1.49-22.46-20.98-83.83-26.73-108.07-32.48-128.19-32.4-113.42-8.48-128.16-29.32-166.82-6.67-12.36-19.09-12.6-209.33-12.26Z"/><path class="cls-10" d="M333.32,371.03c-23.61-7.39-16.04,36.92-35.03,66.2-19.72,30.41-38.77,2.16-61.07,29.13-41.54,50.22-21.23,145.48-13.22,184.09,2.06,9.94,.93,17.28,.93,29.54,0,13.34,23.91,10.89,31.24,12.97,51.08,14.5,35.87,8.08,51.08,14.5,12.2,5.15,16.98,4.79,24.65,5,19.1,.5,29.35,.03,40.95-.61,43.52-2.4,37.7-6.22,73.82-12.39,23.29-3.98-1.78-33.07-3.08-41.04-13.17-80.99-23.84-101.81-25.56-108.59-26.97-106.12-15.37-158.83-35.84-187.4-6.53-9.11-26.5,15.61-48.87,8.61Z"/><path class="cls-2" d="M162.47,386.28c-5.84,11.31-8.46,29.1,0,37.79,5.77,5.92,11.18,1.97,20.79,8.4,5.29,3.54,9.14,10.34,16.63,23.79,14.92,26.8,16.88,30.36,20.79,30.79,7.57,.83,18.43-10.46,19.41-22.39,1.42-17.36-19.28-21.3-34.65-50.38-13.61-25.76-9.3-45.22-19.41-47.58-8.9-2.08-19.31,11.36-23.56,19.59Z"/><path class="cls-3" d="M371.85,366.81c-1.76,5.12-2.15,21.42-11.34,37.44-4.36,7.6-3.31,13.08-14.45,22.39-6.95,5.81-32.64,6.87-35.51,11.27-3.94,6.06,4.78,32.89-2.34,34.9-13.75,3.89-65.56,3.44-69-2.79-5-9.06,21.02-32.87,45.18-56.07,21.39-20.55,30.54-50.16,30.54-50.16,11.48,1.07,59.33-4.02,56.92,3.03Z"/><path class="cls-13" d="M413.87,330.73c-1.79,2.22-17.1,20.88-39.91,31.76-23.1,11.02-43.16,8.94-73.77,5.77-26.22-2.71-27.46,.63-51.99,.53-14.48-.06-25.27,1.5-42.05,3.61-13.56,1.7-24.92,1.9-36,.9-20.67-1.87-38.53-15.05-46.53-35.35-2.88-7.31-7.98-20.25-6.05-36.09,2.63-21.62,15.49-25.11,18.14-50.53,.78-7.46,1.88-18-2.42-28.87-3.34-8.46-7.17-10.09-7.26-15.88-.17-11.06,13.22-23.72,22.98-21.66,4.18,.89,15.08-1.62,18.38-.62,0,0,6.42,1.66,9.89,2.81,20.55,6.75,5.16-.82,18.69,1.7,9.48,1.77,6.45,3.35,11.63,2.71,5.16-.64,10.44-.57,18.69-4.21,13.21-5.84,18.21-3.08,28.86-8.42,7.64-3.83,15.42,5.46,24.47,.26,10.92-6.27,13.5,7.81,23.9,1.55,7.65-4.61,23.59-2.05,26.89-2.99,5.4-1.54,9.53,19.64,22.3,18.33,10.07-1.03,24.15,6.02,32.12,6.21,8.14,.2,13.14,52.24,22.98,51.97,2-.05,4.72-2.28,6.15-3.76,4.52-4.69,4.16-10.46,5.95-10.68,2.76-.33,12.43-1.67,20.39,7.81,7.53,8.98,7.8,19.74,7.43,26.84-.3,5.74-2.66,11.58-21.77,38.98-11.96,17.15-11.65,16.78-12.09,17.32Z"/><ellipse class="cls-21" cx="177.64" cy="281.78" rx="15.5" ry="24.77" transform="translate(-155.46 282.34) rotate(-57.87)"/><ellipse class="cls-22" cx="317.88" cy="288.5" rx="24.41" ry="15.73" transform="translate(-74.39 114.14) rotate(-18.26)"/><path class="cls-1" d="M233.22,386.54h0c-5.61-1.32-13.81-4-22.56-10.04-12.34-8.52-17.51-18.04-21.37-15.78-2.79,1.63-1.56,7.46-2.37,25.83-.9,20.31-2.98,26.15,0,28.7,2.67,2.28,5.79-1.17,22.56-8.61,14.91-6.62,18.41-6.54,21.37-5.74,5.52,1.5,6.54,4.8,13.06,5.74,5.87,.85,7.24-1.52,13.06-1.43,7.42,.11,9.09,4.01,17.81,7.17,5.26,1.91,17.85,6.48,23.75,0,3.97-4.36,1.11-9.56,3.56-28.7,1.89-14.72,4.54-19.11,2.37-21.52-3.18-3.55-27.2,13-42.54,24.02-2.77,1.99-7.92-8.37-13.65-8.13-9.88,.41-11.82,11.6-15.05,8.51"/><circle class="cls-19" cx="238.59" cy="542.6" r="14.17"/><circle class="cls-18" cx="245.32" cy="624.05" r="14.17"/><path class="cls-4" d="M394.62,258.93c-15.28-.32-27.56,43.11-35.73,38.92-2.67-1.37-1.78-6.23-5.84-19.28-4.8-15.41-11.9-27.41-13.27-26.52-1.36,.89,2.91,14.44,1.71,15.19-1.89,1.18-14.51-30.95-15.67-30.18-1.05,.7,10.22,26.32,6.47,30.62-7.26,8.33-66.51-68.63-70.92-62.86-1.03,1.35,2.08,5.7,3.42,15.9,1.33,10.15,1.02,27.05-3.56,30.42-11.58,8.53-45.74-73.06-66.51-63.67-14.05,6.35-14.08,50.76-20.48,50.53-3.86-.14-1.88-29.41-8.17-31.33-3.48-1.06-7.42,6.69-10.29,11.36-16.13,26.33-48.78,37.98-54.59,29.35-5.99-8.91,12-46.27,31.28-70.54,15.6-19.64,31-29.41,40.99-35.62,29.5-18.33,55.1-21.52,68.63-23.04,34.4-3.87,66.61-5.79,79.85-1.04,6.59,2.36,32.92,9.45,59.74,31.46,11.61,9.53,29.53,21.65,40.21,38.3,3.51,5.47-2.09,29.29,4.65,52.79,6.51,22.7,7.15,41,7.79,59.68,.52,15.09,1.06,30.65-1.89,31.71-6.58,2.35-17.97-71.74-37.84-72.16Z"/><path class="cls-9" d="M183.29,114.98c-22.63,10.13-76.43,27.22-74.28,35.16,2.85,10.52-1.94,34.47,8.12,35.23,33.81,2.57,117.45,6.68,146.99,6.68,40.26,0,121.62,3.68,158.92,5.03,18.65,.68,16.72-7.66,12.63-36.39-.69-4.82-64.28-44.74-64.28-44.74-3.52-51.92,.67-42.89-7.38-88.09-3.5-19.64-106.32-36.12-152.08-4.11-5.97-5.73-16.93,92.49-28.65,91.22Z"/><path class="cls-20" d="M215.64,324.34c.37,.72,6.66,12.44,20.14,13.52,12.94,1.03,20.86-8.67,21.49-9.46"/><path class="cls-15" d="M490.93,223.81c-8.95-7.3-29.36-13.15-34.5-15.5-12.96-5.94-30.74-3.14-22.68-11.29,15.18-15.34-18.27-4.36-10.72-34.83,1.71-6.9,50.79-4.21,65.47,10.04,12.13,11.78,8.06,56.17,2.43,51.57Z"/></g></g></svg>